<svg xmlns="http://www.w3.org/2000/svg" viewBox="0 0 1.984375 1.5988622389943192584797868008434429567271832956364">
<rect width="100%" height="100%" fill="black" />
<rect x="0" y="0.59886223899431925847978680084344295672718329563643" width="1" height="1" fill="rgb(51,102,204)" />
<text x="0.5" y="1.0988622389943192584797868008434429567271832956364" font-size="0.8" text-anchor="middle" dominant-baseline="central" fill="rgb(255,255,255)">1</text>
<rect x="1" y="1.0988622389943192584797868008434429567271832956364" width="0.5" height="0.5" fill="rgb(220,57,18)" />
<text x="1.25" y="1.3488622389943192584797868008434429567271832956364" font-size="0.4" text-anchor="middle" dominant-baseline="central" fill="rgb(255,255,255)">2</text>
<rect x="0" y="0.26552890566098592514645346751010962339384996230310" width="0.33333333333333333333333333333333333333333333333333" height="0.33333333333333333333333333333333333333333333333333" fill="rgb(51,102,204)" />
<text x="0.16666666666666666666666666666666666666666666666667" y="0.43219557232765259181312013417677629006051662896977" font-size="0.26666666666666666666666666666666666666666666666667" text-anchor="middle" dominant-baseline="central" fill="rgb(255,255,255)">3</text>
<rect x="1.5" y="1.3488622389943192584797868008434429567271832956364" width="0.25" height="0.25" fill="rgb(220,57,18)" />
<text x="1.625" y="1.4738622389943192584797868008434429567271832956364" font-size="0.2" text-anchor="middle" dominant-baseline="central" fill="rgb(255,255,255)">4</text>
<rect x="1" y="0.89886223899431925847978680084344295672718329563643" width="0.2" height="0.2" fill="rgb(51,102,204)" />
<text x="1.1" y="0.99886223899431925847978680084344295672718329563643" font-size="0.16" text-anchor="middle" dominant-baseline="central" fill="rgb(255,255,255)">5</text>
<rect x="0.33333333333333333333333333333333333333333333333333" y="0.43219557232765259181312013417677629006051662896977" width="0.16666666666666666666666666666666666666666666666667" height="0.16666666666666666666666666666666666666666666666667" fill="rgb(220,57,18)" />
<text x="0.41666666666666666666666666666666666666666666666667" y="0.51552890566098592514645346751010962339384996230310" font-size="0.13333333333333333333333333333333333333333333333333" text-anchor="middle" dominant-baseline="central" fill="rgb(255,255,255)">6</text>
<rect x="0" y="0.12267176280384306800359632465296676625099281944596" width="0.14285714285714285714285714285714285714285714285714" height="0.14285714285714285714285714285714285714285714285714" fill="rgb(51,102,204)" />
<text x="0.071428571428571428571428571428571428571428571428571" y="0.19410033423241449657502489608153819482242139087453" font-size="0.11428571428571428571428571428571428571428571428571" text-anchor="middle" dominant-baseline="central" fill="rgb(255,255,255)">7</text>
<rect x="1.75" y="1.4738622389943192584797868008434429567271832956364" width="0.125" height="0.125" fill="rgb(220,57,18)" />
<text x="1.8125" y="1.5363622389943192584797868008434429567271832956364" font-size="0.1" text-anchor="middle" dominant-baseline="central" fill="rgb(255,255,255)">8</text>
<rect x="1.5" y="1.2377511278832081473686756897323318456160721845253" width="0.11111111111111111111111111111111111111111111111111" height="0.11111111111111111111111111111111111111111111111111" fill="rgb(51,102,204)" />
<text x="1.5555555555555555555555555555555555555555555555556" y="1.2933066834387637029242312452878874011716277400809" font-size="0.088888888888888888888888888888888888888888888888889" text-anchor="middle" dominant-baseline="central" fill="rgb(255,255,255)">9</text>
<rect x="1.2" y="0.99886223899431925847978680084344295672718329563643" width="0.1" height="0.1" fill="rgb(220,57,18)" />
<text x="1.25" y="1.0488622389943192584797868008434429567271832956364" font-size="0.066666666666666666666666666666666666666666666666667" text-anchor="middle" dominant-baseline="central" fill="rgb(255,255,255)">10</text>
<rect x="1" y="0.80795314808522834938887770993435204763627420472734" width="0.090909090909090909090909090909090909090909090909091" height="0.090909090909090909090909090909090909090909090909091" fill="rgb(51,102,204)" />
<text x="1.0454545454545454545454545454545454545454545454545" y="0.85340769353977380393433225538889750218172875018189" font-size="0.060606060606060606060606060606060606060606060606061" text-anchor="middle" dominant-baseline="central" fill="rgb(255,255,255)">11</text>
<rect x="0.5" y="0.51552890566098592514645346751010962339384996230310" width="0.083333333333333333333333333333333333333333333333333" height="0.083333333333333333333333333333333333333333333333333" fill="rgb(220,57,18)" />
<text x="0.54166666666666666666666666666666666666666666666667" y="0.55719557232765259181312013417677629006051662896977" font-size="0.055555555555555555555555555555555555555555555555556" text-anchor="middle" dominant-baseline="central" fill="rgb(255,255,255)">12</text>
<rect x="0.33333333333333333333333333333333333333333333333333" y="0.35527249540457566873619705725369936698359355204669" width="0.076923076923076923076923076923076923076923076923077" height="0.076923076923076923076923076923076923076923076923077" fill="rgb(51,102,204)" />
<text x="0.37179487179487179487179487179487179487179487179487" y="0.39373403386611413027465859571523782852205509050823" font-size="0.051282051282051282051282051282051282051282051282051" text-anchor="middle" dominant-baseline="central" fill="rgb(255,255,255)">13</text>
<rect x="0.14285714285714285714285714285714285714285714285714" y="0.19410033423241449657502489608153819482242139087453" width="0.071428571428571428571428571428571428571428571428571" height="0.071428571428571428571428571428571428571428571428571" fill="rgb(220,57,18)" />
<text x="0.17857142857142857142857142857142857142857142857143" y="0.22981461994670021086073918179582390910813567658881" font-size="0.047619047619047619047619047619047619047619047619048" text-anchor="middle" dominant-baseline="central" fill="rgb(255,255,255)">14</text>
<rect x="0" y="0.056005096137176401336929657986300099584326152779290" width="0.066666666666666666666666666666666666666666666666667" height="0.066666666666666666666666666666666666666666666666667" fill="rgb(51,102,204)" />
<text x="0.033333333333333333333333333333333333333333333333333" y="0.089338429470509734670262991319633432917659486112623" font-size="0.044444444444444444444444444444444444444444444444444" text-anchor="middle" dominant-baseline="central" fill="rgb(255,255,255)">15</text>
<rect x="1.875" y="1.5363622389943192584797868008434429567271832956364" width="0.0625" height="0.0625" fill="rgb(220,57,18)" />
<text x="1.90625" y="1.5676122389943192584797868008434429567271832956364" font-size="0.041666666666666666666666666666666666666666666666667" text-anchor="middle" dominant-baseline="central" fill="rgb(255,255,255)">16</text>
<rect x="1.75" y="1.4150387095825545525974338596669723684918891779894" width="0.058823529411764705882352941176470588235294117647059" height="0.058823529411764705882352941176470588235294117647059" fill="rgb(51,102,204)" />
<text x="1.7794117647058823529411764705882352941176470588235" y="1.4444504742884369055386103302552076626095362368129" font-size="0.039215686274509803921568627450980392156862745098039" text-anchor="middle" dominant-baseline="central" fill="rgb(255,255,255)">17</text>
<rect x="1.6111111111111111111111111111111111111111111111111" y="1.2933066834387637029242312452878874011716277400809" width="0.055555555555555555555555555555555555555555555555556" height="0.055555555555555555555555555555555555555555555555556" fill="rgb(220,57,18)" />
<text x="1.6388888888888888888888888888888888888888888888889" y="1.3210844612165414807020090230656651789494055178587" font-size="0.037037037037037037037037037037037037037037037037037" text-anchor="middle" dominant-baseline="central" fill="rgb(255,255,255)">18</text>
<rect x="1.5" y="1.1851195489358397263160441107849634245634406055780" width="0.052631578947368421052631578947368421052631578947368" height="0.052631578947368421052631578947368421052631578947368" fill="rgb(51,102,204)" />
<text x="1.5263157894736842105263157894736842105263157894737" y="1.2114353384095239368423599002586476350897563950516" font-size="0.035087719298245614035087719298245614035087719298246" text-anchor="middle" dominant-baseline="central" fill="rgb(255,255,255)">19</text>
<rect x="1.3" y="1.0488622389943192584797868008434429567271832956364" width="0.05" height="0.05" fill="rgb(220,57,18)" />
<text x="1.325" y="1.0738622389943192584797868008434429567271832956364" font-size="0.033333333333333333333333333333333333333333333333333" text-anchor="middle" dominant-baseline="central" fill="rgb(255,255,255)">20</text>
<rect x="1.2" y="0.95124319137527163943216775322439533767956424801738" width="0.047619047619047619047619047619047619047619047619048" height="0.047619047619047619047619047619047619047619047619048" fill="rgb(51,102,204)" />
<text x="1.2238095238095238095238095238095238095238095238095" y="0.97505271518479544895597727703391914720337377182691" font-size="0.031746031746031746031746031746031746031746031746032" text-anchor="middle" dominant-baseline="central" fill="rgb(255,255,255)">21</text>
<rect x="1.0909090909090909090909090909090909090909090909091" y="0.85340769353977380393433225538889750218172875018189" width="0.045454545454545454545454545454545454545454545454545" height="0.045454545454545454545454545454545454545454545454545" fill="rgb(220,57,18)" />
<text x="1.1136363636363636363636363636363636363636363636364" y="0.87613496626704653120705952811617022945445602290916" font-size="0.030303030303030303030303030303030303030303030303030" text-anchor="middle" dominant-baseline="central" fill="rgb(255,255,255)">22</text>
<rect x="1" y="0.76447488721566313199757336210826509111453507429256" width="0.043478260869565217391304347826086956521739130434783" height="0.043478260869565217391304347826086956521739130434783" fill="rgb(51,102,204)" />
<text x="1.0217391304347826086956521739130434782608695652174" y="0.78621401765044574069322553602130856937540463950995" font-size="0.028985507246376811594202898550724637681159420289855" text-anchor="middle" dominant-baseline="central" fill="rgb(255,255,255)">23</text>
<rect x="0.58333333333333333333333333333333333333333333333333" y="0.55719557232765259181312013417677629006051662896977" width="0.041666666666666666666666666666666666666666666666667" height="0.041666666666666666666666666666666666666666666666667" fill="rgb(220,57,18)" />
<text x="0.60416666666666666666666666666666666666666666666667" y="0.57802890566098592514645346751010962339384996230310" font-size="0.027777777777777777777777777777777777777777777777778" text-anchor="middle" dominant-baseline="central" fill="rgb(255,255,255)">24</text>
<rect x="0.5" y="0.47552890566098592514645346751010962339384996230310" width="0.04" height="0.04" fill="rgb(51,102,204)" />
<text x="0.52" y="0.49552890566098592514645346751010962339384996230310" font-size="0.026666666666666666666666666666666666666666666666667" text-anchor="middle" dominant-baseline="central" fill="rgb(255,255,255)">25</text>
<rect x="0.41025641025641025641025641025641025641025641025641" y="0.39373403386611413027465859571523782852205509050823" width="0.038461538461538461538461538461538461538461538461538" height="0.038461538461538461538461538461538461538461538461538" fill="rgb(220,57,18)" />
<text x="0.42948717948717948717948717948717948717948717948718" y="0.41296480309688336104388936494600705929128585973900" font-size="0.025641025641025641025641025641025641025641025641026" text-anchor="middle" dominant-baseline="central" fill="rgb(255,255,255)">26</text>
<rect x="0.33333333333333333333333333333333333333333333333333" y="0.31823545836753863169916002021666232994655651500965" width="0.037037037037037037037037037037037037037037037037037" height="0.037037037037037037037037037037037037037037037037037" fill="rgb(51,102,204)" />
<text x="0.35185185185185185185185185185185185185185185185185" y="0.33675397688605715021767853873518084846507503352817" font-size="0.024691358024691358024691358024691358024691358024691" text-anchor="middle" dominant-baseline="central" fill="rgb(255,255,255)">27</text>
<rect x="0.21428571428571428571428571428571428571428571428571" y="0.22981461994670021086073918179582390910813567658881" width="0.035714285714285714285714285714285714285714285714286" height="0.035714285714285714285714285714285714285714285714286" fill="rgb(220,57,18)" />
<text x="0.23214285714285714285714285714285714285714285714286" y="0.24767176280384306800359632465296676625099281944596" font-size="0.023809523809523809523809523809523809523809523809524" text-anchor="middle" dominant-baseline="central" fill="rgb(255,255,255)">28</text>
<rect x="0.14285714285714285714285714285714285714285714285714" y="0.15961757561172484140261110297808991896035242535729" width="0.034482758620689655172413793103448275862068965517241" height="0.034482758620689655172413793103448275862068965517241" fill="rgb(51,102,204)" />
<text x="0.16009852216748768472906403940886699507389162561576" y="0.17685895492206966898881799952981405689138690811591" font-size="0.022988505747126436781609195402298850574712643678161" text-anchor="middle" dominant-baseline="central" fill="rgb(255,255,255)">29</text>
<rect x="0.066666666666666666666666666666666666666666666666667" y="0.089338429470509734670262991319633432917659486112623" width="0.033333333333333333333333333333333333333333333333333" height="0.033333333333333333333333333333333333333333333333333" fill="rgb(220,57,18)" />
<text x="0.083333333333333333333333333333333333333333333333333" y="0.10600509613717640133692965798630009958432615277929" font-size="0.022222222222222222222222222222222222222222222222222" text-anchor="middle" dominant-baseline="central" fill="rgb(255,255,255)">30</text>
<rect x="0" y="0.023747031621047369078865141857267841519810023747032" width="0.032258064516129032258064516129032258064516129032258" height="0.032258064516129032258064516129032258064516129032258" fill="rgb(51,102,204)" />
<text x="0.016129032258064516129032258064516129032258064516129" y="0.039876063879111885207897399921783970552068088263161" font-size="0.021505376344086021505376344086021505376344086021505" text-anchor="middle" dominant-baseline="central" fill="rgb(255,255,255)">31</text>
<rect x="1.9375" y="1.5676122389943192584797868008434429567271832956364" width="0.03125" height="0.03125" fill="rgb(220,57,18)" />
<text x="1.953125" y="1.5832372389943192584797868008434429567271832956364" font-size="0.020833333333333333333333333333333333333333333333333" text-anchor="middle" dominant-baseline="central" fill="rgb(255,255,255)">32</text>
<rect x="1.875" y="1.5060592086912889554494837705404126536968802653334" width="0.030303030303030303030303030303030303030303030303030" height="0.030303030303030303030303030303030303030303030303030" fill="rgb(51,102,204)" />
<text x="1.8901515151515151515151515151515151515151515151515" y="1.5212107238428041069646352856919278052120317804849" font-size="0.020202020202020202020202020202020202020202020202020" text-anchor="middle" dominant-baseline="central" fill="rgb(255,255,255)">33</text>
<rect x="1.8088235294117647058823529411764705882352941176471" y="1.4444504742884369055386103302552076626095362368129" width="0.029411764705882352941176470588235294117647058823529" height="0.029411764705882352941176470588235294117647058823529" fill="rgb(220,57,18)" />
<text x="1.8235294117647058823529411764705882352941176470588" y="1.4591563566413780820091985655493253096683597662247" font-size="0.019607843137254901960784313725490196078431372549020" text-anchor="middle" dominant-baseline="central" fill="rgb(255,255,255)">34</text>
<rect x="1.75" y="1.3864672810111259811688624310955437970633177494179" width="0.028571428571428571428571428571428571428571428571429" height="0.028571428571428571428571428571428571428571428571429" fill="rgb(51,102,204)" />
<text x="1.7642857142857142857142857142857142857142857142857" y="1.4007529952968402668831481453812580827776034637037" font-size="0.019047619047619047619047619047619047619047619047619" text-anchor="middle" dominant-baseline="central" fill="rgb(255,255,255)">35</text>
<rect x="1.6666666666666666666666666666666666666666666666667" y="1.3210844612165414807020090230656651789494055178587" width="0.027777777777777777777777777777777777777777777777778" height="0.027777777777777777777777777777777777777777777777778" fill="rgb(220,57,18)" />
<text x="1.6805555555555555555555555555555555555555555555556" y="1.3349733501054303695908979119545540678382944067475" font-size="0.018518518518518518518518518518518518518518518518519" text-anchor="middle" dominant-baseline="central" fill="rgb(255,255,255)">36</text>
<rect x="1.6111111111111111111111111111111111111111111111111" y="1.2662796564117366758972042182608603741446007130538" width="0.027027027027027027027027027027027027027027027027027" height="0.027027027027027027027027027027027027027027027027027" fill="rgb(51,102,204)" />
<text x="1.6246246246246246246246246246246246246246246246246" y="1.2797931699252501894107177317743738876581142265674" font-size="0.018018018018018018018018018018018018018018018018018" text-anchor="middle" dominant-baseline="central" fill="rgb(255,255,255)">37</text>
<rect x="1.5526315789473684210526315789473684210526315789474" y="1.2114353384095239368423599002586476350897563950516" width="0.026315789473684210526315789473684210526315789473684" height="0.026315789473684210526315789473684210526315789473684" fill="rgb(220,57,18)" />
<text x="1.5657894736842105263157894736842105263157894736842" y="1.2245932331463660421055177949954897403529142897885" font-size="0.017543859649122807017543859649122807017543859649123" text-anchor="middle" dominant-baseline="central" fill="rgb(255,255,255)">38</text>
<rect x="1.5" y="1.1594785232948140852904030851439377835377995799369" width="0.025641025641025641025641025641025641025641025641026" height="0.025641025641025641025641025641025641025641025641026" fill="rgb(51,102,204)" />
<text x="1.5128205128205128205128205128205128205128205128205" y="1.1722990361153269058032235979644506040506200927574" font-size="0.017094017094017094017094017094017094017094017094017" text-anchor="middle" dominant-baseline="central" fill="rgb(255,255,255)">39</text>
<rect x="1.35" y="1.0738622389943192584797868008434429567271832956364" width="0.025" height="0.025" fill="rgb(220,57,18)" />
<text x="1.3625" y="1.0863622389943192584797868008434429567271832956364" font-size="0.016666666666666666666666666666666666666666666666667" text-anchor="middle" dominant-baseline="central" fill="rgb(255,255,255)">40</text>
<rect x="1.3" y="1.0244719950918802340895428984044185664832808566120" width="0.024390243902439024390243902439024390243902439024390" height="0.024390243902439024390243902439024390243902439024390" fill="rgb(51,102,204)" />
<text x="1.3121951219512195121951219512195121951219512195122" y="1.0366671170430997462846648496239307616052320761242" font-size="0.016260162601626016260162601626016260162601626016260" text-anchor="middle" dominant-baseline="central" fill="rgb(255,255,255)">41</text>
<rect x="1.2476190476190476190476190476190476190476190476190" y="0.97505271518479544895597727703391914720337377182691" width="0.023809523809523809523809523809523809523809523809524" height="0.023809523809523809523809523809523809523809523809524" fill="rgb(220,57,18)" />
<text x="1.2595238095238095238095238095238095238095238095238" y="0.98695747708955735371788203893868105196527853373167" font-size="0.015873015873015873015873015873015873015873015873016" text-anchor="middle" dominant-baseline="central" fill="rgb(255,255,255)">42</text>
<rect x="1.2" y="0.92798737742178326733914449741044184930747122476157" width="0.023255813953488372093023255813953488372093023255814" height="0.023255813953488372093023255813953488372093023255814" fill="rgb(51,102,204)" />
<text x="1.2116279069767441860465116279069767441860465116279" y="0.93961528439852745338565612531741859349351773638948" font-size="0.015503875968992248062015503875968992248062015503876" text-anchor="middle" dominant-baseline="central" fill="rgb(255,255,255)">43</text>
<rect x="1.1363636363636363636363636363636363636363636363636" y="0.87613496626704653120705952811617022945445602290916" width="0.022727272727272727272727272727272727272727272727273" height="0.022727272727272727272727272727272727272727272727273" fill="rgb(220,57,18)" />
<text x="1.1477272727272727272727272727272727272727272727273" y="0.88749860263068289484342316447980659309081965927280" font-size="0.015151515151515151515151515151515151515151515151515" text-anchor="middle" dominant-baseline="central" fill="rgb(255,255,255)">44</text>
<rect x="1.0909090909090909090909090909090909090909090909091" y="0.83118547131755158171211003316667527995950652795966" width="0.022222222222222222222222222222222222222222222222222" height="0.022222222222222222222222222222222222222222222222222" fill="rgb(51,102,204)" />
<text x="1.1020202020202020202020202020202020202020202020202" y="0.84229658242866269282322114427778639107061763907078" font-size="0.014814814814814814814814814814814814814814814814815" text-anchor="middle" dominant-baseline="central" fill="rgb(255,255,255)">45</text>
<rect x="1.0434782608695652173913043478260869565217391304348" y="0.78621401765044574069322553602130856937540463950995" width="0.021739130434782608695652173913043478260869565217391" height="0.021739130434782608695652173913043478260869565217391" fill="rgb(220,57,18)" />
<text x="1.0543478260869565217391304347826086956521739130435" y="0.79708358286783704504105162297783030850583942211865" font-size="0.014492753623188405797101449275362318840579710144928" text-anchor="middle" dominant-baseline="central" fill="rgb(255,255,255)">46</text>
<rect x="1" y="0.74319829147098228093374357487422253792304571259043" width="0.021276595744680851063829787234042553191489361702128" height="0.021276595744680851063829787234042553191489361702128" fill="rgb(51,102,204)" />
<text x="1.0106382978723404255319148936170212765957446808511" y="0.75383658934332270646565846849124381451879039344150" font-size="0.014184397163120567375886524822695035460992907801418" text-anchor="middle" dominant-baseline="central" fill="rgb(255,255,255)">47</text>
<rect x="0.625" y="0.57802890566098592514645346751010962339384996230310" width="0.020833333333333333333333333333333333333333333333333" height="0.020833333333333333333333333333333333333333333333333" fill="rgb(220,57,18)" />
<text x="0.63541666666666666666666666666666666666666666666667" y="0.58844557232765259181312013417677629006051662896977" font-size="0.013888888888888888888888888888888888888888888888889" text-anchor="middle" dominant-baseline="central" fill="rgb(255,255,255)">48</text>
<rect x="0.58333333333333333333333333333333333333333333333333" y="0.53678740906234646936414054234004159618296560856160" width="0.020408163265306122448979591836734693877551020408163" height="0.020408163265306122448979591836734693877551020408163" fill="rgb(51,102,204)" />
<text x="0.59353741496598639455782312925170068027210884353741" y="0.54699149069499953058863033825840894312174111876568" font-size="0.013605442176870748299319727891156462585034013605442" text-anchor="middle" dominant-baseline="central" fill="rgb(255,255,255)">49</text>
<rect x="0.54" y="0.49552890566098592514645346751010962339384996230310" width="0.02" height="0.02" fill="rgb(220,57,18)" />
<text x="0.55" y="0.50552890566098592514645346751010962339384996230310" font-size="0.013333333333333333333333333333333333333333333333333" text-anchor="middle" dominant-baseline="central" fill="rgb(255,255,255)">50</text>
<rect x="0.5" y="0.45592106252373102318566915378461942731541858975408" width="0.019607843137254901960784313725490196078431372549020" height="0.019607843137254901960784313725490196078431372549020" fill="rgb(51,102,204)" />
<text x="0.50980392156862745098039215686274509803921568627451" y="0.46572498409235847416606131064736452535463427602859" font-size="0.013071895424836601307189542483660130718954248366013" text-anchor="middle" dominant-baseline="central" fill="rgb(255,255,255)">51</text>
<rect x="0.44871794871794871794871794871794871794871794871795" y="0.41296480309688336104388936494600705929128585973900" width="0.019230769230769230769230769230769230769230769230769" height="0.019230769230769230769230769230769230769230769230769" fill="rgb(220,57,18)" />
<text x="0.45833333333333333333333333333333333333333333333333" y="0.42258018771226797642850474956139167467590124435438" font-size="0.012820512820512820512820512820512820512820512820513" text-anchor="middle" dominant-baseline="central" fill="rgb(255,255,255)">52</text>
<rect x="0.41025641025641025641025641025641025641025641025641" y="0.37486610933781224348220576552655858323903622258370" width="0.018867924528301886792452830188679245283018867924528" height="0.018867924528301886792452830188679245283018867924528" fill="rgb(51,102,204)" />
<text x="0.41969037252056119980648282535074987905176584421867" y="0.38430007160196318687843218062089820588054565654596" font-size="0.012578616352201257861635220125786163522012578616352" text-anchor="middle" dominant-baseline="central" fill="rgb(255,255,255)">53</text>
<rect x="0.37037037037037037037037037037037037037037037037037" y="0.33675397688605715021767853873518084846507503352817" width="0.018518518518518518518518518518518518518518518518519" height="0.018518518518518518518518518518518518518518518518519" fill="rgb(220,57,18)" />
<text x="0.37962962962962962962962962962962962962962962962963" y="0.34601323614531640947693779799444010772433429278743" font-size="0.012345679012345679012345679012345679012345679012346" text-anchor="middle" dominant-baseline="central" fill="rgb(255,255,255)">54</text>
<rect x="0.33333333333333333333333333333333333333333333333333" y="0.30005364018572044988097820203484414812837469682783" width="0.018181818181818181818181818181818181818181818181818" height="0.018181818181818181818181818181818181818181818181818" fill="rgb(51,102,204)" />
<text x="0.34242424242424242424242424242424242424242424242424" y="0.30914454927662954079006911112575323903746560591874" font-size="0.012121212121212121212121212121212121212121212121212" text-anchor="middle" dominant-baseline="central" fill="rgb(255,255,255)">55</text>
<rect x="0.25" y="0.24767176280384306800359632465296676625099281944596" width="0.017857142857142857142857142857142857142857142857143" height="0.017857142857142857142857142857142857142857142857143" fill="rgb(220,57,18)" />
<text x="0.25892857142857142857142857142857142857142857142857" y="0.25660033423241449657502489608153819482242139087453" font-size="0.011904761904761904761904761904761904761904761904762" text-anchor="middle" dominant-baseline="central" fill="rgb(255,255,255)">56</text>
<rect x="0.21428571428571428571428571428571428571428571428571" y="0.21227076029757740384319532214670110209059181693969" width="0.017543859649122807017543859649122807017543859649123" height="0.017543859649122807017543859649122807017543859649123" fill="rgb(51,102,204)" />
<text x="0.22305764411027568922305764411027568922305764411028" y="0.22104269012213880735196725197126250559936374676425" font-size="0.011695906432748538011695906432748538011695906432749" text-anchor="middle" dominant-baseline="central" fill="rgb(255,255,255)">57</text>
<rect x="0.17733990147783251231527093596059113300492610837438" y="0.17685895492206966898881799952981405689138690811591" width="0.017241379310344827586206896551724137931034482758621" height="0.017241379310344827586206896551724137931034482758621" fill="rgb(220,57,18)" />
<text x="0.18596059113300492610837438423645320197044334975369" y="0.18547964457724208278192144780567612585690414949522" font-size="0.011494252873563218390804597701149425287356321839080" text-anchor="middle" dominant-baseline="central" fill="rgb(255,255,255)">58</text>
<rect x="0.14285714285714285714285714285714285714285714285714" y="0.14266842306935196004667889958825941048577615417085" width="0.016949152542372881355932203389830508474576271186441" height="0.016949152542372881355932203389830508474576271186441" fill="rgb(51,102,204)" />
<text x="0.15133171912832929782082324455205811138014527845036" y="0.15114299934053840072464500128317466472306428976407" font-size="0.011299435028248587570621468926553672316384180790960" text-anchor="middle" dominant-baseline="central" fill="rgb(255,255,255)">59</text>
<rect x="0.1" y="0.10600509613717640133692965798630009958432615277929" width="0.016666666666666666666666666666666666666666666666667" height="0.016666666666666666666666666666666666666666666666667" fill="rgb(220,57,18)" />
<text x="0.10833333333333333333333333333333333333333333333333" y="0.11433842947050973467026299131963343291765948611262" font-size="0.011111111111111111111111111111111111111111111111111" text-anchor="middle" dominant-baseline="central" fill="rgb(255,255,255)">60</text>
<rect x="0.066666666666666666666666666666666666666666666666667" y="0.072944986847558914998131843778649826360282436932295" width="0.016393442622950819672131147540983606557377049180328" height="0.016393442622950819672131147540983606557377049180328" fill="rgb(51,102,204)" />
<text x="0.074863387978142076502732240437158469945355191256831" y="0.081141708159034324834197417549141629638970961522459" font-size="0.010928961748633879781420765027322404371584699453552" text-anchor="middle" dominant-baseline="central" fill="rgb(255,255,255)">61</text>
<rect x="0.032258064516129032258064516129032258064516129032258" y="0.039876063879111885207897399921783970552068088263161" width="0.016129032258064516129032258064516129032258064516129" height="0.016129032258064516129032258064516129032258064516129" fill="rgb(220,57,18)" />
<text x="0.040322580645161290322580645161290322580645161290323" y="0.047940580008144143272413528954042035068197120521225" font-size="0.010752688172043010752688172043010752688172043010753" text-anchor="middle" dominant-baseline="central" fill="rgb(255,255,255)">62</text>
<rect x="0" y="0.0078740157480314960629921259842519685039370078740157" width="0.015873015873015873015873015873015873015873015873016" height="0.015873015873015873015873015873015873015873015873016" fill="rgb(51,102,204)" />
<text x="0.0079365079365079365079365079365079365079365079365079" y="0.015810523684539432570928633920759905011873515810524" font-size="0.010582010582010582010582010582010582010582010582011" text-anchor="middle" dominant-baseline="central" fill="rgb(255,255,255)">63</text>
<rect x="1.96875" y="1.5832372389943192584797868008434429567271832956364" width="0.015625" height="0.015625" fill="rgb(220,57,18)" />
<text x="1.9765625" y="1.5910497389943192584797868008434429567271832956364" font-size="0.010416666666666666666666666666666666666666666666667" text-anchor="middle" dominant-baseline="central" fill="rgb(255,255,255)">64</text>
<rect x="1.9375" y="1.5522276236097038738644021854588275721117986802518" width="0.015384615384615384615384615384615384615384615384615" height="0.015384615384615384615384615384615384615384615384615" fill="rgb(51,102,204)" />
<text x="1.9451923076923076923076923076923076923076923076923" y="1.5599199313020115661720944931511352644194909879441" font-size="0.010256410256410256410256410256410256410256410256410" text-anchor="middle" dominant-baseline="central" fill="rgb(255,255,255)">65</text>
<rect x="1.9053030303030303030303030303030303030303030303030" y="1.5212107238428041069646352856919278052120317804849" width="0.015151515151515151515151515151515151515151515151515" height="0.015151515151515151515151515151515151515151515151515" fill="rgb(220,57,18)" />
<text x="1.9128787878787878787878787878787878787878787878788" y="1.5287864814185616827222110432676853809696075380607" font-size="0.010101010101010101010101010101010101010101010101010" text-anchor="middle" dominant-baseline="central" fill="rgb(255,255,255)">66</text>
<rect x="1.875" y="1.4911338355569605972405285466598156387715071310050" width="0.014925373134328358208955223880597014925373134328358" height="0.014925373134328358208955223880597014925373134328358" fill="rgb(51,102,204)" />
<text x="1.8824626865671641791044776119402985074626865671642" y="1.4985965221241247763450061586001141462341936981692" font-size="0.0099502487562189054726368159203980099502487562189055" text-anchor="middle" dominant-baseline="central" fill="rgb(255,255,255)">67</text>
<rect x="1.8382352941176470588235294117647058823529411764706" y="1.4591563566413780820091985655493253096683597662247" width="0.014705882352941176470588235294117647058823529411765" height="0.014705882352941176470588235294117647058823529411765" fill="rgb(220,57,18)" />
<text x="1.8455882352941176470588235294117647058823529411765" y="1.4665092978178486702444926831963841331977715309306" font-size="0.0098039215686274509803921568627450980392156862745098" text-anchor="middle" dominant-baseline="central" fill="rgb(255,255,255)">68</text>
<rect x="1.8088235294117647058823529411764705882352941176471" y="1.4299577206652484997415088809798453437689565266680" width="0.014492753623188405797101449275362318840579710144928" height="0.014492753623188405797101449275362318840579710144928" fill="rgb(51,102,204)" />
<text x="1.8160699062233589087809036658141517476555839727195" y="1.4372040974768427026400596056175265031892463817404" font-size="0.0096618357487922705314009661835748792270531400966184" text-anchor="middle" dominant-baseline="central" fill="rgb(255,255,255)">69</text>
<rect x="1.7785714285714285714285714285714285714285714285714" y="1.4007529952968402668831481453812580827776034637037" width="0.014285714285714285714285714285714285714285714285714" height="0.014285714285714285714285714285714285714285714285714" fill="rgb(220,57,18)" />
<text x="1.7857142857142857142857142857142857142857142857143" y="1.4078958524396974097402910025241152256347463208465" font-size="0.0095238095238095238095238095238095238095238095238095" text-anchor="middle" dominant-baseline="central" fill="rgb(255,255,255)">70</text>
<rect x="1.75" y="1.3723827739688724600421018677152621069224726789954" width="0.014084507042253521126760563380281690140845070422535" height="0.014084507042253521126760563380281690140845070422535" fill="rgb(51,102,204)" />
<text x="1.7570422535211267605633802816901408450704225352113" y="1.3794250274899992206054821494054029519928952142067" font-size="0.0093896713615023474178403755868544600938967136150235" text-anchor="middle" dominant-baseline="central" fill="rgb(255,255,255)">71</text>
<rect x="1.6944444444444444444444444444444444444444444444444" y="1.3349733501054303695908979119545540678382944067475" width="0.013888888888888888888888888888888888888888888888889" height="0.013888888888888888888888888888888888888888888888889" fill="rgb(220,57,18)" />
<text x="1.7013888888888888888888888888888888888888888888889" y="1.3419177945498748140353423563989985122827388511920" font-size="0.0092592592592592592592592592592592592592592592592593" text-anchor="middle" dominant-baseline="central" fill="rgb(255,255,255)">72</text>
<rect x="1.6666666666666666666666666666666666666666666666667" y="1.3073858310795551793321460093670350419631041479956" width="0.013698630136986301369863013698630136986301369863014" height="0.013698630136986301369863013698630136986301369863014" fill="rgb(51,102,204)" />
<text x="1.6735159817351598173515981735159817351598173515982" y="1.3142351461480483300170775162163501104562548329271" font-size="0.0091324200913242009132420091324200913242009132420091" text-anchor="middle" dominant-baseline="central" fill="rgb(255,255,255)">73</text>
<rect x="1.6381381381381381381381381381381381381381381381381" y="1.2797931699252501894107177317743738876581142265674" width="0.013513513513513513513513513513513513513513513513514" height="0.013513513513513513513513513513513513513513513513514" fill="rgb(220,57,18)" />
<text x="1.6448948948948948948948948948948948948948948948949" y="1.2865499266820069461674744885311306444148709833241" font-size="0.0090090090090090090090090090090090090090090090090090" text-anchor="middle" dominant-baseline="central" fill="rgb(255,255,255)">74</text>
<rect x="1.6111111111111111111111111111111111111111111111111" y="1.2529463230784033425638708849275270408112673797205" width="0.013333333333333333333333333333333333333333333333333" height="0.013333333333333333333333333333333333333333333333333" fill="rgb(51,102,204)" />
<text x="1.6177777777777777777777777777777777777777777777778" y="1.2596129897450700092305375515941937074779340463872" font-size="0.0088888888888888888888888888888888888888888888888889" text-anchor="middle" dominant-baseline="central" fill="rgb(255,255,255)">75</text>
<rect x="1.5789473684210526315789473684210526315789473684211" y="1.2245932331463660421055177949954897403529142897885" width="0.013157894736842105263157894736842105263157894736842" height="0.013157894736842105263157894736842105263157894736842" fill="rgb(220,57,18)" />
<text x="1.5855263157894736842105263157894736842105263157895" y="1.2311721805147870947370967423639107929844932371569" font-size="0.0087719298245614035087719298245614035087719298245614" text-anchor="middle" dominant-baseline="central" fill="rgb(255,255,255)">76</text>
<rect x="1.5526315789473684210526315789473684210526315789474" y="1.1984483254225109498293728872716346480767693820646" width="0.012987012987012987012987012987012987012987012987013" height="0.012987012987012987012987012987012987012987012987013" fill="rgb(51,102,204)" />
<text x="1.5591250854408749145591250854408749145591250854409" y="1.2049418319160174433358663937651411415832628885581" font-size="0.0086580086580086580086580086580086580086580086580087" text-anchor="middle" dominant-baseline="central" fill="rgb(255,255,255)">77</text>
<rect x="1.5256410256410256410256410256410256410256410256410" y="1.1722990361153269058032235979644506040506200927574" width="0.012820512820512820512820512820512820512820512820513" height="0.012820512820512820512820512820512820512820512820513" fill="rgb(220,57,18)" />
<text x="1.5320512820512820512820512820512820512820512820513" y="1.1787092925255833160596338543747070143070303491677" font-size="0.0085470085470085470085470085470085470085470085470085" text-anchor="middle" dominant-baseline="central" fill="rgb(255,255,255)">78</text>
<rect x="1.5" y="1.1468202954467128194676182750173555050567869217091" width="0.012658227848101265822784810126582278481012658227848" height="0.012658227848101265822784810126582278481012658227848" fill="rgb(51,102,204)" />
<text x="1.5063291139240506329113924050632911392405063291139" y="1.1531494093707634523790106800806466442972932508230" font-size="0.0084388185654008438818565400843881856540084388185654" text-anchor="middle" dominant-baseline="central" fill="rgb(255,255,255)">79</text>
<rect x="1.375" y="1.0863622389943192584797868008434429567271832956364" width="0.0125" height="0.0125" fill="rgb(220,57,18)" />
<text x="1.38125" y="1.0926122389943192584797868008434429567271832956364" font-size="0.0083333333333333333333333333333333333333333333333333" text-anchor="middle" dominant-baseline="central" fill="rgb(255,255,255)">80</text>
<rect x="1.35" y="1.0615165599819735794674411218310972777148376166241" width="0.012345679012345679012345679012345679012345679012346" height="0.012345679012345679012345679012345679012345679012346" fill="rgb(51,102,204)" />
<text x="1.3561728395061728395061728395061728395061728395062" y="1.0676893994881464189736139613372701172210104561303" font-size="0.0082304526748971193415637860082304526748971193415638" text-anchor="middle" dominant-baseline="central" fill="rgb(255,255,255)">81</text>
<rect x="1.3243902439024390243902439024390243902439024390244" y="1.0366671170430997462846648496239307616052320761242" width="0.012195121951219512195121951219512195121951219512195" height="0.012195121951219512195121951219512195121951219512195" fill="rgb(220,57,18)" />
<text x="1.3304878048780487804878048780487804878048780487805" y="1.0427646780187095023822258252336868591662076858803" font-size="0.0081300813008130081300813008130081300813008130081301" text-anchor="middle" dominant-baseline="central" fill="rgb(255,255,255)">82</text>
<rect x="1.3" y="1.0124238023207958967401453080429727833507507361301" width="0.012048192771084337349397590361445783132530120481928" height="0.012048192771084337349397590361445783132530120481928" fill="rgb(51,102,204)" />
<text x="1.3060240963855421686746987951807228915662650602410" y="1.0184478987063380654148441032236956749170157963711" font-size="0.0080321285140562248995983935742971887550200803212851" text-anchor="middle" dominant-baseline="central" fill="rgb(255,255,255)">83</text>
<rect x="1.2714285714285714285714285714285714285714285714286" y="0.98695747708955735371788203893868105196527853373167" width="0.011904761904761904761904761904761904761904761904762" height="0.011904761904761904761904761904761904761904761904762" fill="rgb(220,57,18)" />
<text x="1.2773809523809523809523809523809523809523809523810" y="0.99290985804193830609883441989106200434623091468405" font-size="0.0079365079365079365079365079365079365079365079365079" text-anchor="middle" dominant-baseline="central" fill="rgb(255,255,255)">84</text>
<rect x="1.2476190476190476190476190476190476190476190476190" y="0.96328800930244250777950668879862502955631494829750" width="0.011764705882352941176470588235294117647058823529412" height="0.011764705882352941176470588235294117647058823529412" fill="rgb(51,102,204)" />
<text x="1.2535014005602240896358543417366946778711484593838" y="0.96917036224361897836774198291627208837984436006220" font-size="0.0078431372549019607843137254901960784313725490196078" text-anchor="middle" dominant-baseline="central" fill="rgb(255,255,255)">85</text>
<rect x="1.2232558139534883720930232558139534883720930232558" y="0.93961528439852745338565612531741859349351773638948" width="0.011627906976744186046511627906976744186046511627907" height="0.011627906976744186046511627906976744186046511627907" fill="rgb(220,57,18)" />
<text x="1.2290697674418604651162790697674418604651162790698" y="0.94542923788689954640891193927090696558654099220343" font-size="0.0077519379844961240310077519379844961240310077519380" text-anchor="middle" dominant-baseline="central" fill="rgb(255,255,255)">86</text>
<rect x="1.2" y="0.91649312454822004894833989970929242402011490292249" width="0.011494252873563218390804597701149425287356321839080" height="0.011494252873563218390804597701149425287356321839080" fill="rgb(51,102,204)" />
<text x="1.2057471264367816091954022988505747126436781609195" y="0.92224025098500165814374219855986713666379306384203" font-size="0.0076628352490421455938697318007662835249042145593870" text-anchor="middle" dominant-baseline="central" fill="rgb(255,255,255)">87</text>
<rect x="1.1590909090909090909090909090909090909090909090909" y="0.88749860263068289484342316447980659309081965927280" width="0.011363636363636363636363636363636363636363636363636" height="0.011363636363636363636363636363636363636363636363636" fill="rgb(220,57,18)" />
<text x="1.1647727272727272727272727272727272727272727272727" y="0.89318042081250107666160498266162477490900147745461" font-size="0.0075757575757575757575757575757575757575757575757576" text-anchor="middle" dominant-baseline="central" fill="rgb(255,255,255)">88</text>
<rect x="1.1363636363636363636363636363636363636363636363636" y="0.86489901121086675592616065171167584743198411279680" width="0.011235955056179775280898876404494382022471910112360" height="0.011235955056179775280898876404494382022471910112360" fill="rgb(51,102,204)" />
<text x="1.1419816138917262512768130745658835546475995914198" y="0.87051698873895664356661008991392303844322006785298" font-size="0.0074906367041198501872659176029962546816479400749064" text-anchor="middle" dominant-baseline="central" fill="rgb(255,255,255)">89</text>
<rect x="1.1131313131313131313131313131313131313131313131313" y="0.84229658242866269282322114427778639107061763907078" width="0.011111111111111111111111111111111111111111111111111" height="0.011111111111111111111111111111111111111111111111111" fill="rgb(220,57,18)" />
<text x="1.1186868686868686868686868686868686868686868686869" y="0.84785213798421824837877669983334194662617319462633" font-size="0.0074074074074074074074074074074074074074074074074074" text-anchor="middle" dominant-baseline="central" fill="rgb(255,255,255)">90</text>
<rect x="1.0909090909090909090909090909090909090909090909091" y="0.82019646032854059270112102217766429094851751697065" width="0.010989010989010989010989010989010989010989010989011" height="0.010989010989010989010989010989010989010989010989011" fill="rgb(51,102,204)" />
<text x="1.0964035964035964035964035964035964035964035964036" y="0.82569096582304608720661552767216978545401202246516" font-size="0.0073260073260073260073260073260073260073260073260073" text-anchor="middle" dominant-baseline="central" fill="rgb(255,255,255)">91</text>
<rect x="1.0652173913043478260869565217391304347826086956522" y="0.79708358286783704504105162297783030850583942211865" width="0.010869565217391304347826086956521739130434782608696" height="0.010869565217391304347826086956521739130434782608696" fill="rgb(220,57,18)" />
<text x="1.0706521739130434782608695652173913043478260869565" y="0.80251836547653269721496466645609117807105681342299" font-size="0.0072463768115942028985507246376811594202898550724638" text-anchor="middle" dominant-baseline="central" fill="rgb(255,255,255)">92</text>
<rect x="1.0434782608695652173913043478260869565217391304348" y="0.77546132947840272994053736397829781668723259649920" width="0.010752688172043010752688172043010752688172043010753" height="0.010752688172043010752688172043010752688172043010753" fill="rgb(51,102,204)" />
<text x="1.0488546049555867227676484338475923328658251519402" y="0.78083767356442423531688144999980319303131861800457" font-size="0.0071684587813620071684587813620071684587813620071685" text-anchor="middle" dominant-baseline="central" fill="rgb(255,255,255)">93</text>
<rect x="1.0212765957446808510638297872340425531914893617021" y="0.75383658934332270646565846849124381451879039344150" width="0.010638297872340425531914893617021276595744680851064" height="0.010638297872340425531914893617021276595744680851064" fill="rgb(220,57,18)" />
<text x="1.0265957446808510638297872340425531914893617021277" y="0.75915573827949291923161591529975445281666273386703" font-size="0.0070921985815602836879432624113475177304964539007092" text-anchor="middle" dominant-baseline="central" fill="rgb(255,255,255)">94</text>
<rect x="1" y="0.73267197568150859672321725908474885371251939680096" width="0.010526315789473684210526315789473684210526315789474" height="0.010526315789473684210526315789473684210526315789474" fill="rgb(51,102,204)" />
<text x="1.0052631578947368421052631578947368421052631578947" y="0.73793513357624543882848041697948569581778255469569" font-size="0.0070175438596491228070175438596491228070175438596491" text-anchor="middle" dominant-baseline="central" fill="rgb(255,255,255)">95</text>
<rect x="0.64583333333333333333333333333333333333333333333333" y="0.58844557232765259181312013417677629006051662896977" width="0.010416666666666666666666666666666666666666666666667" height="0.010416666666666666666666666666666666666666666666667" fill="rgb(220,57,18)" />
<text x="0.65104166666666666666666666666666666666666666666667" y="0.59365390566098592514645346751010962339384996230310" font-size="0.0069444444444444444444444444444444444444444444444444" text-anchor="middle" dominant-baseline="central" fill="rgb(255,255,255)">96</text>
<rect x="0.625" y="0.56771962731047046122892769431423333473405614787011" width="0.010309278350515463917525773195876288659793814432990" height="0.010309278350515463917525773195876288659793814432990" fill="rgb(51,102,204)" />
<text x="0.63015463917525773195876288659793814432989690721649" y="0.57287426648572819318769058091217147906395305508660" font-size="0.0068728522336769759450171821305841924398625429553265" text-anchor="middle" dominant-baseline="central" fill="rgb(255,255,255)">97</text>
<rect x="0.60374149659863945578231292517006802721088435374150" y="0.54699149069499953058863033825840894312174111876568" width="0.010204081632653061224489795918367346938775510204082" height="0.010204081632653061224489795918367346938775510204082" fill="rgb(220,57,18)" />
<text x="0.60884353741496598639455782312925170068027210884354" y="0.55209353151132606120087523621759261659112887386773" font-size="0.0068027210884353741496598639455782312925170068027211" text-anchor="middle" dominant-baseline="central" fill="rgb(255,255,255)">98</text>
<rect x="0.58333333333333333333333333333333333333333333333333" y="0.52668639896133636835403953223903149517286459846059" width="0.010101010101010101010101010101010101010101010101010" height="0.010101010101010101010101010101010101010101010101010" fill="rgb(51,102,204)" />
<text x="0.58838383838383838383838383838383838383838383838384" y="0.53173690401184141885909003728953654567791510351110" font-size="0.0067340067340067340067340067340067340067340067340067" text-anchor="middle" dominant-baseline="central" fill="rgb(255,255,255)">99</text>
<rect x="0.56" y="0.50552890566098592514645346751010962339384996230310" width="0.01" height="0.01" fill="rgb(220,57,18)" />
<text x="0.565" y="0.51052890566098592514645346751010962339384996230310" font-size="0.0044444444444444444444444444444444444444444444444444" text-anchor="middle" dominant-baseline="central" fill="rgb(255,255,255)">100</text>
<rect x="0.54" y="0.48562791556197602415635445760911952438394897220409" width="0.0099009900990099009900990099009900990099009900990099" height="0.0099009900990099009900990099009900990099009900990099" fill="rgb(51,102,204)" />
<text x="0.54495049504950495049504950495049504950495049504950" y="0.49057841061148097465140396255961457388889946725359" font-size="0.0044004400440044004400440044004400440044004400440044" text-anchor="middle" dominant-baseline="central" fill="rgb(255,255,255)">101</text>
<rect x="0.51960784313725490196078431372549019607843137254902" y="0.46572498409235847416606131064736452535463427602859" width="0.0098039215686274509803921568627450980392156862745098" height="0.0098039215686274509803921568627450980392156862745098" fill="rgb(220,57,18)" />
<text x="0.52450980392156862745098039215686274509803921568627" y="0.47062694487667219965625738907873707437424211916584" font-size="0.0043572984749455337690631808278867102396514161220044" text-anchor="middle" dominant-baseline="central" fill="rgb(255,255,255)">102</text>
<rect x="0.5" y="0.44621232465965335328275653242539612634454480334631" width="0.0097087378640776699029126213592233009708737864077670" height="0.0097087378640776699029126213592233009708737864077670" fill="rgb(51,102,204)" />
<text x="0.50485436893203883495145631067961165048543689320388" y="0.45106669359169218823421284310500777682998169655020" font-size="0.0043149946062567421790722761596548004314994606256742" text-anchor="middle" dominant-baseline="central" fill="rgb(255,255,255)">103</text>
<rect x="0.46794871794871794871794871794871794871794871794872" y="0.42258018771226797642850474956139167467590124435438" width="0.0096153846153846153846153846153846153846153846153846" height="0.0096153846153846153846153846153846153846153846153846" fill="rgb(220,57,18)" />
<text x="0.47275641025641025641025641025641025641025641025641" y="0.42738788001996028412081244186908398236820893666207" font-size="0.0042735042735042735042735042735042735042735042735043" text-anchor="middle" dominant-baseline="central" fill="rgb(255,255,255)">104</text>
<rect x="0.44871794871794871794871794871794871794871794871795" y="0.40344099357307383723436555542219753548176205021519" width="0.0095238095238095238095238095238095238095238095238095" height="0.0095238095238095238095238095238095238095238095238095" fill="rgb(51,102,204)" />
<text x="0.45347985347985347985347985347985347985347985347985" y="0.40820289833497859913912746018410229738652395497709" font-size="0.0042328042328042328042328042328042328042328042328042" text-anchor="middle" dominant-baseline="central" fill="rgb(255,255,255)">105</text>
<rect x="0.42912433478471214320270924044508950169327527818094" y="0.38430007160196318687843218062089820588054565654596" width="0.0094339622641509433962264150943396226415094339622642" height="0.0094339622641509433962264150943396226415094339622642" fill="rgb(220,57,18)" />
<text x="0.43384131591678761490082244799225931301402999516207" y="0.38901705273403865857654538816806801720130037352710" font-size="0.0041928721174004192872117400419287211740041928721174" text-anchor="middle" dominant-baseline="central" fill="rgb(255,255,255)">106</text>
<rect x="0.41025641025641025641025641025641025641025641025641" y="0.36552031494528887899622445711534362996800818520052" width="0.0093457943925233644859813084112149532710280373831776" height="0.0093457943925233644859813084112149532710280373831776" fill="rgb(51,102,204)" />
<text x="0.41492930745267193865324706446201773304577042894800" y="0.37019321214155056123921511132095110660352220389211" font-size="0.0041536863966770508826583592938733125649013499480789" text-anchor="middle" dominant-baseline="central" fill="rgb(255,255,255)">107</text>
<rect x="0.38888888888888888888888888888888888888888888888889" y="0.34601323614531640947693779799444010772433429278743" width="0.0092592592592592592592592592592592592592592592592593" height="0.0092592592592592592592592592592592592592592592592593" fill="rgb(220,57,18)" />
<text x="0.39351851851851851851851851851851851851851851851852" y="0.35064286577494603910656742762406973735396392241706" font-size="0.0041152263374485596707818930041152263374485596707819" text-anchor="middle" dominant-baseline="central" fill="rgb(255,255,255)">108</text>
<rect x="0.37037037037037037037037037037037037037037037037037" y="0.32757966495945164563052257543242855488709338215202" width="0.0091743119266055045871559633027522935779816513761468" height="0.0091743119266055045871559633027522935779816513761468" fill="rgb(51,102,204)" />
<text x="0.37495752633367312266394835202174651715936119605844" y="0.33216682092275439792410055708380470167608420784010" font-size="0.0040774719673802242609582059123343527013251783893986" text-anchor="middle" dominant-baseline="central" fill="rgb(255,255,255)">109</text>
<rect x="0.35151515151515151515151515151515151515151515151515" y="0.30914454927662954079006911112575323903746560591874" width="0.0090909090909090909090909090909090909090909090909091" height="0.0090909090909090909090909090909090909090909090909091" fill="rgb(220,57,18)" />
<text x="0.35606060606060606060606060606060606060606060606061" y="0.31369000382208408624461456567120778449201106046420" font-size="0.0040404040404040404040404040404040404040404040404040" text-anchor="middle" dominant-baseline="central" fill="rgb(255,255,255)">110</text>
<rect x="0.33333333333333333333333333333333333333333333333333" y="0.29104463117671144087196919302583513911936568781882" width="0.0090090090090090090090090090090090090090090090090090" height="0.0090090090090090090090090090090090090090090090090090" fill="rgb(51,102,204)" />
<text x="0.33783783783783783783783783783783783783783783783784" y="0.29554913568121594537647369753033964362387019232333" font-size="0.0040040040040040040040040040040040040040040040040040" text-anchor="middle" dominant-baseline="central" fill="rgb(255,255,255)">111</text>
<rect x="0.26785714285714285714285714285714285714285714285714" y="0.25660033423241449657502489608153819482242139087453" width="0.0089285714285714285714285714285714285714285714285714" height="0.0089285714285714285714285714285714285714285714285714" fill="rgb(220,57,18)" />
<text x="0.27232142857142857142857142857142857142857142857143" y="0.26106461994670021086073918179582390910813567658881" font-size="0.0039682539682539682539682539682539682539682539682540" text-anchor="middle" dominant-baseline="central" fill="rgb(255,255,255)">112</text>
<rect x="0.25" y="0.23882220528171917419828659013969242996780697873799" width="0.0088495575221238938053097345132743362831858407079646" height="0.0088495575221238938053097345132743362831858407079646" fill="rgb(51,102,204)" />
<text x="0.25442477876106194690265486725663716814159292035398" y="0.24324698404278112110094145739632959810939989909197" font-size="0.0039331366764995083579154375614552605703048180924287" text-anchor="middle" dominant-baseline="central" fill="rgb(255,255,255)">113</text>
<rect x="0.23182957393483709273182957393483709273182957393484" y="0.22104269012213880735196725197126250559936374676425" width="0.0087719298245614035087719298245614035087719298245614" height="0.0087719298245614035087719298245614035087719298245614" fill="rgb(220,57,18)" />
<text x="0.23621553884711779448621553884711779448621553884712" y="0.22542865503441950910635321688354320735374971167653" font-size="0.0038986354775828460038986354775828460038986354775828" text-anchor="middle" dominant-baseline="central" fill="rgb(255,255,255)">114</text>
<rect x="0.21428571428571428571428571428571428571428571428571" y="0.20357510812366436036493445258148371078624399085273" width="0.0086956521739130434782608695652173913043478260869565" height="0.0086956521739130434782608695652173913043478260869565" fill="rgb(51,102,204)" />
<text x="0.21863354037267080745341614906832298136645962732919" y="0.20792293421062088210406488736409240643841790389621" font-size="0.0038647342995169082125603864734299516908212560386473" text-anchor="middle" dominant-baseline="central" fill="rgb(255,255,255)">115</text>
<rect x="0.19458128078817733990147783251231527093596059113300" y="0.18547964457724208278192144780567612585690414949522" width="0.0086206896551724137931034482758620689655172413793103" height="0.0086206896551724137931034482758620689655172413793103" fill="rgb(220,57,18)" />
<text x="0.19889162561576354679802955665024630541871921182266" y="0.18978998940482828967847317194360716033966277018487" font-size="0.0038314176245210727969348659003831417624521072796935" text-anchor="middle" dominant-baseline="central" fill="rgb(255,255,255)">116</text>
<rect x="0.17733990147783251231527093596059113300492610837438" y="0.16831194637506112198027099098280550988283989956890" width="0.0085470085470085470085470085470085470085470085470085" height="0.0085470085470085470085470085470085470085470085470085" fill="rgb(51,102,204)" />
<text x="0.18161340575133678581954444023409540650919961264789" y="0.17258545064856539548454449525630978338711340384240" font-size="0.0037986704653371320037986704653371320037986704653371" text-anchor="middle" dominant-baseline="central" fill="rgb(255,255,255)">117</text>
<rect x="0.15980629539951573849878934624697336561743341404358" y="0.15114299934053840072464500128317466472306428976407" width="0.0084745762711864406779661016949152542372881355932203" height="0.0084745762711864406779661016949152542372881355932203" fill="rgb(220,57,18)" />
<text x="0.16404358353510895883777239709443099273607748184019" y="0.15538028747613162106362805213063229184170835756068" font-size="0.0037664783427495291902071563088512241054613935969868" text-anchor="middle" dominant-baseline="central" fill="rgb(255,255,255)">118</text>
<rect x="0.14285714285714285714285714285714285714285714285714" y="0.13426506172481414492062847942019218359501985164984" width="0.0084033613445378151260504201680672268907563025210084" height="0.0084033613445378151260504201680672268907563025210084" fill="rgb(51,102,204)" />
<text x="0.14705882352941176470588235294117647058823529411765" y="0.13846674239708305248365368950422579704039800291034" font-size="0.0037348272642390289449112978524743230625583566760037" text-anchor="middle" dominant-baseline="central" fill="rgb(255,255,255)">119</text>
<rect x="0.11666666666666666666666666666666666666666666666667" y="0.11433842947050973467026299131963343291765948611262" width="0.0083333333333333333333333333333333333333333333333333" height="0.0083333333333333333333333333333333333333333333333333" fill="rgb(220,57,18)" />
<text x="0.12083333333333333333333333333333333333333333333333" y="0.11850509613717640133692965798630009958432615277929" font-size="0.0037037037037037037037037037037037037037037037037037" text-anchor="middle" dominant-baseline="central" fill="rgb(255,255,255)">120</text>
<rect x="0.1" y="0.097740633327259045965028831540019107848788962696645" width="0.0082644628099173553719008264462809917355371900826446" height="0.0082644628099173553719008264462809917355371900826446" fill="rgb(51,102,204)" />
<text x="0.10413223140495867768595041322314049586776859504132" y="0.10187286473221772365097924476315960371655755773797" font-size="0.0036730945821854912764003673094582185491276400367309" text-anchor="middle" dominant-baseline="central" fill="rgb(255,255,255)">121</text>
<rect x="0.083060109289617486338797814207650273224043715846995" y="0.081141708159034324834197417549141629638970961522459" width="0.0081967213114754098360655737704918032786885245901639" height="0.0081967213114754098360655737704918032786885245901639" fill="rgb(220,57,18)" />
<text x="0.087158469945355191256830601092896174863387978142077" y="0.085240068814772029752230204434387531278315223817541" font-size="0.0036429872495446265938069216757741347905282331511840" text-anchor="middle" dominant-baseline="central" fill="rgb(255,255,255)">122</text>
<rect x="0.066666666666666666666666666666666666666666666666667" y="0.064814905546745906868050542965641696278981623924165" width="0.0081300813008130081300813008130081300813008130081301" height="0.0081300813008130081300813008130081300813008130081301" fill="rgb(51,102,204)" />
<text x="0.070731707317073170731707317073170731707317073170732" y="0.068879946197152410933091193372145761319632030428230" font-size="0.0036133694670280036133694670280036133694670280036134" text-anchor="middle" dominant-baseline="central" fill="rgb(255,255,255)">123</text>
<rect x="0.048387096774193548387096774193548387096774193548387" y="0.047940580008144143272413528954042035068197120521225" width="0.0080645161290322580645161290322580645161290322580645" height="0.0080645161290322580645161290322580645161290322580645" fill="rgb(220,57,18)" />
<text x="0.052419354838709677419354838709677419354838709677419" y="0.051972838072660272304671593470171067326261636650257" font-size="0.0035842293906810035842293906810035842293906810035842" text-anchor="middle" dominant-baseline="central" fill="rgb(255,255,255)">124</text>
<rect x="0.032258064516129032258064516129032258064516129032258" y="0.031876063879111885207897399921783970552068088263161" width="0.008" height="0.008" fill="rgb(51,102,204)" />
<text x="0.036258064516129032258064516129032258064516129032258" y="0.035876063879111885207897399921783970552068088263161" font-size="0.0035555555555555555555555555555555555555555555555556" text-anchor="middle" dominant-baseline="central" fill="rgb(255,255,255)">125</text>
<rect x="0.015873015873015873015873015873015873015873015873016" y="0.015810523684539432570928633920759905011873515810524" width="0.0079365079365079365079365079365079365079365079365079" height="0.0079365079365079365079365079365079365079365079365079" fill="rgb(220,57,18)" />
<text x="0.019841269841269841269841269841269841269841269841270" y="0.019778777652793400824896887889013873265841769778778" font-size="0.0035273368606701940035273368606701940035273368606702" text-anchor="middle" dominant-baseline="central" fill="rgb(255,255,255)">126</text>
<rect x="0" y="0" width="0.0078740157480314960629921259842519685039370078740157" height="0.0078740157480314960629921259842519685039370078740157" fill="rgb(51,102,204)" />
<text x="0.0039370078740157480314960629921259842519685039370079" y="0.0039370078740157480314960629921259842519685039370079" font-size="0.0034995625546806649168853893263342082239720034995626" text-anchor="middle" dominant-baseline="central" fill="rgb(255,255,255)">127</text>
</svg>
