<svg xmlns="http://www.w3.org/2000/svg" viewBox="0 0 1.984375 1.65625">
<rect width="100%" height="100%" fill="black" />
<rect x="0" y="0.65625" width="1" height="1" fill="rgb(51,102,204)" />
<text x="0.5" y="1.15625" font-size="0.8" text-anchor="middle" dominant-baseline="central" fill="rgb(255,255,255)">1</text>
<rect x="1" y="1.15625" width="0.5" height="0.5" fill="rgb(220,57,18)" />
<text x="1.25" y="1.40625" font-size="0.4" text-anchor="middle" dominant-baseline="central" fill="rgb(255,255,255)">2</text>
<rect x="0" y="0.32291666666666666666666666666666666666666666666667" width="0.33333333333333333333333333333333333333333333333333" height="0.33333333333333333333333333333333333333333333333333" fill="rgb(51,102,204)" />
<text x="0.16666666666666666666666666666666666666666666666667" y="0.48958333333333333333333333333333333333333333333333" font-size="0.26666666666666666666666666666666666666666666666667" text-anchor="middle" dominant-baseline="central" fill="rgb(255,255,255)">3</text>
<rect x="1.5" y="1.40625" width="0.25" height="0.25" fill="rgb(220,57,18)" />
<text x="1.625" y="1.53125" font-size="0.2" text-anchor="middle" dominant-baseline="central" fill="rgb(255,255,255)">4</text>
<rect x="1" y="0.95625" width="0.2" height="0.2" fill="rgb(51,102,204)" />
<text x="1.1" y="1.05625" font-size="0.16" text-anchor="middle" dominant-baseline="central" fill="rgb(255,255,255)">5</text>
<rect x="0" y="0.15625" width="0.16666666666666666666666666666666666666666666666667" height="0.16666666666666666666666666666666666666666666666667" fill="rgb(220,57,18)" />
<text x="0.083333333333333333333333333333333333333333333333333" y="0.23958333333333333333333333333333333333333333333333" font-size="0.13333333333333333333333333333333333333333333333333" text-anchor="middle" dominant-baseline="central" fill="rgb(255,255,255)">6</text>
<rect x="0.33333333333333333333333333333333333333333333333333" y="0.51339285714285714285714285714285714285714285714286" width="0.14285714285714285714285714285714285714285714285714" height="0.14285714285714285714285714285714285714285714285714" fill="rgb(51,102,204)" />
<text x="0.40476190476190476190476190476190476190476190476190" y="0.58482142857142857142857142857142857142857142857143" font-size="0.11428571428571428571428571428571428571428571428571" text-anchor="middle" dominant-baseline="central" fill="rgb(255,255,255)">7</text>
<rect x="1.75" y="1.53125" width="0.125" height="0.125" fill="rgb(220,57,18)" />
<text x="1.8125" y="1.59375" font-size="0.1" text-anchor="middle" dominant-baseline="central" fill="rgb(255,255,255)">8</text>
<rect x="1.5" y="1.2951388888888888888888888888888888888888888888889" width="0.11111111111111111111111111111111111111111111111111" height="0.11111111111111111111111111111111111111111111111111" fill="rgb(51,102,204)" />
<text x="1.5555555555555555555555555555555555555555555555556" y="1.3506944444444444444444444444444444444444444444444" font-size="0.088888888888888888888888888888888888888888888888889" text-anchor="middle" dominant-baseline="central" fill="rgb(255,255,255)">9</text>
<rect x="1" y="0.85625" width="0.1" height="0.1" fill="rgb(220,57,18)" />
<text x="1.05" y="0.90625" font-size="0.066666666666666666666666666666666666666666666666667" text-anchor="middle" dominant-baseline="central" fill="rgb(255,255,255)">10</text>
<rect x="1.2" y="1.0653409090909090909090909090909090909090909090909" width="0.090909090909090909090909090909090909090909090909091" height="0.090909090909090909090909090909090909090909090909091" fill="rgb(51,102,204)" />
<text x="1.2454545454545454545454545454545454545454545454545" y="1.1107954545454545454545454545454545454545454545455" font-size="0.060606060606060606060606060606060606060606060606061" text-anchor="middle" dominant-baseline="central" fill="rgb(255,255,255)">11</text>
<rect x="0" y="0.072916666666666666666666666666666666666666666666667" width="0.083333333333333333333333333333333333333333333333333" height="0.083333333333333333333333333333333333333333333333333" fill="rgb(220,57,18)" />
<text x="0.041666666666666666666666666666666666666666666666667" y="0.11458333333333333333333333333333333333333333333333" font-size="0.055555555555555555555555555555555555555555555555556" text-anchor="middle" dominant-baseline="central" fill="rgb(255,255,255)">12</text>
<rect x="0.16666666666666666666666666666666666666666666666667" y="0.24599358974358974358974358974358974358974358974359" width="0.076923076923076923076923076923076923076923076923077" height="0.076923076923076923076923076923076923076923076923077" fill="rgb(51,102,204)" />
<text x="0.20512820512820512820512820512820512820512820512821" y="0.28445512820512820512820512820512820512820512820513" font-size="0.051282051282051282051282051282051282051282051282051" text-anchor="middle" dominant-baseline="central" fill="rgb(255,255,255)">13</text>
<rect x="0.47619047619047619047619047619047619047619047619048" y="0.58482142857142857142857142857142857142857142857143" width="0.071428571428571428571428571428571428571428571428571" height="0.071428571428571428571428571428571428571428571428571" fill="rgb(220,57,18)" />
<text x="0.51190476190476190476190476190476190476190476190476" y="0.62053571428571428571428571428571428571428571428571" font-size="0.047619047619047619047619047619047619047619047619048" text-anchor="middle" dominant-baseline="central" fill="rgb(255,255,255)">14</text>
<rect x="0.33333333333333333333333333333333333333333333333333" y="0.44672619047619047619047619047619047619047619047619" width="0.066666666666666666666666666666666666666666666666667" height="0.066666666666666666666666666666666666666666666666667" fill="rgb(51,102,204)" />
<text x="0.36666666666666666666666666666666666666666666666667" y="0.48005952380952380952380952380952380952380952380952" font-size="0.044444444444444444444444444444444444444444444444444" text-anchor="middle" dominant-baseline="central" fill="rgb(255,255,255)">15</text>
<rect x="1.875" y="1.59375" width="0.0625" height="0.0625" fill="rgb(220,57,18)" />
<text x="1.90625" y="1.625" font-size="0.041666666666666666666666666666666666666666666666667" text-anchor="middle" dominant-baseline="central" fill="rgb(255,255,255)">16</text>
<rect x="1.75" y="1.4724264705882352941176470588235294117647058823529" width="0.058823529411764705882352941176470588235294117647059" height="0.058823529411764705882352941176470588235294117647059" fill="rgb(51,102,204)" />
<text x="1.7794117647058823529411764705882352941176470588235" y="1.5018382352941176470588235294117647058823529411765" font-size="0.039215686274509803921568627450980392156862745098039" text-anchor="middle" dominant-baseline="central" fill="rgb(255,255,255)">17</text>
<rect x="1.5" y="1.2395833333333333333333333333333333333333333333333" width="0.055555555555555555555555555555555555555555555555556" height="0.055555555555555555555555555555555555555555555555556" fill="rgb(220,57,18)" />
<text x="1.5277777777777777777777777777777777777777777777778" y="1.2673611111111111111111111111111111111111111111111" font-size="0.037037037037037037037037037037037037037037037037037" text-anchor="middle" dominant-baseline="central" fill="rgb(255,255,255)">18</text>
<rect x="1.6111111111111111111111111111111111111111111111111" y="1.3536184210526315789473684210526315789473684210526" width="0.052631578947368421052631578947368421052631578947368" height="0.052631578947368421052631578947368421052631578947368" fill="rgb(51,102,204)" />
<text x="1.6374269005847953216374269005847953216374269005848" y="1.3799342105263157894736842105263157894736842105263" font-size="0.035087719298245614035087719298245614035087719298246" text-anchor="middle" dominant-baseline="central" fill="rgb(255,255,255)">19</text>
<rect x="1" y="0.80625" width="0.05" height="0.05" fill="rgb(220,57,18)" />
<text x="1.025" y="0.83125" font-size="0.033333333333333333333333333333333333333333333333333" text-anchor="middle" dominant-baseline="central" fill="rgb(255,255,255)">20</text>
<rect x="1.1" y="0.90863095238095238095238095238095238095238095238095" width="0.047619047619047619047619047619047619047619047619048" height="0.047619047619047619047619047619047619047619047619048" fill="rgb(51,102,204)" />
<text x="1.1238095238095238095238095238095238095238095238095" y="0.93244047619047619047619047619047619047619047619048" font-size="0.031746031746031746031746031746031746031746031746032" text-anchor="middle" dominant-baseline="central" fill="rgb(255,255,255)">21</text>
<rect x="1.2909090909090909090909090909090909090909090909091" y="1.1107954545454545454545454545454545454545454545455" width="0.045454545454545454545454545454545454545454545454545" height="0.045454545454545454545454545454545454545454545454545" fill="rgb(220,57,18)" />
<text x="1.3136363636363636363636363636363636363636363636364" y="1.1335227272727272727272727272727272727272727272727" font-size="0.030303030303030303030303030303030303030303030303030" text-anchor="middle" dominant-baseline="central" fill="rgb(255,255,255)">22</text>
<rect x="1.2" y="1.0218626482213438735177865612648221343873517786561" width="0.043478260869565217391304347826086956521739130434783" height="0.043478260869565217391304347826086956521739130434783" fill="rgb(51,102,204)" />
<text x="1.2217391304347826086956521739130434782608695652174" y="1.0436017786561264822134387351778656126482213438735" font-size="0.028985507246376811594202898550724637681159420289855" text-anchor="middle" dominant-baseline="central" fill="rgb(255,255,255)">23</text>
<rect x="0" y="0.03125" width="0.041666666666666666666666666666666666666666666666667" height="0.041666666666666666666666666666666666666666666666667" fill="rgb(220,57,18)" />
<text x="0.020833333333333333333333333333333333333333333333333" y="0.052083333333333333333333333333333333333333333333333" font-size="0.027777777777777777777777777777777777777777777777778" text-anchor="middle" dominant-baseline="central" fill="rgb(255,255,255)">24</text>
<rect x="0.083333333333333333333333333333333333333333333333333" y="0.11625" width="0.04" height="0.04" fill="rgb(51,102,204)" />
<text x="0.10333333333333333333333333333333333333333333333333" y="0.13625" font-size="0.026666666666666666666666666666666666666666666666667" text-anchor="middle" dominant-baseline="central" fill="rgb(255,255,255)">25</text>
<rect x="0.24358974358974358974358974358974358974358974358974" y="0.28445512820512820512820512820512820512820512820513" width="0.038461538461538461538461538461538461538461538461538" height="0.038461538461538461538461538461538461538461538461538" fill="rgb(220,57,18)" />
<text x="0.26282051282051282051282051282051282051282051282051" y="0.30368589743589743589743589743589743589743589743590" font-size="0.025641025641025641025641025641025641025641025641026" text-anchor="middle" dominant-baseline="central" fill="rgb(255,255,255)">26</text>
<rect x="0.16666666666666666666666666666666666666666666666667" y="0.20895655270655270655270655270655270655270655270655" width="0.037037037037037037037037037037037037037037037037037" height="0.037037037037037037037037037037037037037037037037037" fill="rgb(51,102,204)" />
<text x="0.18518518518518518518518518518518518518518518518519" y="0.22747507122507122507122507122507122507122507122507" font-size="0.024691358024691358024691358024691358024691358024691" text-anchor="middle" dominant-baseline="central" fill="rgb(255,255,255)">27</text>
<rect x="0.54761904761904761904761904761904761904761904761905" y="0.62053571428571428571428571428571428571428571428571" width="0.035714285714285714285714285714285714285714285714286" height="0.035714285714285714285714285714285714285714285714286" fill="rgb(220,57,18)" />
<text x="0.56547619047619047619047619047619047619047619047619" y="0.63839285714285714285714285714285714285714285714286" font-size="0.023809523809523809523809523809523809523809523809524" text-anchor="middle" dominant-baseline="central" fill="rgb(255,255,255)">28</text>
<rect x="0.47619047619047619047619047619047619047619047619048" y="0.55033866995073891625615763546798029556650246305419" width="0.034482758620689655172413793103448275862068965517241" height="0.034482758620689655172413793103448275862068965517241" fill="rgb(51,102,204)" />
<text x="0.49343185550082101806239737274220032840722495894910" y="0.56758004926108374384236453201970443349753694581281" font-size="0.022988505747126436781609195402298850574712643678161" text-anchor="middle" dominant-baseline="central" fill="rgb(255,255,255)">29</text>
<rect x="0.33333333333333333333333333333333333333333333333333" y="0.41339285714285714285714285714285714285714285714286" width="0.033333333333333333333333333333333333333333333333333" height="0.033333333333333333333333333333333333333333333333333" fill="rgb(220,57,18)" />
<text x="0.35" y="0.43005952380952380952380952380952380952380952380952" font-size="0.022222222222222222222222222222222222222222222222222" text-anchor="middle" dominant-baseline="central" fill="rgb(255,255,255)">30</text>
<rect x="0.4" y="0.48113479262672811059907834101382488479262672811060" width="0.032258064516129032258064516129032258064516129032258" height="0.032258064516129032258064516129032258064516129032258" fill="rgb(51,102,204)" />
<text x="0.41612903225806451612903225806451612903225806451613" y="0.49726382488479262672811059907834101382488479262673" font-size="0.021505376344086021505376344086021505376344086021505" text-anchor="middle" dominant-baseline="central" fill="rgb(255,255,255)">31</text>
<rect x="1.9375" y="1.625" width="0.03125" height="0.03125" fill="rgb(220,57,18)" />
<text x="1.953125" y="1.640625" font-size="0.020833333333333333333333333333333333333333333333333" text-anchor="middle" dominant-baseline="central" fill="rgb(255,255,255)">32</text>
<rect x="1.875" y="1.5634469696969696969696969696969696969696969696970" width="0.030303030303030303030303030303030303030303030303030" height="0.030303030303030303030303030303030303030303030303030" fill="rgb(51,102,204)" />
<text x="1.8901515151515151515151515151515151515151515151515" y="1.5785984848484848484848484848484848484848484848485" font-size="0.020202020202020202020202020202020202020202020202020" text-anchor="middle" dominant-baseline="central" fill="rgb(255,255,255)">33</text>
<rect x="1.75" y="1.4430147058823529411764705882352941176470588235294" width="0.029411764705882352941176470588235294117647058823529" height="0.029411764705882352941176470588235294117647058823529" fill="rgb(220,57,18)" />
<text x="1.7647058823529411764705882352941176470588235294118" y="1.4577205882352941176470588235294117647058823529412" font-size="0.019607843137254901960784313725490196078431372549020" text-anchor="middle" dominant-baseline="central" fill="rgb(255,255,255)">34</text>
<rect x="1.8088235294117647058823529411764705882352941176471" y="1.5026785714285714285714285714285714285714285714286" width="0.028571428571428571428571428571428571428571428571429" height="0.028571428571428571428571428571428571428571428571429" fill="rgb(51,102,204)" />
<text x="1.8231092436974789915966386554621848739495798319328" y="1.5169642857142857142857142857142857142857142857143" font-size="0.019047619047619047619047619047619047619047619047619" text-anchor="middle" dominant-baseline="central" fill="rgb(255,255,255)">35</text>
<rect x="1.5" y="1.2118055555555555555555555555555555555555555555556" width="0.027777777777777777777777777777777777777777777777778" height="0.027777777777777777777777777777777777777777777777778" fill="rgb(220,57,18)" />
<text x="1.5138888888888888888888888888888888888888888888889" y="1.2256944444444444444444444444444444444444444444444" font-size="0.018518518518518518518518518518518518518518518518519" text-anchor="middle" dominant-baseline="central" fill="rgb(255,255,255)">36</text>
<rect x="1.5555555555555555555555555555555555555555555555556" y="1.2681118618618618618618618618618618618618618618619" width="0.027027027027027027027027027027027027027027027027027" height="0.027027027027027027027027027027027027027027027027027" fill="rgb(51,102,204)" />
<text x="1.5690690690690690690690690690690690690690690690691" y="1.2816253753753753753753753753753753753753753753754" font-size="0.018018018018018018018018018018018018018018018018018" text-anchor="middle" dominant-baseline="central" fill="rgb(255,255,255)">37</text>
<rect x="1.6637426900584795321637426900584795321637426900585" y="1.3799342105263157894736842105263157894736842105263" width="0.026315789473684210526315789473684210526315789473684" height="0.026315789473684210526315789473684210526315789473684" fill="rgb(220,57,18)" />
<text x="1.6769005847953216374269005847953216374269005847953" y="1.3930921052631578947368421052631578947368421052632" font-size="0.017543859649122807017543859649122807017543859649123" text-anchor="middle" dominant-baseline="central" fill="rgb(255,255,255)">38</text>
<rect x="1.6111111111111111111111111111111111111111111111111" y="1.3279773954116059379217273954116059379217273954116" width="0.025641025641025641025641025641025641025641025641026" height="0.025641025641025641025641025641025641025641025641026" fill="rgb(51,102,204)" />
<text x="1.6239316239316239316239316239316239316239316239316" y="1.3407979082321187584345479082321187584345479082321" font-size="0.017094017094017094017094017094017094017094017094017" text-anchor="middle" dominant-baseline="central" fill="rgb(255,255,255)">39</text>
<rect x="1" y="0.78125" width="0.025" height="0.025" fill="rgb(220,57,18)" />
<text x="1.0125" y="0.79375" font-size="0.016666666666666666666666666666666666666666666666667" text-anchor="middle" dominant-baseline="central" fill="rgb(255,255,255)">40</text>
<rect x="1.05" y="0.83185975609756097560975609756097560975609756097561" width="0.024390243902439024390243902439024390243902439024390" height="0.024390243902439024390243902439024390243902439024390" fill="rgb(51,102,204)" />
<text x="1.0621951219512195121951219512195121951219512195122" y="0.84405487804878048780487804878048780487804878048780" font-size="0.016260162601626016260162601626016260162601626016260" text-anchor="middle" dominant-baseline="central" fill="rgb(255,255,255)">41</text>
<rect x="1.1476190476190476190476190476190476190476190476190" y="0.93244047619047619047619047619047619047619047619048" width="0.023809523809523809523809523809523809523809523809524" height="0.023809523809523809523809523809523809523809523809524" fill="rgb(220,57,18)" />
<text x="1.1595238095238095238095238095238095238095238095238" y="0.94434523809523809523809523809523809523809523809524" font-size="0.015873015873015873015873015873015873015873015873016" text-anchor="middle" dominant-baseline="central" fill="rgb(255,255,255)">42</text>
<rect x="1.1" y="0.88537513842746400885935769656699889258028792912514" width="0.023255813953488372093023255813953488372093023255814" height="0.023255813953488372093023255813953488372093023255814" fill="rgb(51,102,204)" />
<text x="1.1116279069767441860465116279069767441860465116279" y="0.89700304540420819490586932447397563676633444075305" font-size="0.015503875968992248062015503875968992248062015503876" text-anchor="middle" dominant-baseline="central" fill="rgb(255,255,255)">43</text>
<rect x="1.3363636363636363636363636363636363636363636363636" y="1.1335227272727272727272727272727272727272727272727" width="0.022727272727272727272727272727272727272727272727273" height="0.022727272727272727272727272727272727272727272727273" fill="rgb(220,57,18)" />
<text x="1.3477272727272727272727272727272727272727272727273" y="1.1448863636363636363636363636363636363636363636364" font-size="0.015151515151515151515151515151515151515151515151515" text-anchor="middle" dominant-baseline="central" fill="rgb(255,255,255)">44</text>
<rect x="1.2909090909090909090909090909090909090909090909091" y="1.0885732323232323232323232323232323232323232323232" width="0.022222222222222222222222222222222222222222222222222" height="0.022222222222222222222222222222222222222222222222222" fill="rgb(51,102,204)" />
<text x="1.3020202020202020202020202020202020202020202020202" y="1.0996843434343434343434343434343434343434343434343" font-size="0.014814814814814814814814814814814814814814814814815" text-anchor="middle" dominant-baseline="central" fill="rgb(255,255,255)">45</text>
<rect x="1.2" y="1.0001235177865612648221343873517786561264822134387" width="0.021739130434782608695652173913043478260869565217391" height="0.021739130434782608695652173913043478260869565217391" fill="rgb(220,57,18)" />
<text x="1.2108695652173913043478260869565217391304347826087" y="1.0109930830039525691699604743083003952569169960474" font-size="0.014492753623188405797101449275362318840579710144928" text-anchor="middle" dominant-baseline="central" fill="rgb(255,255,255)">46</text>
<rect x="1.2434782608695652173913043478260869565217391304348" y="1.0440643133462282398452611218568665377176015473888" width="0.021276595744680851063829787234042553191489361702128" height="0.021276595744680851063829787234042553191489361702128" fill="rgb(51,102,204)" />
<text x="1.2541165587419056429232192414431082331174838112858" y="1.0547026112185686653771760154738878143133462282398" font-size="0.014184397163120567375886524822695035460992907801418" text-anchor="middle" dominant-baseline="central" fill="rgb(255,255,255)">47</text>
<rect x="0" y="0.010416666666666666666666666666666666666666666666667" width="0.020833333333333333333333333333333333333333333333333" height="0.020833333333333333333333333333333333333333333333333" fill="rgb(220,57,18)" />
<text x="0.010416666666666666666666666666666666666666666666667" y="0.020833333333333333333333333333333333333333333333333" font-size="0.013888888888888888888888888888888888888888888888889" text-anchor="middle" dominant-baseline="central" fill="rgb(255,255,255)">48</text>
<rect x="0.041666666666666666666666666666666666666666666666667" y="0.052508503401360544217687074829931972789115646258503" width="0.020408163265306122448979591836734693877551020408163" height="0.020408163265306122448979591836734693877551020408163" fill="rgb(51,102,204)" />
<text x="0.051870748299319727891156462585034013605442176870748" y="0.062712585034013605442176870748299319727891156462585" font-size="0.013605442176870748299319727891156462585034013605442" text-anchor="middle" dominant-baseline="central" fill="rgb(255,255,255)">49</text>
<rect x="0.12333333333333333333333333333333333333333333333333" y="0.13625" width="0.02" height="0.02" fill="rgb(220,57,18)" />
<text x="0.13333333333333333333333333333333333333333333333333" y="0.14625" font-size="0.013333333333333333333333333333333333333333333333333" text-anchor="middle" dominant-baseline="central" fill="rgb(255,255,255)">50</text>
<rect x="0.083333333333333333333333333333333333333333333333333" y="0.096642156862745098039215686274509803921568627450980" width="0.019607843137254901960784313725490196078431372549020" height="0.019607843137254901960784313725490196078431372549020" fill="rgb(51,102,204)" />
<text x="0.093137254901960784313725490196078431372549019607843" y="0.10644607843137254901960784313725490196078431372549" font-size="0.013071895424836601307189542483660130718954248366013" text-anchor="middle" dominant-baseline="central" fill="rgb(255,255,255)">51</text>
<rect x="0.28205128205128205128205128205128205128205128205128" y="0.30368589743589743589743589743589743589743589743590" width="0.019230769230769230769230769230769230769230769230769" height="0.019230769230769230769230769230769230769230769230769" fill="rgb(220,57,18)" />
<text x="0.29166666666666666666666666666666666666666666666667" y="0.31330128205128205128205128205128205128205128205128" font-size="0.012820512820512820512820512820512820512820512820513" text-anchor="middle" dominant-baseline="central" fill="rgb(255,255,255)">52</text>
<rect x="0.24358974358974358974358974358974358974358974358974" y="0.26558720367682631833575229801644895984518626028060" width="0.018867924528301886792452830188679245283018867924528" height="0.018867924528301886792452830188679245283018867924528" fill="rgb(51,102,204)" />
<text x="0.25302370585389453313981615868408321238509917755201" y="0.27502116594097726173197871311078858248669569424286" font-size="0.012578616352201257861635220125786163522012578616352" text-anchor="middle" dominant-baseline="central" fill="rgb(255,255,255)">53</text>
<rect x="0.16666666666666666666666666666666666666666666666667" y="0.19043803418803418803418803418803418803418803418803" width="0.018518518518518518518518518518518518518518518518519" height="0.018518518518518518518518518518518518518518518518519" fill="rgb(220,57,18)" />
<text x="0.17592592592592592592592592592592592592592592592593" y="0.19969729344729344729344729344729344729344729344729" font-size="0.012345679012345679012345679012345679012345679012346" text-anchor="middle" dominant-baseline="central" fill="rgb(255,255,255)">54</text>
<rect x="0.20370370370370370370370370370370370370370370370370" y="0.22781177156177156177156177156177156177156177156177" width="0.018181818181818181818181818181818181818181818181818" height="0.018181818181818181818181818181818181818181818181818" fill="rgb(51,102,204)" />
<text x="0.21279461279461279461279461279461279461279461279461" y="0.23690268065268065268065268065268065268065268065268" font-size="0.012121212121212121212121212121212121212121212121212" text-anchor="middle" dominant-baseline="central" fill="rgb(255,255,255)">55</text>
<rect x="0.58333333333333333333333333333333333333333333333333" y="0.63839285714285714285714285714285714285714285714286" width="0.017857142857142857142857142857142857142857142857143" height="0.017857142857142857142857142857142857142857142857143" fill="rgb(220,57,18)" />
<text x="0.59226190476190476190476190476190476190476190476190" y="0.64732142857142857142857142857142857142857142857143" font-size="0.011904761904761904761904761904761904761904761904762" text-anchor="middle" dominant-baseline="central" fill="rgb(255,255,255)">56</text>
<rect x="0.54761904761904761904761904761904761904761904761905" y="0.60299185463659147869674185463659147869674185463659" width="0.017543859649122807017543859649122807017543859649123" height="0.017543859649122807017543859649122807017543859649123" fill="rgb(51,102,204)" />
<text x="0.55639097744360902255639097744360902255639097744361" y="0.61176378446115288220551378446115288220551378446115" font-size="0.011695906432748538011695906432748538011695906432749" text-anchor="middle" dominant-baseline="central" fill="rgb(255,255,255)">57</text>
<rect x="0.47619047619047619047619047619047619047619047619048" y="0.53309729064039408866995073891625615763546798029557" width="0.017241379310344827586206896551724137931034482758621" height="0.017241379310344827586206896551724137931034482758621" fill="rgb(220,57,18)" />
<text x="0.48481116584564860426929392446633825944170771756979" y="0.54171798029556650246305418719211822660098522167488" font-size="0.011494252873563218390804597701149425287356321839080" text-anchor="middle" dominant-baseline="central" fill="rgb(255,255,255)">58</text>
<rect x="0.51067323481116584564860426929392446633825944170772" y="0.56787227602905569007263922518159806295399515738499" width="0.016949152542372881355932203389830508474576271186441" height="0.016949152542372881355932203389830508474576271186441" fill="rgb(51,102,204)" />
<text x="0.51914781108235228632657037098883972057554757730094" y="0.57634685230024213075060532687651331719128329297821" font-size="0.011299435028248587570621468926553672316384180790960" text-anchor="middle" dominant-baseline="central" fill="rgb(255,255,255)">59</text>
<rect x="0.33333333333333333333333333333333333333333333333333" y="0.39672619047619047619047619047619047619047619047619" width="0.016666666666666666666666666666666666666666666666667" height="0.016666666666666666666666666666666666666666666666667" fill="rgb(220,57,18)" />
<text x="0.34166666666666666666666666666666666666666666666667" y="0.40505952380952380952380952380952380952380952380952" font-size="0.011111111111111111111111111111111111111111111111111" text-anchor="middle" dominant-baseline="central" fill="rgb(255,255,255)">60</text>
<rect x="0.36666666666666666666666666666666666666666666666667" y="0.43033274785323965651834504293520686963309914129586" width="0.016393442622950819672131147540983606557377049180328" height="0.016393442622950819672131147540983606557377049180328" fill="rgb(51,102,204)" />
<text x="0.37486338797814207650273224043715846994535519125683" y="0.43852946916471506635441061670569867291178766588603" font-size="0.010928961748633879781420765027322404371584699453552" text-anchor="middle" dominant-baseline="central" fill="rgb(255,255,255)">61</text>
<rect x="0.43225806451612903225806451612903225806451612903226" y="0.49726382488479262672811059907834101382488479262673" width="0.016129032258064516129032258064516129032258064516129" height="0.016129032258064516129032258064516129032258064516129" fill="rgb(220,57,18)" />
<text x="0.44032258064516129032258064516129032258064516129032" y="0.50532834101382488479262672811059907834101382488479" font-size="0.010752688172043010752688172043010752688172043010753" text-anchor="middle" dominant-baseline="central" fill="rgb(255,255,255)">62</text>
<rect x="0.4" y="0.46526177675371223758320532514080901177675371223758" width="0.015873015873015873015873015873015873015873015873016" height="0.015873015873015873015873015873015873015873015873016" fill="rgb(51,102,204)" />
<text x="0.40793650793650793650793650793650793650793650793651" y="0.47319828469022017409114183307731694828469022017409" font-size="0.010582010582010582010582010582010582010582010582011" text-anchor="middle" dominant-baseline="central" fill="rgb(255,255,255)">63</text>
<rect x="1.96875" y="1.640625" width="0.015625" height="0.015625" fill="rgb(220,57,18)" />
<text x="1.9765625" y="1.6484375" font-size="0.010416666666666666666666666666666666666666666666667" text-anchor="middle" dominant-baseline="central" fill="rgb(255,255,255)">64</text>
<rect x="1.9375" y="1.6096153846153846153846153846153846153846153846154" width="0.015384615384615384615384615384615384615384615384615" height="0.015384615384615384615384615384615384615384615384615" fill="rgb(51,102,204)" />
<text x="1.9451923076923076923076923076923076923076923076923" y="1.6173076923076923076923076923076923076923076923077" font-size="0.010256410256410256410256410256410256410256410256410" text-anchor="middle" dominant-baseline="central" fill="rgb(255,255,255)">65</text>
<rect x="1.875" y="1.5482954545454545454545454545454545454545454545455" width="0.015151515151515151515151515151515151515151515151515" height="0.015151515151515151515151515151515151515151515151515" fill="rgb(220,57,18)" />
<text x="1.8825757575757575757575757575757575757575757575758" y="1.5558712121212121212121212121212121212121212121212" font-size="0.010101010101010101010101010101010101010101010101010" text-anchor="middle" dominant-baseline="central" fill="rgb(255,255,255)">66</text>
<rect x="1.9053030303030303030303030303030303030303030303030" y="1.5788246268656716417910447761194029850746268656716" width="0.014925373134328358208955223880597014925373134328358" height="0.014925373134328358208955223880597014925373134328358" fill="rgb(51,102,204)" />
<text x="1.9127657168701944821347806422433288104929895974672" y="1.5862873134328358208955223880597014925373134328358" font-size="0.0099502487562189054726368159203980099502487562189055" text-anchor="middle" dominant-baseline="central" fill="rgb(255,255,255)">67</text>
<rect x="1.75" y="1.4283088235294117647058823529411764705882352941176" width="0.014705882352941176470588235294117647058823529411765" height="0.014705882352941176470588235294117647058823529411765" fill="rgb(220,57,18)" />
<text x="1.7573529411764705882352941176470588235294117647059" y="1.4356617647058823529411764705882352941176470588235" font-size="0.0098039215686274509803921568627450980392156862745098" text-anchor="middle" dominant-baseline="central" fill="rgb(255,255,255)">68</text>
<rect x="1.7794117647058823529411764705882352941176470588235" y="1.4579337169650468883205456095481670929241261722080" width="0.014492753623188405797101449275362318840579710144928" height="0.014492753623188405797101449275362318840579710144928" fill="rgb(51,102,204)" />
<text x="1.7866581415174765558397271952259164535379369138960" y="1.4651800937766410912190963341858482523444160272805" font-size="0.0096618357487922705314009661835748792270531400966184" text-anchor="middle" dominant-baseline="central" fill="rgb(255,255,255)">69</text>
<rect x="1.8373949579831932773109243697478991596638655462185" y="1.5169642857142857142857142857142857142857142857143" width="0.014285714285714285714285714285714285714285714285714" height="0.014285714285714285714285714285714285714285714285714" fill="rgb(220,57,18)" />
<text x="1.8445378151260504201680672268907563025210084033613" y="1.5241071428571428571428571428571428571428571428571" font-size="0.0095238095238095238095238095238095238095238095238095" text-anchor="middle" dominant-baseline="central" fill="rgb(255,255,255)">70</text>
<rect x="1.8088235294117647058823529411764705882352941176471" y="1.4885940643863179074446680080482897384305835010060" width="0.014084507042253521126760563380281690140845070422535" height="0.014084507042253521126760563380281690140845070422535" fill="rgb(51,102,204)" />
<text x="1.8158657829328914664457332228666114333057166528583" y="1.4956363179074446680080482897384305835010060362173" font-size="0.0093896713615023474178403755868544600938967136150235" text-anchor="middle" dominant-baseline="central" fill="rgb(255,255,255)">71</text>
<rect x="1.5" y="1.1979166666666666666666666666666666666666666666667" width="0.013888888888888888888888888888888888888888888888889" height="0.013888888888888888888888888888888888888888888888889" fill="rgb(220,57,18)" />
<text x="1.5069444444444444444444444444444444444444444444444" y="1.2048611111111111111111111111111111111111111111111" font-size="0.0092592592592592592592592592592592592592592592592593" text-anchor="middle" dominant-baseline="central" fill="rgb(255,255,255)">72</text>
<rect x="1.5277777777777777777777777777777777777777777777778" y="1.2258847031963470319634703196347031963470319634703" width="0.013698630136986301369863013698630136986301369863014" height="0.013698630136986301369863013698630136986301369863014" fill="rgb(51,102,204)" />
<text x="1.5346270928462709284627092846270928462709284627093" y="1.2327340182648401826484018264840182648401826484018" font-size="0.0091324200913242009132420091324200913242009132420091" text-anchor="middle" dominant-baseline="central" fill="rgb(255,255,255)">73</text>
<rect x="1.5825825825825825825825825825825825825825825825826" y="1.2816253753753753753753753753753753753753753753754" width="0.013513513513513513513513513513513513513513513513514" height="0.013513513513513513513513513513513513513513513513514" fill="rgb(220,57,18)" />
<text x="1.5893393393393393393393393393393393393393393393393" y="1.2883821321321321321321321321321321321321321321321" font-size="0.0090090090090090090090090090090090090090090090090090" text-anchor="middle" dominant-baseline="central" fill="rgb(255,255,255)">74</text>
<rect x="1.5555555555555555555555555555555555555555555555556" y="1.2547785285285285285285285285285285285285285285285" width="0.013333333333333333333333333333333333333333333333333" height="0.013333333333333333333333333333333333333333333333333" fill="rgb(51,102,204)" />
<text x="1.5622222222222222222222222222222222222222222222222" y="1.2614451951951951951951951951951951951951951951952" font-size="0.0088888888888888888888888888888888888888888888888889" text-anchor="middle" dominant-baseline="central" fill="rgb(255,255,255)">75</text>
<rect x="1.6900584795321637426900584795321637426900584795322" y="1.3930921052631578947368421052631578947368421052632" width="0.013157894736842105263157894736842105263157894736842" height="0.013157894736842105263157894736842105263157894736842" fill="rgb(220,57,18)" />
<text x="1.6966374269005847953216374269005847953216374269006" y="1.3996710526315789473684210526315789473684210526316" font-size="0.0087719298245614035087719298245614035087719298245614" text-anchor="middle" dominant-baseline="central" fill="rgb(255,255,255)">76</text>
<rect x="1.6637426900584795321637426900584795321637426900585" y="1.3669471975393028024606971975393028024606971975393" width="0.012987012987012987012987012987012987012987012987013" height="0.012987012987012987012987012987012987012987012987013" fill="rgb(51,102,204)" />
<text x="1.6702361965519860256702361965519860256702361965520" y="1.3734407040328092959671907040328092959671907040328" font-size="0.0086580086580086580086580086580086580086580086580087" text-anchor="middle" dominant-baseline="central" fill="rgb(255,255,255)">77</text>
<rect x="1.6111111111111111111111111111111111111111111111111" y="1.3151568825910931174089068825910931174089068825911" width="0.012820512820512820512820512820512820512820512820513" height="0.012820512820512820512820512820512820512820512820513" fill="rgb(220,57,18)" />
<text x="1.6175213675213675213675213675213675213675213675214" y="1.3215671390013495276653171390013495276653171390013" font-size="0.0085470085470085470085470085470085470085470085470085" text-anchor="middle" dominant-baseline="central" fill="rgb(255,255,255)">78</text>
<rect x="1.6367521367521367521367521367521367521367521367521" y="1.3409601932045303131245836109260493004663557628248" width="0.012658227848101265822784810126582278481012658227848" height="0.012658227848101265822784810126582278481012658227848" fill="rgb(51,102,204)" />
<text x="1.6430812506761873850481445418154278913772584658661" y="1.3472893071285809460359760159893404397068620919387" font-size="0.0084388185654008438818565400843881856540084388185654" text-anchor="middle" dominant-baseline="central" fill="rgb(255,255,255)">79</text>
<rect x="1" y="0.76875" width="0.0125" height="0.0125" fill="rgb(220,57,18)" />
<text x="1.00625" y="0.775" font-size="0.0083333333333333333333333333333333333333333333333333" text-anchor="middle" dominant-baseline="central" fill="rgb(255,255,255)">80</text>
<rect x="1.025" y="0.79390432098765432098765432098765432098765432098765" width="0.012345679012345679012345679012345679012345679012346" height="0.012345679012345679012345679012345679012345679012346" fill="rgb(51,102,204)" />
<text x="1.0311728395061728395061728395061728395061728395062" y="0.80007716049382716049382716049382716049382716049383" font-size="0.0082304526748971193415637860082304526748971193415638" text-anchor="middle" dominant-baseline="central" fill="rgb(255,255,255)">81</text>
<rect x="1.0743902439024390243902439024390243902439024390244" y="0.84405487804878048780487804878048780487804878048780" width="0.012195121951219512195121951219512195121951219512195" height="0.012195121951219512195121951219512195121951219512195" fill="rgb(220,57,18)" />
<text x="1.0804878048780487804878048780487804878048780487805" y="0.85015243902439024390243902439024390243902439024390" font-size="0.0081300813008130081300813008130081300813008130081301" text-anchor="middle" dominant-baseline="central" fill="rgb(255,255,255)">82</text>
<rect x="1.05" y="0.81981156332647663826035850719952982662356744049368" width="0.012048192771084337349397590361445783132530120481928" height="0.012048192771084337349397590361445783132530120481928" fill="rgb(51,102,204)" />
<text x="1.0560240963855421686746987951807228915662650602410" y="0.82583565971201880693505730238025271818983250073465" font-size="0.0080321285140562248995983935742971887550200803212851" text-anchor="middle" dominant-baseline="central" fill="rgb(255,255,255)">83</text>
<rect x="1.1714285714285714285714285714285714285714285714286" y="0.94434523809523809523809523809523809523809523809524" width="0.011904761904761904761904761904761904761904761904762" height="0.011904761904761904761904761904761904761904761904762" fill="rgb(220,57,18)" />
<text x="1.1773809523809523809523809523809523809523809523810" y="0.95029761904761904761904761904761904761904761904762" font-size="0.0079365079365079365079365079365079365079365079365079" text-anchor="middle" dominant-baseline="central" fill="rgb(255,255,255)">84</text>
<rect x="1.1476190476190476190476190476190476190476190476190" y="0.92067577030812324929971988795518207282913165266106" width="0.011764705882352941176470588235294117647058823529412" height="0.011764705882352941176470588235294117647058823529412" fill="rgb(51,102,204)" />
<text x="1.1535014005602240896358543417366946778711484593838" y="0.92655812324929971988795518207282913165266106442577" font-size="0.0078431372549019607843137254901960784313725490196078" text-anchor="middle" dominant-baseline="central" fill="rgb(255,255,255)">85</text>
<rect x="1.1" y="0.87374723145071982281284606866002214839424141749723" width="0.011627906976744186046511627906976744186046511627907" height="0.011627906976744186046511627906976744186046511627907" fill="rgb(220,57,18)" />
<text x="1.1058139534883720930232558139534883720930232558140" y="0.87956118493909191583610188261351052048726467331118" font-size="0.0077519379844961240310077519379844961240310077519380" text-anchor="middle" dominant-baseline="central" fill="rgb(255,255,255)">86</text>
<rect x="1.1232558139534883720930232558139534883720930232558" y="0.89713669950738916256157635467980295566502463054187" width="0.011494252873563218390804597701149425287356321839080" height="0.011494252873563218390804597701149425287356321839080" fill="rgb(51,102,204)" />
<text x="1.1290029403902699812884255546645282010157711841754" y="0.90288382594417077175697865353037766830870279146141" font-size="0.0076628352490421455938697318007662835249042145593870" text-anchor="middle" dominant-baseline="central" fill="rgb(255,255,255)">87</text>
<rect x="1.3590909090909090909090909090909090909090909090909" y="1.1448863636363636363636363636363636363636363636364" width="0.011363636363636363636363636363636363636363636363636" height="0.011363636363636363636363636363636363636363636363636" fill="rgb(220,57,18)" />
<text x="1.3647727272727272727272727272727272727272727272727" y="1.1505681818181818181818181818181818181818181818182" font-size="0.0075757575757575757575757575757575757575757575757576" text-anchor="middle" dominant-baseline="central" fill="rgb(255,255,255)">88</text>
<rect x="1.3363636363636363636363636363636363636363636363636" y="1.1222867722165474974463738508682328907048008171604" width="0.011235955056179775280898876404494382022471910112360" height="0.011235955056179775280898876404494382022471910112360" fill="rgb(51,102,204)" />
<text x="1.3419816138917262512768130745658835546475995914198" y="1.1279047497446373850868232890704800817160367722165" font-size="0.0074906367041198501872659176029962546816479400749064" text-anchor="middle" dominant-baseline="central" fill="rgb(255,255,255)">89</text>
<rect x="1.2909090909090909090909090909090909090909090909091" y="1.0774621212121212121212121212121212121212121212121" width="0.011111111111111111111111111111111111111111111111111" height="0.011111111111111111111111111111111111111111111111111" fill="rgb(220,57,18)" />
<text x="1.2964646464646464646464646464646464646464646464646" y="1.0830176767676767676767676767676767676767676767677" font-size="0.0074074074074074074074074074074074074074074074074074" text-anchor="middle" dominant-baseline="central" fill="rgb(255,255,255)">90</text>
<rect x="1.3131313131313131313131313131313131313131313131313" y="1.0998064435564435564435564435564435564435564435564" width="0.010989010989010989010989010989010989010989010989011" height="0.010989010989010989010989010989010989010989010989011" fill="rgb(51,102,204)" />
<text x="1.3186258186258186258186258186258186258186258186258" y="1.1053009490509490509490509490509490509490509490509" font-size="0.0073260073260073260073260073260073260073260073260073" text-anchor="middle" dominant-baseline="central" fill="rgb(255,255,255)">91</text>
<rect x="1.2" y="0.98925395256916996047430830039525691699604743083004" width="0.010869565217391304347826086956521739130434782608696" height="0.010869565217391304347826086956521739130434782608696" fill="rgb(220,57,18)" />
<text x="1.2054347826086956521739130434782608695652173913043" y="0.99468873517786561264822134387351778656126482213439" font-size="0.0072463768115942028985507246376811594202898550724638" text-anchor="middle" dominant-baseline="central" fill="rgb(255,255,255)">92</text>
<rect x="1.2217391304347826086956521739130434782608695652174" y="1.0111099600493008627650983892218113816991797356454" width="0.010752688172043010752688172043010752688172043010753" height="0.010752688172043010752688172043010752688172043010753" fill="rgb(51,102,204)" />
<text x="1.2271154745208041140719962599345488546049555867228" y="1.0164863041353223681414424752433167580432657571508" font-size="0.0071684587813620071684587813620071684587813620071685" text-anchor="middle" dominant-baseline="central" fill="rgb(255,255,255)">93</text>
<rect x="1.2647548566142460684551341350601295097132284921369" y="1.0547026112185686653771760154738878143133462282398" width="0.010638297872340425531914893617021276595744680851064" height="0.010638297872340425531914893617021276595744680851064" fill="rgb(220,57,18)" />
<text x="1.2700740055504162812210915818686401480111008325624" y="1.0600217601547388781431334622823984526112185686654" font-size="0.0070921985815602836879432624113475177304964539007092" text-anchor="middle" dominant-baseline="central" fill="rgb(255,255,255)">94</text>
<rect x="1.2434782608695652173913043478260869565217391304348" y="1.0335379975567545556347348060673928535070752315993" width="0.010526315789473684210526315789473684210526315789474" height="0.010526315789473684210526315789473684210526315789474" fill="rgb(51,102,204)" />
<text x="1.2487414187643020594965675057208237986270022883295" y="1.0388011554514913977399979639621296956123383894940" font-size="0.0070175438596491228070175438596491228070175438596491" text-anchor="middle" dominant-baseline="central" fill="rgb(255,255,255)">95</text>
<rect x="0" y="0" width="0.010416666666666666666666666666666666666666666666667" height="0.010416666666666666666666666666666666666666666666667" fill="rgb(220,57,18)" />
<text x="0.0052083333333333333333333333333333333333333333333333" y="0.0052083333333333333333333333333333333333333333333333" font-size="0.0069444444444444444444444444444444444444444444444444" text-anchor="middle" dominant-baseline="central" fill="rgb(255,255,255)">96</text>
<rect x="0.020833333333333333333333333333333333333333333333333" y="0.020940721649484536082474226804123711340206185567010" width="0.010309278350515463917525773195876288659793814432990" height="0.010309278350515463917525773195876288659793814432990" fill="rgb(51,102,204)" />
<text x="0.025987972508591065292096219931271477663230240549828" y="0.026095360824742268041237113402061855670103092783505" font-size="0.0068728522336769759450171821305841924398625429553265" text-anchor="middle" dominant-baseline="central" fill="rgb(255,255,255)">97</text>
<rect x="0.062074829931972789115646258503401360544217687074830" y="0.062712585034013605442176870748299319727891156462585" width="0.010204081632653061224489795918367346938775510204082" height="0.010204081632653061224489795918367346938775510204082" fill="rgb(220,57,18)" />
<text x="0.067176870748299319727891156462585034013605442176871" y="0.067814625850340136054421768707482993197278911564626" font-size="0.0068027210884353741496598639455782312925170068027211" text-anchor="middle" dominant-baseline="central" fill="rgb(255,255,255)">98</text>
<rect x="0.041666666666666666666666666666666666666666666666667" y="0.042407493300350443207586064728921871779014636157493" width="0.010101010101010101010101010101010101010101010101010" height="0.010101010101010101010101010101010101010101010101010" fill="rgb(51,102,204)" />
<text x="0.046717171717171717171717171717171717171717171717172" y="0.047457998350855493712636569779426922284065141207998" font-size="0.0067340067340067340067340067340067340067340067340067" text-anchor="middle" dominant-baseline="central" fill="rgb(255,255,255)">99</text>
<rect x="0.14333333333333333333333333333333333333333333333333" y="0.14625" width="0.01" height="0.01" fill="rgb(220,57,18)" />
<text x="0.14833333333333333333333333333333333333333333333333" y="0.15125" font-size="0.0044444444444444444444444444444444444444444444444444" text-anchor="middle" dominant-baseline="central" fill="rgb(255,255,255)">100</text>
<rect x="0.12333333333333333333333333333333333333333333333333" y="0.12634900990099009900990099009900990099009900990099" width="0.0099009900990099009900990099009900990099009900990099" height="0.0099009900990099009900990099009900990099009900990099" fill="rgb(51,102,204)" />
<text x="0.12828382838283828382838283828382838283828382838284" y="0.13129950495049504950495049504950495049504950495050" font-size="0.0044004400440044004400440044004400440044004400440044" text-anchor="middle" dominant-baseline="central" fill="rgb(255,255,255)">101</text>
<rect x="0.083333333333333333333333333333333333333333333333333" y="0.086838235294117647058823529411764705882352941176471" width="0.0098039215686274509803921568627450980392156862745098" height="0.0098039215686274509803921568627450980392156862745098" fill="rgb(220,57,18)" />
<text x="0.088235294117647058823529411764705882352941176470588" y="0.091740196078431372549019607843137254901960784313725" font-size="0.0043572984749455337690631808278867102396514161220044" text-anchor="middle" dominant-baseline="central" fill="rgb(255,255,255)">102</text>
<rect x="0.10294117647058823529411764705882352941176470588235" y="0.10654126213592233009708737864077669902912621359223" width="0.0097087378640776699029126213592233009708737864077670" height="0.0097087378640776699029126213592233009708737864077670" fill="rgb(51,102,204)" />
<text x="0.10779554540262707024557395773843517989720159908624" y="0.11139563106796116504854368932038834951456310679612" font-size="0.0043149946062567421790722761596548004314994606256742" text-anchor="middle" dominant-baseline="central" fill="rgb(255,255,255)">103</text>
<rect x="0.30128205128205128205128205128205128205128205128205" y="0.31330128205128205128205128205128205128205128205128" width="0.0096153846153846153846153846153846153846153846153846" height="0.0096153846153846153846153846153846153846153846153846" fill="rgb(220,57,18)" />
<text x="0.30608974358974358974358974358974358974358974358974" y="0.31810897435897435897435897435897435897435897435897" font-size="0.0042735042735042735042735042735042735042735042735043" text-anchor="middle" dominant-baseline="central" fill="rgb(255,255,255)">104</text>
<rect x="0.28205128205128205128205128205128205128205128205128" y="0.29416208791208791208791208791208791208791208791209" width="0.0095238095238095238095238095238095238095238095238095" height="0.0095238095238095238095238095238095238095238095238095" fill="rgb(51,102,204)" />
<text x="0.28681318681318681318681318681318681318681318681319" y="0.29892399267399267399267399267399267399267399267399" font-size="0.0042328042328042328042328042328042328042328042328042" text-anchor="middle" dominant-baseline="central" fill="rgb(255,255,255)">105</text>
<rect x="0.24358974358974358974358974358974358974358974358974" y="0.25615324141267537493952588292210933720367682631834" width="0.0094339622641509433962264150943396226415094339622642" height="0.0094339622641509433962264150943396226415094339622642" fill="rgb(220,57,18)" />
<text x="0.24830672472181906144170295113691340106434446057088" y="0.26087022254475084663763909046927914852443154329947" font-size="0.0041928721174004192872117400419287211740041928721174" text-anchor="middle" dominant-baseline="central" fill="rgb(255,255,255)">106</text>
<rect x="0.26245766811804547653604257377842283502660861151427" y="0.27510933381260484064222381979391325185717709082195" width="0.0093457943925233644859813084112149532710280373831776" height="0.0093457943925233644859813084112149532710280373831776" fill="rgb(51,102,204)" />
<text x="0.26713056531430715877903322798403031166212263020586" y="0.27978223100886652288521447399952072849269110951354" font-size="0.0041536863966770508826583592938733125649013499480789" text-anchor="middle" dominant-baseline="central" fill="rgb(255,255,255)">107</text>
<rect x="0.16666666666666666666666666666666666666666666666667" y="0.18117877492877492877492877492877492877492877492877" width="0.0092592592592592592592592592592592592592592592592593" height="0.0092592592592592592592592592592592592592592592592593" fill="rgb(220,57,18)" />
<text x="0.17129629629629629629629629629629629629629629629630" y="0.18580840455840455840455840455840455840455840455840" font-size="0.0041152263374485596707818930041152263374485596707819" text-anchor="middle" dominant-baseline="central" fill="rgb(255,255,255)">108</text>
<rect x="0.18518518518518518518518518518518518518518518518519" y="0.19978224077994720196555058940380041297472490133041" width="0.0091743119266055045871559633027522935779816513761468" height="0.0091743119266055045871559633027522935779816513761468" fill="rgb(51,102,204)" />
<text x="0.18977234114848793747876316683656133197417601087326" y="0.20436939674324995425912857105517655976371572701848" font-size="0.0040774719673802242609582059123343527013251783893986" text-anchor="middle" dominant-baseline="central" fill="rgb(255,255,255)">109</text>
<rect x="0.22188552188552188552188552188552188552188552188552" y="0.23690268065268065268065268065268065268065268065268" width="0.0090909090909090909090909090909090909090909090909091" height="0.0090909090909090909090909090909090909090909090909091" fill="rgb(220,57,18)" />
<text x="0.22643097643097643097643097643097643097643097643098" y="0.24144813519813519813519813519813519813519813519814" font-size="0.0040404040404040404040404040404040404040404040404040" text-anchor="middle" dominant-baseline="central" fill="rgb(255,255,255)">110</text>
<rect x="0.20370370370370370370370370370370370370370370370370" y="0.21880276255276255276255276255276255276255276255276" width="0.0090090090090090090090090090090090090090090090090090" height="0.0090090090090090090090090090090090090090090090090090" fill="rgb(51,102,204)" />
<text x="0.20820820820820820820820820820820820820820820820821" y="0.22330726705726705726705726705726705726705726705727" font-size="0.0040040040040040040040040040040040040040040040040040" text-anchor="middle" dominant-baseline="central" fill="rgb(255,255,255)">111</text>
<rect x="0.60119047619047619047619047619047619047619047619048" y="0.64732142857142857142857142857142857142857142857143" width="0.0089285714285714285714285714285714285714285714285714" height="0.0089285714285714285714285714285714285714285714285714" fill="rgb(220,57,18)" />
<text x="0.60565476190476190476190476190476190476190476190476" y="0.65178571428571428571428571428571428571428571428571" font-size="0.0039682539682539682539682539682539682539682539682540" text-anchor="middle" dominant-baseline="central" fill="rgb(255,255,255)">112</text>
<rect x="0.58333333333333333333333333333333333333333333333333" y="0.62954329962073324905183312262958280657395701643489" width="0.0088495575221238938053097345132743362831858407079646" height="0.0088495575221238938053097345132743362831858407079646" fill="rgb(51,102,204)" />
<text x="0.58775811209439528023598820058997050147492625368732" y="0.63396807838179519595448798988621997471554993678887" font-size="0.0039331366764995083579154375614552605703048180924287" text-anchor="middle" dominant-baseline="central" fill="rgb(255,255,255)">113</text>
<rect x="0.54761904761904761904761904761904761904761904761905" y="0.59421992481203007518796992481203007518796992481203" width="0.0087719298245614035087719298245614035087719298245614" height="0.0087719298245614035087719298245614035087719298245614" fill="rgb(220,57,18)" />
<text x="0.55200501253132832080200501253132832080200501253133" y="0.59860588972431077694235588972431077694235588972431" font-size="0.0038986354775828460038986354775828460038986354775828" text-anchor="middle" dominant-baseline="central" fill="rgb(255,255,255)">114</text>
<rect x="0.56516290726817042606516290726817042606516290726817" y="0.61184006211180124223602484472049689440993788819876" width="0.0086956521739130434782608695652173913043478260869565" height="0.0086956521739130434782608695652173913043478260869565" fill="rgb(51,102,204)" />
<text x="0.56951073335512694780429334205077912171733682031165" y="0.61618788819875776397515527950310559006211180124224" font-size="0.0038647342995169082125603864734299516908212560386473" text-anchor="middle" dominant-baseline="central" fill="rgb(255,255,255)">115</text>
<rect x="0.47619047619047619047619047619047619047619047619048" y="0.52447660098522167487684729064039408866995073891626" width="0.0086206896551724137931034482758620689655172413793103" height="0.0086206896551724137931034482758620689655172413793103" fill="rgb(220,57,18)" />
<text x="0.48050082101806239737274220032840722495894909688013" y="0.52878694581280788177339901477832512315270935960591" font-size="0.0038314176245210727969348659003831417624521072796935" text-anchor="middle" dominant-baseline="central" fill="rgb(255,255,255)">116</text>
<rect x="0.49343185550082101806239737274220032840722495894910" y="0.54179166140373036924761062692097174855795545450718" width="0.0085470085470085470085470085470085470085470085470085" height="0.0085470085470085470085470085470085470085470085470085" fill="rgb(51,102,204)" />
<text x="0.49770535977432529156667087701570460191149846322260" y="0.54606516567723464275188413119447602206222895878068" font-size="0.0037986704653371320037986704653371320037986704653371" text-anchor="middle" dominant-baseline="central" fill="rgb(255,255,255)">117</text>
<rect x="0.52762238735353872700453647268375497481283571289416" y="0.57634685230024213075060532687651331719128329297821" width="0.0084745762711864406779661016949152542372881355932203" height="0.0084745762711864406779661016949152542372881355932203" fill="rgb(220,57,18)" />
<text x="0.53185967548913194734351952353121260193147978069077" y="0.58058414043583535108958837772397094430992736077482" font-size="0.0037664783427495291902071563088512241054613935969868" text-anchor="middle" dominant-baseline="central" fill="rgb(255,255,255)">118</text>
<rect x="0.51067323481116584564860426929392446633825944170772" y="0.55946891468451787494658880501353083606323885486398" width="0.0084033613445378151260504201680672268907563025210084" height="0.0084033613445378151260504201680672268907563025210084" fill="rgb(51,102,204)" />
<text x="0.51487491548343475321162947937795807978363759296822" y="0.56367059535678678250961401509756444950861700612448" font-size="0.0037348272642390289449112978524743230625583566760037" text-anchor="middle" dominant-baseline="central" fill="rgb(255,255,255)">119</text>
<rect x="0.33333333333333333333333333333333333333333333333333" y="0.38839285714285714285714285714285714285714285714286" width="0.0083333333333333333333333333333333333333333333333333" height="0.0083333333333333333333333333333333333333333333333333" fill="rgb(220,57,18)" />
<text x="0.3375" y="0.39255952380952380952380952380952380952380952380952" font-size="0.0037037037037037037037037037037037037037037037037037" text-anchor="middle" dominant-baseline="central" fill="rgb(255,255,255)">120</text>
<rect x="0.35" y="0.40512839433293978748524203069657615112160566706021" width="0.0082644628099173553719008264462809917355371900826446" height="0.0082644628099173553719008264462809917355371900826446" fill="rgb(51,102,204)" />
<text x="0.35413223140495867768595041322314049586776859504132" y="0.40926062573789846517119244391971664698937426210153" font-size="0.0036730945821854912764003673094582185491276400367309" text-anchor="middle" dominant-baseline="central" fill="rgb(255,255,255)">121</text>
<rect x="0.38306010928961748633879781420765027322404371584699" y="0.43852946916471506635441061670569867291178766588603" width="0.0081967213114754098360655737704918032786885245901639" height="0.0081967213114754098360655737704918032786885245901639" fill="rgb(220,57,18)" />
<text x="0.38715846994535519125683060109289617486338797814208" y="0.44262782982045277127244340359094457455113192818111" font-size="0.0036429872495446265938069216757741347905282331511840" text-anchor="middle" dominant-baseline="central" fill="rgb(255,255,255)">122</text>
<rect x="0.36666666666666666666666666666666666666666666666667" y="0.42220266655242664838826374212219873955179832828773" width="0.0081300813008130081300813008130081300813008130081301" height="0.0081300813008130081300813008130081300813008130081301" fill="rgb(51,102,204)" />
<text x="0.37073170731707317073170731707317073170731707317073" y="0.42626770720283315245330439252870280459244873479180" font-size="0.0036133694670280036133694670280036133694670280036134" text-anchor="middle" dominant-baseline="central" fill="rgb(255,255,255)">123</text>
<rect x="0.44838709677419354838709677419354838709677419354839" y="0.50532834101382488479262672811059907834101382488479" width="0.0080645161290322580645161290322580645161290322580645" height="0.0080645161290322580645161290322580645161290322580645" fill="rgb(220,57,18)" />
<text x="0.45241935483870967741935483870967741935483870967742" y="0.50936059907834101382488479262672811059907834101382" font-size="0.0035842293906810035842293906810035842293906810035842" text-anchor="middle" dominant-baseline="central" fill="rgb(255,255,255)">124</text>
<rect x="0.43225806451612903225806451612903225806451612903226" y="0.48926382488479262672811059907834101382488479262673" width="0.008" height="0.008" fill="rgb(51,102,204)" />
<text x="0.43625806451612903225806451612903225806451612903226" y="0.49326382488479262672811059907834101382488479262673" font-size="0.0035555555555555555555555555555555555555555555555556" text-anchor="middle" dominant-baseline="central" fill="rgb(255,255,255)">125</text>
<rect x="0.4" y="0.45732526881720430107526881720430107526881720430108" width="0.0079365079365079365079365079365079365079365079365079" height="0.0079365079365079365079365079365079365079365079365079" fill="rgb(220,57,18)" />
<text x="0.40396825396825396825396825396825396825396825396825" y="0.46129352278545826932923707117255504352278545826933" font-size="0.0035273368606701940035273368606701940035273368606702" text-anchor="middle" dominant-baseline="central" fill="rgb(255,255,255)">126</text>
<rect x="0.41587301587301587301587301587301587301587301587302" y="0.47326077687869661453608621502957291628868972023658" width="0.0078740157480314960629921259842519685039370078740157" height="0.0078740157480314960629921259842519685039370078740157" fill="rgb(51,102,204)" />
<text x="0.41981002374703162104736907886514185726784151981002" y="0.47719778475271236256758227802169890054065822417359" font-size="0.0034995625546806649168853893263342082239720034995626" text-anchor="middle" dominant-baseline="central" fill="rgb(255,255,255)">127</text>
</svg>
