<svg xmlns="http://www.w3.org/2000/svg" viewBox="0 0 2.4359353325662530525165118038133866611692693641248 1">
<rect width="100%" height="100%" fill="black" />
<rect x="0" y="0" width="1" height="1" fill="rgb(51,102,204)" />
<text x="0.5" y="0.5" font-size="0.8" text-anchor="middle" dominant-baseline="central" fill="rgb(255,255,255)">1</text>
<rect x="1" y="0.5" width="0.5" height="0.5" fill="rgb(220,57,18)" />
<text x="1.25" y="0.75" font-size="0.4" text-anchor="middle" dominant-baseline="central" fill="rgb(255,255,255)">2</text>
<rect x="1" y="0.16666666666666666666666666666666666666666666666667" width="0.33333333333333333333333333333333333333333333333333" height="0.33333333333333333333333333333333333333333333333333" fill="rgb(255,153,0)" />
<text x="1.1666666666666666666666666666666666666666666666667" y="0.33333333333333333333333333333333333333333333333333" font-size="0.26666666666666666666666666666666666666666666666667" text-anchor="middle" dominant-baseline="central" fill="rgb(0,0,0)">3</text>
<rect x="1.5" y="0.75" width="0.25" height="0.25" fill="rgb(16,150,24)" />
<text x="1.625" y="0.875" font-size="0.2" text-anchor="middle" dominant-baseline="central" fill="rgb(255,255,255)">4</text>
<rect x="1.5" y="0.55" width="0.2" height="0.2" fill="rgb(153,0,153)" />
<text x="1.6" y="0.65" font-size="0.16" text-anchor="middle" dominant-baseline="central" fill="rgb(255,255,255)">5</text>
<rect x="1" y="0" width="0.16666666666666666666666666666666666666666666666667" height="0.16666666666666666666666666666666666666666666666667" fill="rgb(0,153,198)" />
<text x="1.0833333333333333333333333333333333333333333333333" y="0.083333333333333333333333333333333333333333333333333" font-size="0.13333333333333333333333333333333333333333333333333" text-anchor="middle" dominant-baseline="central" fill="rgb(255,255,255)">6</text>
<rect x="1.1666666666666666666666666666666666666666666666667" y="0.023809523809523809523809523809523809523809523809524" width="0.14285714285714285714285714285714285714285714285714" height="0.14285714285714285714285714285714285714285714285714" fill="rgb(221,68,119)" />
<text x="1.2380952380952380952380952380952380952380952380952" y="0.095238095238095238095238095238095238095238095238095" font-size="0.11428571428571428571428571428571428571428571428571" text-anchor="middle" dominant-baseline="central" fill="rgb(255,255,255)">7</text>
<rect x="1.3333333333333333333333333333333333333333333333333" y="0.375" width="0.125" height="0.125" fill="rgb(102,170,0)" />
<text x="1.3958333333333333333333333333333333333333333333333" y="0.4375" font-size="0.1" text-anchor="middle" dominant-baseline="central" fill="rgb(0,0,0)">8</text>
<rect x="1.3333333333333333333333333333333333333333333333333" y="0.26388888888888888888888888888888888888888888888889" width="0.11111111111111111111111111111111111111111111111111" height="0.11111111111111111111111111111111111111111111111111" fill="rgb(184,46,46)" />
<text x="1.3888888888888888888888888888888888888888888888889" y="0.31944444444444444444444444444444444444444444444444" font-size="0.088888888888888888888888888888888888888888888888889" text-anchor="middle" dominant-baseline="central" fill="rgb(255,255,255)">9</text>
<rect x="1.75" y="0.9" width="0.1" height="0.1" fill="rgb(49,99,149)" />
<text x="1.8" y="0.95" font-size="0.066666666666666666666666666666666666666666666666667" text-anchor="middle" dominant-baseline="central" fill="rgb(255,255,255)">10</text>
<rect x="1.3333333333333333333333333333333333333333333333333" y="0.17297979797979797979797979797979797979797979797980" width="0.090909090909090909090909090909090909090909090909091" height="0.090909090909090909090909090909090909090909090909091" fill="rgb(153,68,153)" />
<text x="1.3787878787878787878787878787878787878787878787879" y="0.21843434343434343434343434343434343434343434343434" font-size="0.060606060606060606060606060606060606060606060606061" text-anchor="middle" dominant-baseline="central" fill="rgb(255,255,255)">11</text>
<rect x="1.75" y="0.81666666666666666666666666666666666666666666666667" width="0.083333333333333333333333333333333333333333333333333" height="0.083333333333333333333333333333333333333333333333333" fill="rgb(34,170,153)" />
<text x="1.7916666666666666666666666666666666666666666666667" y="0.85833333333333333333333333333333333333333333333333" font-size="0.055555555555555555555555555555555555555555555555556" text-anchor="middle" dominant-baseline="central" fill="rgb(255,255,255)">12</text>
<rect x="1.85" y="0.92307692307692307692307692307692307692307692307692" width="0.076923076923076923076923076923076923076923076923077" height="0.076923076923076923076923076923076923076923076923077" fill="rgb(51,102,204)" />
<text x="1.8884615384615384615384615384615384615384615384615" y="0.96153846153846153846153846153846153846153846153846" font-size="0.051282051282051282051282051282051282051282051282051" text-anchor="middle" dominant-baseline="central" fill="rgb(255,255,255)">13</text>
<rect x="1.9269230769230769230769230769230769230769230769231" y="0.92857142857142857142857142857142857142857142857143" width="0.071428571428571428571428571428571428571428571428571" height="0.071428571428571428571428571428571428571428571428571" fill="rgb(220,57,18)" />
<text x="1.9626373626373626373626373626373626373626373626374" y="0.96428571428571428571428571428571428571428571428571" font-size="0.047619047619047619047619047619047619047619047619048" text-anchor="middle" dominant-baseline="central" fill="rgb(255,255,255)">14</text>
<rect x="1.75" y="0.75" width="0.066666666666666666666666666666666666666666666666667" height="0.066666666666666666666666666666666666666666666666667" fill="rgb(255,153,0)" />
<text x="1.7833333333333333333333333333333333333333333333333" y="0.78333333333333333333333333333333333333333333333333" font-size="0.044444444444444444444444444444444444444444444444444" text-anchor="middle" dominant-baseline="central" fill="rgb(0,0,0)">15</text>
<rect x="1.7" y="0.6875" width="0.0625" height="0.0625" fill="rgb(16,150,24)" />
<text x="1.73125" y="0.71875" font-size="0.041666666666666666666666666666666666666666666666667" text-anchor="middle" dominant-baseline="central" fill="rgb(255,255,255)">16</text>
<rect x="1.7" y="0.62867647058823529411764705882352941176470588235294" width="0.058823529411764705882352941176470588235294117647059" height="0.058823529411764705882352941176470588235294117647059" fill="rgb(153,0,153)" />
<text x="1.7294117647058823529411764705882352941176470588235" y="0.65808823529411764705882352941176470588235294117647" font-size="0.039215686274509803921568627450980392156862745098039" text-anchor="middle" dominant-baseline="central" fill="rgb(255,255,255)">17</text>
<rect x="1.7" y="0.57312091503267973856209150326797385620915032679739" width="0.055555555555555555555555555555555555555555555555556" height="0.055555555555555555555555555555555555555555555555556" fill="rgb(0,153,198)" />
<text x="1.7277777777777777777777777777777777777777777777778" y="0.60089869281045751633986928104575163398692810457516" font-size="0.037037037037037037037037037037037037037037037037037" text-anchor="middle" dominant-baseline="central" fill="rgb(255,255,255)">18</text>
<rect x="1.7625" y="0.69736842105263157894736842105263157894736842105263" width="0.052631578947368421052631578947368421052631578947368" height="0.052631578947368421052631578947368421052631578947368" fill="rgb(221,68,119)" />
<text x="1.7888157894736842105263157894736842105263157894737" y="0.72368421052631578947368421052631578947368421052632" font-size="0.035087719298245614035087719298245614035087719298246" text-anchor="middle" dominant-baseline="central" fill="rgb(255,255,255)">19</text>
<rect x="1.5" y="0.5" width="0.05" height="0.05" fill="rgb(102,170,0)" />
<text x="1.525" y="0.525" font-size="0.033333333333333333333333333333333333333333333333333" text-anchor="middle" dominant-baseline="central" fill="rgb(0,0,0)">20</text>
<rect x="1.4583333333333333333333333333333333333333333333333" y="0.45238095238095238095238095238095238095238095238095" width="0.047619047619047619047619047619047619047619047619048" height="0.047619047619047619047619047619047619047619047619048" fill="rgb(184,46,46)" />
<text x="1.4821428571428571428571428571428571428571428571429" y="0.47619047619047619047619047619047619047619047619048" font-size="0.031746031746031746031746031746031746031746031746032" text-anchor="middle" dominant-baseline="central" fill="rgb(255,255,255)">21</text>
<rect x="1.4583333333333333333333333333333333333333333333333" y="0.40692640692640692640692640692640692640692640692641" width="0.045454545454545454545454545454545454545454545454545" height="0.045454545454545454545454545454545454545454545454545" fill="rgb(49,99,149)" />
<text x="1.4810606060606060606060606060606060606060606060606" y="0.42965367965367965367965367965367965367965367965368" font-size="0.030303030303030303030303030303030303030303030303030" text-anchor="middle" dominant-baseline="central" fill="rgb(255,255,255)">22</text>
<rect x="1.5059523809523809523809523809523809523809523809524" y="0.45652173913043478260869565217391304347826086956522" width="0.043478260869565217391304347826086956521739130434783" height="0.043478260869565217391304347826086956521739130434783" fill="rgb(153,68,153)" />
<text x="1.5276915113871635610766045548654244306418219461698" y="0.47826086956521739130434782608695652173913043478261" font-size="0.028985507246376811594202898550724637681159420289855" text-anchor="middle" dominant-baseline="central" fill="rgb(255,255,255)">23</text>
<rect x="1.55" y="0.50833333333333333333333333333333333333333333333333" width="0.041666666666666666666666666666666666666666666666667" height="0.041666666666666666666666666666666666666666666666667" fill="rgb(34,170,153)" />
<text x="1.5708333333333333333333333333333333333333333333333" y="0.52916666666666666666666666666666666666666666666667" font-size="0.027777777777777777777777777777777777777777777777778" text-anchor="middle" dominant-baseline="central" fill="rgb(255,255,255)">24</text>
<rect x="1.5916666666666666666666666666666666666666666666667" y="0.51" width="0.04" height="0.04" fill="rgb(51,102,204)" />
<text x="1.6116666666666666666666666666666666666666666666667" y="0.53" font-size="0.026666666666666666666666666666666666666666666666667" text-anchor="middle" dominant-baseline="central" fill="rgb(255,255,255)">25</text>
<rect x="1.6316666666666666666666666666666666666666666666667" y="0.51153846153846153846153846153846153846153846153846" width="0.038461538461538461538461538461538461538461538461538" height="0.038461538461538461538461538461538461538461538461538" fill="rgb(220,57,18)" />
<text x="1.6508974358974358974358974358974358974358974358974" y="0.53076923076923076923076923076923076923076923076923" font-size="0.025641025641025641025641025641025641025641025641026" text-anchor="middle" dominant-baseline="central" fill="rgb(255,255,255)">26</text>
<rect x="1.9983516483516483516483516483516483516483516483516" y="0.96296296296296296296296296296296296296296296296296" width="0.037037037037037037037037037037037037037037037037037" height="0.037037037037037037037037037037037037037037037037037" fill="rgb(255,153,0)" />
<text x="2.0168701668701668701668701668701668701668701668702" y="0.98148148148148148148148148148148148148148148148148" font-size="0.024691358024691358024691358024691358024691358024691" text-anchor="middle" dominant-baseline="central" fill="rgb(0,0,0)">27</text>
<rect x="2.0353886853886853886853886853886853886853886853887" y="0.96428571428571428571428571428571428571428571428571" width="0.035714285714285714285714285714285714285714285714286" height="0.035714285714285714285714285714285714285714285714286" fill="rgb(16,150,24)" />
<text x="2.0532458282458282458282458282458282458282458282458" y="0.98214285714285714285714285714285714285714285714286" font-size="0.023809523809523809523809523809523809523809523809524" text-anchor="middle" dominant-baseline="central" fill="rgb(255,255,255)">28</text>
<rect x="2.0711029711029711029711029711029711029711029711030" y="0.96551724137931034482758620689655172413793103448276" width="0.034482758620689655172413793103448275862068965517241" height="0.034482758620689655172413793103448275862068965517241" fill="rgb(153,0,153)" />
<text x="2.0883443504133159305573098676546952409021374538616" y="0.98275862068965517241379310344827586206896551724138" font-size="0.022988505747126436781609195402298850574712643678161" text-anchor="middle" dominant-baseline="central" fill="rgb(255,255,255)">29</text>
<rect x="1.9983516483516483516483516483516483516483516483516" y="0.92962962962962962962962962962962962962962962962963" width="0.033333333333333333333333333333333333333333333333333" height="0.033333333333333333333333333333333333333333333333333" fill="rgb(0,153,198)" />
<text x="2.0150183150183150183150183150183150183150183150183" y="0.94629629629629629629629629629629629629629629629630" font-size="0.022222222222222222222222222222222222222222222222222" text-anchor="middle" dominant-baseline="central" fill="rgb(255,255,255)">30</text>
<rect x="2.1055857297236607581435167642064193788331719366202" y="0.96774193548387096774193548387096774193548387096774" width="0.032258064516129032258064516129032258064516129032258" height="0.032258064516129032258064516129032258064516129032258" fill="rgb(221,68,119)" />
<text x="2.1217147619817252742725490222709355078654300011363" y="0.98387096774193548387096774193548387096774193548387" font-size="0.021505376344086021505376344086021505376344086021505" text-anchor="middle" dominant-baseline="central" fill="rgb(255,255,255)">31</text>
<rect x="1.4583333333333333333333333333333333333333333333333" y="0.37567640692640692640692640692640692640692640692641" width="0.03125" height="0.03125" fill="rgb(102,170,0)" />
<text x="1.4739583333333333333333333333333333333333333333333" y="0.39130140692640692640692640692640692640692640692641" font-size="0.020833333333333333333333333333333333333333333333333" text-anchor="middle" dominant-baseline="central" fill="rgb(0,0,0)">32</text>
<rect x="2.1378437942397897904015812803354516368976880656525" y="0.96969696969696969696969696969696969696969696969697" width="0.030303030303030303030303030303030303030303030303030" height="0.030303030303030303030303030303030303030303030303030" fill="rgb(184,46,46)" />
<text x="2.1529953093913049419167327954869667884128395808040" y="0.98484848484848484848484848484848484848484848484848" font-size="0.020202020202020202020202020202020202020202020202020" text-anchor="middle" dominant-baseline="central" fill="rgb(255,255,255)">33</text>
<rect x="1.6701282051282051282051282051282051282051282051282" y="0.52058823529411764705882352941176470588235294117647" width="0.029411764705882352941176470588235294117647058823529" height="0.029411764705882352941176470588235294117647058823529" fill="rgb(49,99,149)" />
<text x="1.6848340874811463046757164404223227752639517345400" y="0.53529411764705882352941176470588235294117647058824" font-size="0.019607843137254901960784313725490196078431372549020" text-anchor="middle" dominant-baseline="central" fill="rgb(255,255,255)">34</text>
<rect x="2.1681468245428200934318843106384819399279910959555" y="0.97142857142857142857142857142857142857142857142857" width="0.028571428571428571428571428571428571428571428571429" height="0.028571428571428571428571428571428571428571428571429" fill="rgb(153,68,153)" />
<text x="2.1824325388285343791461700249241962256422768102412" y="0.98571428571428571428571428571428571428571428571429" font-size="0.019047619047619047619047619047619047619047619047619" text-anchor="middle" dominant-baseline="central" fill="rgb(255,255,255)">35</text>
<rect x="2.1967182531142486648604557392099105113565625245269" y="0.97222222222222222222222222222222222222222222222222" width="0.027777777777777777777777777777777777777777777777778" height="0.027777777777777777777777777777777777777777777777778" fill="rgb(34,170,153)" />
<text x="2.2106071420031375537493446280987994002454514134158" y="0.98611111111111111111111111111111111111111111111111" font-size="0.018518518518518518518518518518518518518518518518519" text-anchor="middle" dominant-baseline="central" fill="rgb(255,255,255)">36</text>
<rect x="2.2244960308920264426382335169876882891343403023047" y="0.97297297297297297297297297297297297297297297297297" width="0.027027027027027027027027027027027027027027027027027" height="0.027027027027027027027027027027027027027027027027027" fill="rgb(51,102,204)" />
<text x="2.2380095444055399561517470305012018026478538158182" y="0.98648648648648648648648648648648648648648648648649" font-size="0.018018018018018018018018018018018018018018018018018" text-anchor="middle" dominant-baseline="central" fill="rgb(255,255,255)">37</text>
<rect x="2.2515230579190534696652605440147153161613673293317" y="0.97368421052631578947368421052631578947368421052632" width="0.026315789473684210526315789473684210526315789473684" height="0.026315789473684210526315789473684210526315789473684" fill="rgb(220,57,18)" />
<text x="2.2646809526558955749284184387515574214245252240686" y="0.98684210526315789473684210526315789473684210526316" font-size="0.017543859649122807017543859649122807017543859649123" text-anchor="middle" dominant-baseline="central" fill="rgb(255,255,255)">38</text>
<rect x="2.2778388473927376801915763334883995266876831188054" y="0.97435897435897435897435897435897435897435897435897" width="0.025641025641025641025641025641025641025641025641026" height="0.025641025641025641025641025641025641025641025641026" fill="rgb(255,153,0)" />
<text x="2.2906593602132505007043968463089123472005036316259" y="0.98717948717948717948717948717948717948717948717949" font-size="0.017094017094017094017094017094017094017094017094017" text-anchor="middle" dominant-baseline="central" fill="rgb(0,0,0)">39</text>
<rect x="2.3034798730337633212172173591294251677133241444464" y="0.975" width="0.025" height="0.025" fill="rgb(16,150,24)" />
<text x="2.3159798730337633212172173591294251677133241444464" y="0.9875" font-size="0.016666666666666666666666666666666666666666666666667" text-anchor="middle" dominant-baseline="central" fill="rgb(255,255,255)">40</text>
<rect x="2.3284798730337633212172173591294251677133241444464" y="0.97560975609756097560975609756097560975609756097561" width="0.024390243902439024390243902439024390243902439024390" height="0.024390243902439024390243902439024390243902439024390" fill="rgb(153,0,153)" />
<text x="2.3406749949849828334123393103489373628352753639586" y="0.98780487804878048780487804878048780487804878048780" font-size="0.016260162601626016260162601626016260162601626016260" text-anchor="middle" dominant-baseline="central" fill="rgb(255,255,255)">41</text>
<rect x="1.1666666666666666666666666666666666666666666666667" y="0" width="0.023809523809523809523809523809523809523809523809524" height="0.023809523809523809523809523809523809523809523809524" fill="rgb(0,153,198)" />
<text x="1.1785714285714285714285714285714285714285714285714" y="0.011904761904761904761904761904761904761904761904762" font-size="0.015873015873015873015873015873015873015873015873016" text-anchor="middle" dominant-baseline="central" fill="rgb(255,255,255)">42</text>
<rect x="1.1904761904761904761904761904761904761904761904762" y="0.00055370985603543743078626799557032115171650055370986" width="0.023255813953488372093023255813953488372093023255814" height="0.023255813953488372093023255813953488372093023255814" fill="rgb(221,68,119)" />
<text x="1.2021040974529346622369878183831672203765227021041" y="0.012181616832779623477297895902547065337763012181617" font-size="0.015503875968992248062015503875968992248062015503876" text-anchor="middle" dominant-baseline="central" fill="rgb(255,255,255)">43</text>
<rect x="1.2137320044296788482834994462901439645625692137320" y="0.0010822510822510822510822510822510822510822510822511" width="0.022727272727272727272727272727272727272727272727273" height="0.022727272727272727272727272727272727272727272727273" fill="rgb(102,170,0)" />
<text x="1.2250956407933152119198630826537803281989328500956" y="0.012445887445887445887445887445887445887445887445887" font-size="0.015151515151515151515151515151515151515151515151515" text-anchor="middle" dominant-baseline="central" fill="rgb(0,0,0)">44</text>
<rect x="1.2364592771569515755562267190174166918352964864593" y="0.0015873015873015873015873015873015873015873015873016" width="0.022222222222222222222222222222222222222222222222222" height="0.022222222222222222222222222222222222222222222222222" fill="rgb(184,46,46)" />
<text x="1.2475703882680626866673378301285278029464075975704" y="0.012698412698412698412698412698412698412698412698413" font-size="0.014814814814814814814814814814814814814814814814815" text-anchor="middle" dominant-baseline="central" fill="rgb(255,255,255)">45</text>
<rect x="1.2586814993791737977784489412396389140575187086815" y="0.0020703933747412008281573498964803312629399585921325" width="0.021739130434782608695652173913043478260869565217391" height="0.021739130434782608695652173913043478260869565217391" fill="rgb(49,99,149)" />
<text x="1.2695510645965651021262750281961606531879534912902" y="0.012939958592132505175983436853002070393374741200828" font-size="0.014492753623188405797101449275362318840579710144928" text-anchor="middle" dominant-baseline="central" fill="rgb(255,255,255)">46</text>
<rect x="1.2804206298139564064741011151526823923183882738989" y="0.0025329280648429584599797365754812563323201621073961" width="0.021276595744680851063829787234042553191489361702128" height="0.021276595744680851063829787234042553191489361702128" fill="rgb(153,68,153)" />
<text x="1.2910589276862968320060160087697036689141329547500" y="0.013171225937183383991894630192502532928064842958460" font-size="0.014184397163120567375886524822695035460992907801418" text-anchor="middle" dominant-baseline="central" fill="rgb(255,255,255)">47</text>
<rect x="1.3095238095238095238095238095238095238095238095238" y="0.14583333333333333333333333333333333333333333333333" width="0.020833333333333333333333333333333333333333333333333" height="0.020833333333333333333333333333333333333333333333333" fill="rgb(34,170,153)" />
<text x="1.3199404761904761904761904761904761904761904761905" y="0.15625" font-size="0.013888888888888888888888888888888888888888888888889" text-anchor="middle" dominant-baseline="central" fill="rgb(255,255,255)">48</text>
<rect x="1.3095238095238095238095238095238095238095238095238" y="0.12542517006802721088435374149659863945578231292517" width="0.020408163265306122448979591836734693877551020408163" height="0.020408163265306122448979591836734693877551020408163" fill="rgb(51,102,204)" />
<text x="1.3197278911564625850340136054421768707482993197279" y="0.13562925170068027210884353741496598639455782312925" font-size="0.013605442176870748299319727891156462585034013605442" text-anchor="middle" dominant-baseline="central" fill="rgb(255,255,255)">49</text>
<rect x="1.3095238095238095238095238095238095238095238095238" y="0.10542517006802721088435374149659863945578231292517" width="0.02" height="0.02" fill="rgb(220,57,18)" />
<text x="1.3195238095238095238095238095238095238095238095238" y="0.11542517006802721088435374149659863945578231292517" font-size="0.013333333333333333333333333333333333333333333333333" text-anchor="middle" dominant-baseline="central" fill="rgb(255,255,255)">50</text>
<rect x="1.3095238095238095238095238095238095238095238095238" y="0.085817326930772308923569427771108443377350940376150" width="0.019607843137254901960784313725490196078431372549020" height="0.019607843137254901960784313725490196078431372549020" fill="rgb(255,153,0)" />
<text x="1.3193277310924369747899159663865546218487394957983" y="0.095621248499399759903961584633853541416566626650660" font-size="0.013071895424836601307189542483660130718954248366013" text-anchor="middle" dominant-baseline="central" fill="rgb(0,0,0)">51</text>
<rect x="1.3095238095238095238095238095238095238095238095238" y="0.066586557700003078154338658540339212608120171145381" width="0.019230769230769230769230769230769230769230769230769" height="0.019230769230769230769230769230769230769230769230769" fill="rgb(16,150,24)" />
<text x="1.3191391941391941391941391941391941391941391941392" y="0.076201942315387693538954043155723827992735555760766" font-size="0.012820512820512820512820512820512820512820512820513" text-anchor="middle" dominant-baseline="central" fill="rgb(255,255,255)">52</text>
<rect x="1.3095238095238095238095238095238095238095238095238" y="0.047718633171701191361885828351659967325101303220853" width="0.018867924528301886792452830188679245283018867924528" height="0.018867924528301886792452830188679245283018867924528" fill="rgb(153,0,153)" />
<text x="1.3189577717879604672057502246181491464510332434861" y="0.057152595435852134758112243445999589966610737183117" font-size="0.012578616352201257861635220125786163522012578616352" text-anchor="middle" dominant-baseline="central" fill="rgb(255,255,255)">53</text>
<rect x="1.3095238095238095238095238095238095238095238095238" y="0.029200114653182672843367309833141448806582784702334" width="0.018518518518518518518518518518518518518518518518519" height="0.018518518518518518518518518518518518518518518518519" fill="rgb(0,153,198)" />
<text x="1.3187830687830687830687830687830687830687830687831" y="0.038459373912441932102626569092400708065842043961594" font-size="0.012345679012345679012345679012345679012345679012346" text-anchor="middle" dominant-baseline="central" fill="rgb(255,255,255)">54</text>
<rect x="1.4242424242424242424242424242424242424242424242424" y="0.24570707070707070707070707070707070707070707070707" width="0.018181818181818181818181818181818181818181818181818" height="0.018181818181818181818181818181818181818181818181818" fill="rgb(221,68,119)" />
<text x="1.4333333333333333333333333333333333333333333333333" y="0.25479797979797979797979797979797979797979797979798" font-size="0.012121212121212121212121212121212121212121212121212" text-anchor="middle" dominant-baseline="central" fill="rgb(255,255,255)">55</text>
<rect x="1.4242424242424242424242424242424242424242424242424" y="0.22784992784992784992784992784992784992784992784993" width="0.017857142857142857142857142857142857142857142857143" height="0.017857142857142857142857142857142857142857142857143" fill="rgb(102,170,0)" />
<text x="1.4331709956709956709956709956709956709956709956710" y="0.23677849927849927849927849927849927849927849927850" font-size="0.011904761904761904761904761904761904761904761904762" text-anchor="middle" dominant-baseline="central" fill="rgb(0,0,0)">56</text>
<rect x="1.4242424242424242424242424242424242424242424242424" y="0.21030606820080504291030606820080504291030606820081" width="0.017543859649122807017543859649122807017543859649123" height="0.017543859649122807017543859649122807017543859649123" fill="rgb(184,46,46)" />
<text x="1.4330143540669856459330143540669856459330143540670" y="0.21907799802536644641907799802536644641907799802537" font-size="0.011695906432748538011695906432748538011695906432749" text-anchor="middle" dominant-baseline="central" fill="rgb(255,255,255)">57</text>
<rect x="1.4242424242424242424242424242424242424242424242424" y="0.19306468889046021532409917164908090497927158544218" width="0.017241379310344827586206896551724137931034482758621" height="0.017241379310344827586206896551724137931034482758621" fill="rgb(49,99,149)" />
<text x="1.4328631138975966562173458725182863113897596656217" y="0.20168537854563262911720261992494297394478882682149" font-size="0.011494252873563218390804597701149425287356321839080" text-anchor="middle" dominant-baseline="central" fill="rgb(255,255,255)">58</text>
<rect x="1.4242424242424242424242424242424242424242424242424" y="0.17611553634808733396816696825925039650469531425574" width="0.016949152542372881355932203389830508474576271186441" height="0.016949152542372881355932203389830508474576271186441" fill="rgb(153,68,153)" />
<text x="1.4327170005136106831022085259373394966615305598356" y="0.18459011261927377464613306995416565074198344984896" font-size="0.011299435028248587570621468926553672316384180790960" text-anchor="middle" dominant-baseline="central" fill="rgb(255,255,255)">59</text>
<rect x="1.7" y="0.55645424836601307189542483660130718954248366013072" width="0.016666666666666666666666666666666666666666666666667" height="0.016666666666666666666666666666666666666666666666667" fill="rgb(34,170,153)" />
<text x="1.7083333333333333333333333333333333333333333333333" y="0.56478758169934640522875816993464052287581699346405" font-size="0.011111111111111111111111111111111111111111111111111" text-anchor="middle" dominant-baseline="central" fill="rgb(255,255,255)">60</text>
<rect x="1.7166666666666666666666666666666666666666666666667" y="0.55672747240972891888996035572699024965177327761706" width="0.016393442622950819672131147540983606557377049180328" height="0.016393442622950819672131147540983606557377049180328" fill="rgb(51,102,204)" />
<text x="1.7248633879781420765027322404371584699453551912568" y="0.56492419372120432872602592949748205293046180220722" font-size="0.010928961748633879781420765027322404371584699453552" text-anchor="middle" dominant-baseline="central" fill="rgb(255,255,255)">61</text>
<rect x="1.7330601092896174863387978142076502732240437158470" y="0.55699188277461522243305924520345772717689226228126" width="0.016129032258064516129032258064516129032258064516129" height="0.016129032258064516129032258064516129032258064516129" fill="rgb(220,57,18)" />
<text x="1.7411246254186497444033139432399083377401727481051" y="0.56505639890364748049757537423571579169302129453932" font-size="0.010752688172043010752688172043010752688172043010753" text-anchor="middle" dominant-baseline="central" fill="rgb(255,255,255)">62</text>
<rect x="1.8166666666666666666666666666666666666666666666667" y="0.80079365079365079365079365079365079365079365079365" width="0.015873015873015873015873015873015873015873015873016" height="0.015873015873015873015873015873015873015873015873016" fill="rgb(255,153,0)" />
<text x="1.8246031746031746031746031746031746031746031746032" y="0.80873015873015873015873015873015873015873015873016" font-size="0.010582010582010582010582010582010582010582010582011" text-anchor="middle" dominant-baseline="central" fill="rgb(0,0,0)">63</text>
<rect x="1.8166666666666666666666666666666666666666666666667" y="0.78516865079365079365079365079365079365079365079365" width="0.015625" height="0.015625" fill="rgb(16,150,24)" />
<text x="1.8244791666666666666666666666666666666666666666667" y="0.79298115079365079365079365079365079365079365079365" font-size="0.010416666666666666666666666666666666666666666666667" text-anchor="middle" dominant-baseline="central" fill="rgb(255,255,255)">64</text>
<rect x="1.8166666666666666666666666666666666666666666666667" y="0.76978403540903540903540903540903540903540903540904" width="0.015384615384615384615384615384615384615384615384615" height="0.015384615384615384615384615384615384615384615384615" fill="rgb(153,0,153)" />
<text x="1.8243589743589743589743589743589743589743589743590" y="0.77747634310134310134310134310134310134310134310134" font-size="0.010256410256410256410256410256410256410256410256410" text-anchor="middle" dominant-baseline="central" fill="rgb(255,255,255)">65</text>
<rect x="1.8166666666666666666666666666666666666666666666667" y="0.75463252025752025752025752025752025752025752025752" width="0.015151515151515151515151515151515151515151515151515" height="0.015151515151515151515151515151515151515151515151515" fill="rgb(0,153,198)" />
<text x="1.8242424242424242424242424242424242424242424242424" y="0.76220827783327783327783327783327783327783327783328" font-size="0.010101010101010101010101010101010101010101010101010" text-anchor="middle" dominant-baseline="central" fill="rgb(255,255,255)">66</text>
<rect x="1.8333333333333333333333333333333333333333333333333" y="0.88507462686567164179104477611940298507462686567164" width="0.014925373134328358208955223880597014925373134328358" height="0.014925373134328358208955223880597014925373134328358" fill="rgb(221,68,119)" />
<text x="1.8407960199004975124378109452736318407960199004975" y="0.89253731343283582089552238805970149253731343283582" font-size="0.0099502487562189054726368159203980099502487562189055" text-anchor="middle" dominant-baseline="central" fill="rgb(255,255,255)">67</text>
<rect x="1.8333333333333333333333333333333333333333333333333" y="0.87036874451273046532045654082528533801580333625988" width="0.014705882352941176470588235294117647058823529411765" height="0.014705882352941176470588235294117647058823529411765" fill="rgb(102,170,0)" />
<text x="1.8406862745098039215686274509803921568627450980392" y="0.87772168568920105355575065847234416154521510096576" font-size="0.0098039215686274509803921568627450980392156862745098" text-anchor="middle" dominant-baseline="central" fill="rgb(0,0,0)">68</text>
<rect x="1.8333333333333333333333333333333333333333333333333" y="0.85587599088954205952335509154992301917522362611495" width="0.014492753623188405797101449275362318840579710144928" height="0.014492753623188405797101449275362318840579710144928" fill="rgb(184,46,46)" />
<text x="1.8405797101449275362318840579710144927536231884058" y="0.86312236770113626242190581618760417859551348118741" font-size="0.0096618357487922705314009661835748792270531400966184" text-anchor="middle" dominant-baseline="central" fill="rgb(255,255,255)">69</text>
<rect x="1.8333333333333333333333333333333333333333333333333" y="0.84159027660382777380906937726420873346093791182924" width="0.014285714285714285714285714285714285714285714285714" height="0.014285714285714285714285714285714285714285714285714" fill="rgb(49,99,149)" />
<text x="1.8404761904761904761904761904761904761904761904762" y="0.84873313374668491666621223440706587631808076897209" font-size="0.0095238095238095238095238095238095238095238095238095" text-anchor="middle" dominant-baseline="central" fill="rgb(255,255,255)">70</text>
<rect x="1.4895833333333333333333333333333333333333333333333" y="0.39284189988415340528016584354612523626608133650387" width="0.014084507042253521126760563380281690140845070422535" height="0.014084507042253521126760563380281690140845070422535" fill="rgb(153,68,153)" />
<text x="1.4966255868544600938967136150234741784037558685446" y="0.39988415340528016584354612523626608133650387171514" font-size="0.0093896713615023474178403755868544600938967136150235" text-anchor="middle" dominant-baseline="central" fill="rgb(255,255,255)">71</text>
<rect x="1.4444444444444444444444444444444444444444444444444" y="0.36111111111111111111111111111111111111111111111111" width="0.013888888888888888888888888888888888888888888888889" height="0.013888888888888888888888888888888888888888888888889" fill="rgb(34,170,153)" />
<text x="1.4513888888888888888888888888888888888888888888889" y="0.36805555555555555555555555555555555555555555555556" font-size="0.0092592592592592592592592592592592592592592592592593" text-anchor="middle" dominant-baseline="central" fill="rgb(255,255,255)">72</text>
<rect x="1.4444444444444444444444444444444444444444444444444" y="0.34741248097412480974124809741248097412480974124810" width="0.013698630136986301369863013698630136986301369863014" height="0.013698630136986301369863013698630136986301369863014" fill="rgb(51,102,204)" />
<text x="1.4512937595129375951293759512937595129375951293760" y="0.35426179604261796042617960426179604261796042617960" font-size="0.0091324200913242009132420091324200913242009132420091" text-anchor="middle" dominant-baseline="central" fill="rgb(255,255,255)">73</text>
<rect x="1.4444444444444444444444444444444444444444444444444" y="0.33389896746061129622773458389896746061129622773458" width="0.013513513513513513513513513513513513513513513513514" height="0.013513513513513513513513513513513513513513513513514" fill="rgb(220,57,18)" />
<text x="1.4512012012012012012012012012012012012012012012012" y="0.34065572421736805298449134065572421736805298449134" font-size="0.0090090090090090090090090090090090090090090090090090" text-anchor="middle" dominant-baseline="central" fill="rgb(255,255,255)">74</text>
<rect x="1.4444444444444444444444444444444444444444444444444" y="0.32056563412727796289440125056563412727796289440125" width="0.013333333333333333333333333333333333333333333333333" height="0.013333333333333333333333333333333333333333333333333" fill="rgb(255,153,0)" />
<text x="1.4511111111111111111111111111111111111111111111111" y="0.32723230079394462956106791723230079394462956106792" font-size="0.0088888888888888888888888888888888888888888888888889" text-anchor="middle" dominant-baseline="central" fill="rgb(0,0,0)">75</text>
<rect x="1.4444444444444444444444444444444444444444444444444" y="0.30740773939043585763124335582879202201480499966441" width="0.013157894736842105263157894736842105263157894736842" height="0.013157894736842105263157894736842105263157894736842" fill="rgb(16,150,24)" />
<text x="1.4510233918128654970760233918128654970760233918129" y="0.31398668675885691026282230319721307464638394703283" font-size="0.0087719298245614035087719298245614035087719298245614" text-anchor="middle" dominant-baseline="central" fill="rgb(255,255,255)">76</text>
<rect x="1.4444444444444444444444444444444444444444444444444" y="0.29442072640342287061825634284177903500181798667740" width="0.012987012987012987012987012987012987012987012987013" height="0.012987012987012987012987012987012987012987012987013" fill="rgb(153,0,153)" />
<text x="1.4509379509379509379509379509379509379509379509380" y="0.30091423289692936412474984933528552850831149317090" font-size="0.0086580086580086580086580086580086580086580086580087" text-anchor="middle" dominant-baseline="central" fill="rgb(255,255,255)">77</text>
<rect x="1.4444444444444444444444444444444444444444444444444" y="0.28160021358291005010543583002126621448899747385688" width="0.012820512820512820512820512820512820512820512820513" height="0.012820512820512820512820512820512820512820512820513" fill="rgb(0,153,198)" />
<text x="1.4508547008547008547008547008547008547008547008547" y="0.28801046999316646036184608643152262474540773026714" font-size="0.0085470085470085470085470085470085470085470085470085" text-anchor="middle" dominant-baseline="central" fill="rgb(255,255,255)">78</text>
<rect x="1.4444444444444444444444444444444444444444444444444" y="0.26894198573480878428265101989468393600798481562903" width="0.012658227848101265822784810126582278481012658227848" height="0.012658227848101265822784810126582278481012658227848" fill="rgb(221,68,119)" />
<text x="1.4507735583684950773558368495077355836849507735584" y="0.27527109965885941719404342495797507524849114474296" font-size="0.0084388185654008438818565400843881856540084388185654" text-anchor="middle" dominant-baseline="central" fill="rgb(255,255,255)">79</text>
<rect x="1.4583333333333333333333333333333333333333333333333" y="0.36317640692640692640692640692640692640692640692641" width="0.0125" height="0.0125" fill="rgb(102,170,0)" />
<text x="1.4645833333333333333333333333333333333333333333333" y="0.36942640692640692640692640692640692640692640692641" font-size="0.0083333333333333333333333333333333333333333333333333" text-anchor="middle" dominant-baseline="central" fill="rgb(0,0,0)">80</text>
<rect x="1.4708333333333333333333333333333333333333333333333" y="0.36333072791406124739458072791406124739458072791406" width="0.012345679012345679012345679012345679012345679012346" height="0.012345679012345679012345679012345679012345679012346" fill="rgb(184,46,46)" />
<text x="1.4770061728395061728395061728395061728395061728395" y="0.36950356742023408690075356742023408690075356742023" font-size="0.0082304526748971193415637860082304526748971193415638" text-anchor="middle" dominant-baseline="central" fill="rgb(255,255,255)">81</text>
<rect x="1.4895833333333333333333333333333333333333333333333" y="0.38064677793293389308504389232661304114413011699168" width="0.012195121951219512195121951219512195121951219512195" height="0.012195121951219512195121951219512195121951219512195" fill="rgb(49,99,149)" />
<text x="1.4956808943089430894308943089430894308943089430894" y="0.38674433890854364918260486793636913870510572674777" font-size="0.0081300813008130081300813008130081300813008130081301" text-anchor="middle" dominant-baseline="central" fill="rgb(255,255,255)">82</text>
<rect x="1.8333333333333333333333333333333333333333333333333" y="0.82954208383274343645967178690276295032840779134731" width="0.012048192771084337349397590361445783132530120481928" height="0.012048192771084337349397590361445783132530120481928" fill="rgb(153,68,153)" />
<text x="1.8393574297188755020080321285140562248995983935743" y="0.83556618021828560513437058208348584189467285158827" font-size="0.0080321285140562248995983935742971887550200803212851" text-anchor="middle" dominant-baseline="central" fill="rgb(255,255,255)">83</text>
<rect x="1.8333333333333333333333333333333333333333333333333" y="0.81763732192798153169776702499800104556650302944255" width="0.011904761904761904761904761904761904761904761904762" height="0.011904761904761904761904761904761904761904761904762" fill="rgb(34,170,153)" />
<text x="1.8392857142857142857142857142857142857142857142857" y="0.82358970288036248407871940595038199794745541039493" font-size="0.0079365079365079365079365079365079365079365079365079" text-anchor="middle" dominant-baseline="central" fill="rgb(255,255,255)">84</text>
<rect x="1.85" y="0.91131221719457013574660633484162895927601809954751" width="0.011764705882352941176470588235294117647058823529412" height="0.011764705882352941176470588235294117647058823529412" fill="rgb(51,102,204)" />
<text x="1.8558823529411764705882352941176470588235294117647" y="0.91719457013574660633484162895927601809954751131222" font-size="0.0078431372549019607843137254901960784313725490196078" text-anchor="middle" dominant-baseline="central" fill="rgb(255,255,255)">85</text>
<rect x="1.8617647058823529411764705882352941176470588235294" y="0.91144901610017889087656529516994633273703041144902" width="0.011627906976744186046511627906976744186046511627907" height="0.011627906976744186046511627906976744186046511627907" fill="rgb(220,57,18)" />
<text x="1.8675786593707250341997264021887824897400820793434" y="0.91726296958855098389982110912343470483005366726297" font-size="0.0077519379844961240310077519379844961240310077519380" text-anchor="middle" dominant-baseline="central" fill="rgb(255,255,255)">86</text>
<rect x="1.8733926128590971272229822161422708618331053351573" y="0.91158267020335985853227232537577365163572060123784" width="0.011494252873563218390804597701149425287356321839080" height="0.011494252873563218390804597701149425287356321839080" fill="rgb(255,153,0)" />
<text x="1.8791397392958787364183845149928455744767834960769" y="0.91732979664014146772767462422634836427939876215738" font-size="0.0076628352490421455938697318007662835249042145593870" text-anchor="middle" dominant-baseline="central" fill="rgb(0,0,0)">87</text>
<rect x="1.8848868657326603456137868138434202871204616569964" y="0.91171328671328671328671328671328671328671328671329" width="0.011363636363636363636363636363636363636363636363636" height="0.011363636363636363636363636363636363636363636363636" fill="rgb(16,150,24)" />
<text x="1.8905686839144785274319686320252384689386434751782" y="0.91739510489510489510489510489510489510489510489510" font-size="0.0075757575757575757575757575757575757575757575757576" text-anchor="middle" dominant-baseline="central" fill="rgb(255,255,255)">88</text>
<rect x="1.85" y="0.90007626213839036046570745843713457725354618943515" width="0.011235955056179775280898876404494382022471910112360" height="0.011235955056179775280898876404494382022471910112360" fill="rgb(153,0,153)" />
<text x="1.8556179775280898876404494382022471910112359550562" y="0.90569423966648024810615689663938176826478214449133" font-size="0.0074906367041198501872659176029962546816479400749064" text-anchor="middle" dominant-baseline="central" fill="rgb(255,255,255)">89</text>
<rect x="1.8962505020962967092501504502070566507568252933600" y="0.91196581196581196581196581196581196581196581196581" width="0.011111111111111111111111111111111111111111111111111" height="0.011111111111111111111111111111111111111111111111111" fill="rgb(0,153,198)" />
<text x="1.9018060576518522648057060057626122063123808489156" y="0.91752136752136752136752136752136752136752136752137" font-size="0.0074074074074074074074074074074074074074074074074074" text-anchor="middle" dominant-baseline="central" fill="rgb(255,255,255)">90</text>
<rect x="1.9073616132074078203612615613181677618679364044711" y="0.91208791208791208791208791208791208791208791208791" width="0.010989010989010989010989010989010989010989010989011" height="0.010989010989010989010989010989010989010989010989011" fill="rgb(221,68,119)" />
<text x="1.9128561187019133148667560668126732563734309099657" y="0.91758241758241758241758241758241758241758241758242" font-size="0.0073260073260073260073260073260073260073260073260073" text-anchor="middle" dominant-baseline="central" fill="rgb(255,255,255)">91</text>
<rect x="2.3528701169362023456074612615684495579572265834708" y="0.98913043478260869565217391304347826086956521739130" width="0.010869565217391304347826086956521739130434782608696" height="0.010869565217391304347826086956521739130434782608696" fill="rgb(102,170,0)" />
<text x="2.3583048995448979977813743050467104275224439747752" y="0.99456521739130434782608695652173913043478260869565" font-size="0.0072463768115942028985507246376811594202898550724638" text-anchor="middle" dominant-baseline="central" fill="rgb(0,0,0)">92</text>
<rect x="2.3528701169362023456074612615684495579572265834708" y="0.97837774661056568489948574100046750818139317438055" width="0.010752688172043010752688172043010752688172043010753" height="0.010752688172043010752688172043010752688172043010753" fill="rgb(184,46,46)" />
<text x="2.3582464610222238509838053475899549343013126049762" y="0.98375409069658719027582982702197288452547919588593" font-size="0.0071684587813620071684587813620071684587813620071685" text-anchor="middle" dominant-baseline="central" fill="rgb(255,255,255)">93</text>
<rect x="2.3637396821535936499552873485249712970876613660795" y="0.98936170212765957446808510638297872340425531914894" width="0.010638297872340425531914893617021276595744680851064" height="0.010638297872340425531914893617021276595744680851064" fill="rgb(49,99,149)" />
<text x="2.3690588310897638627212447953334819353855337065051" y="0.99468085106382978723404255319148936170212765957447" font-size="0.0070921985815602836879432624113475177304964539007092" text-anchor="middle" dominant-baseline="central" fill="rgb(255,255,255)">94</text>
<rect x="2.3743779800259340754872022421419925736834060469306" y="0.98947368421052631578947368421052631578947368421053" width="0.010526315789473684210526315789473684210526315789474" height="0.010526315789473684210526315789473684210526315789474" fill="rgb(153,68,153)" />
<text x="2.3796411379206709175924654000367294157886692048253" y="0.99473684210526315789473684210526315789473684210526" font-size="0.0070175438596491228070175438596491228070175438596491" text-anchor="middle" dominant-baseline="central" fill="rgb(255,255,255)">95</text>
<rect x="2.3849042958154077596977285579314662578939323627201" y="0.98958333333333333333333333333333333333333333333333" width="0.010416666666666666666666666666666666666666666666667" height="0.010416666666666666666666666666666666666666666666667" fill="rgb(34,170,153)" />
<text x="2.3901126291487410930310618912647995912272656960534" y="0.99479166666666666666666666666666666666666666666667" font-size="0.0069444444444444444444444444444444444444444444444444" text-anchor="middle" dominant-baseline="central" fill="rgb(255,255,255)">96</text>
<rect x="2.3953209624820744263643952245981329245605990293867" y="0.98969072164948453608247422680412371134020618556701" width="0.010309278350515463917525773195876288659793814432990" height="0.010309278350515463917525773195876288659793814432990" fill="rgb(51,102,204)" />
<text x="2.4004756016573321583231581111960710688904959366032" y="0.99484536082474226804123711340206185567010309278351" font-size="0.0068728522336769759450171821305841924398625429553265" text-anchor="middle" dominant-baseline="central" fill="rgb(255,255,255)">97</text>
<rect x="2.4056302408325898902819209977940092132203928438197" y="0.98979591836734693877551020408163265306122448979592" width="0.010204081632653061224489795918367346938775510204082" height="0.010204081632653061224489795918367346938775510204082" fill="rgb(220,57,18)" />
<text x="2.4107322816489164208941658957531928866897805989218" y="0.99489795918367346938775510204081632653061224489796" font-size="0.0068027210884353741496598639455782312925170068027211" text-anchor="middle" dominant-baseline="central" fill="rgb(255,255,255)">98</text>
<rect x="2.4158343224652429515064107937123765601591683540238" y="0.98989898989898989898989898989898989898989898989899" width="0.010101010101010101010101010101010101010101010101010" height="0.010101010101010101010101010101010101010101010101010" fill="rgb(255,153,0)" />
<text x="2.4208848275157480020114612987628816106642188590743" y="0.99494949494949494949494949494949494949494949494949" font-size="0.0067340067340067340067340067340067340067340067340067" text-anchor="middle" dominant-baseline="central" fill="rgb(0,0,0)">99</text>
<rect x="2.4259353325662530525165118038133866611692693641248" y="0.99" width="0.01" height="0.01" fill="rgb(16,150,24)" />
<text x="2.4309353325662530525165118038133866611692693641248" y="0.995" font-size="0.0044444444444444444444444444444444444444444444444444" text-anchor="middle" dominant-baseline="central" fill="rgb(255,255,255)">100</text>
</svg>
