<svg xmlns="http://www.w3.org/2000/svg" viewBox="0 0 2.5605828223374184396839448872677863325228826022836 1">
<rect width="100%" height="100%" fill="black" />
<rect x="0" y="0" width="1" height="1" fill="rgb(51,102,204)" />
<text x="0.5" y="0.5" font-size="0.8" text-anchor="middle" dominant-baseline="central" fill="rgb(255,255,255)">1</text>
<rect x="1" y="0.5" width="0.5" height="0.5" fill="rgb(220,57,18)" />
<text x="1.25" y="0.75" font-size="0.4" text-anchor="middle" dominant-baseline="central" fill="rgb(255,255,255)">2</text>
<rect x="1" y="0.16666666666666666666666666666666666666666666666667" width="0.33333333333333333333333333333333333333333333333333" height="0.33333333333333333333333333333333333333333333333333" fill="rgb(51,102,204)" />
<text x="1.1666666666666666666666666666666666666666666666667" y="0.33333333333333333333333333333333333333333333333333" font-size="0.26666666666666666666666666666666666666666666666667" text-anchor="middle" dominant-baseline="central" fill="rgb(255,255,255)">3</text>
<rect x="1.5" y="0.75" width="0.25" height="0.25" fill="rgb(220,57,18)" />
<text x="1.625" y="0.875" font-size="0.2" text-anchor="middle" dominant-baseline="central" fill="rgb(255,255,255)">4</text>
<rect x="1.5" y="0.55" width="0.2" height="0.2" fill="rgb(51,102,204)" />
<text x="1.6" y="0.65" font-size="0.16" text-anchor="middle" dominant-baseline="central" fill="rgb(255,255,255)">5</text>
<rect x="1" y="0" width="0.16666666666666666666666666666666666666666666666667" height="0.16666666666666666666666666666666666666666666666667" fill="rgb(220,57,18)" />
<text x="1.0833333333333333333333333333333333333333333333333" y="0.083333333333333333333333333333333333333333333333333" font-size="0.13333333333333333333333333333333333333333333333333" text-anchor="middle" dominant-baseline="central" fill="rgb(255,255,255)">6</text>
<rect x="1.1666666666666666666666666666666666666666666666667" y="0.023809523809523809523809523809523809523809523809524" width="0.14285714285714285714285714285714285714285714285714" height="0.14285714285714285714285714285714285714285714285714" fill="rgb(51,102,204)" />
<text x="1.2380952380952380952380952380952380952380952380952" y="0.095238095238095238095238095238095238095238095238095" font-size="0.11428571428571428571428571428571428571428571428571" text-anchor="middle" dominant-baseline="central" fill="rgb(255,255,255)">7</text>
<rect x="1.3333333333333333333333333333333333333333333333333" y="0.375" width="0.125" height="0.125" fill="rgb(220,57,18)" />
<text x="1.3958333333333333333333333333333333333333333333333" y="0.4375" font-size="0.1" text-anchor="middle" dominant-baseline="central" fill="rgb(255,255,255)">8</text>
<rect x="1.3333333333333333333333333333333333333333333333333" y="0.26388888888888888888888888888888888888888888888889" width="0.11111111111111111111111111111111111111111111111111" height="0.11111111111111111111111111111111111111111111111111" fill="rgb(51,102,204)" />
<text x="1.3888888888888888888888888888888888888888888888889" y="0.31944444444444444444444444444444444444444444444444" font-size="0.088888888888888888888888888888888888888888888888889" text-anchor="middle" dominant-baseline="central" fill="rgb(255,255,255)">9</text>
<rect x="1.75" y="0.9" width="0.1" height="0.1" fill="rgb(220,57,18)" />
<text x="1.8" y="0.95" font-size="0.066666666666666666666666666666666666666666666666667" text-anchor="middle" dominant-baseline="central" fill="rgb(255,255,255)">10</text>
<rect x="1.3333333333333333333333333333333333333333333333333" y="0.17297979797979797979797979797979797979797979797980" width="0.090909090909090909090909090909090909090909090909091" height="0.090909090909090909090909090909090909090909090909091" fill="rgb(51,102,204)" />
<text x="1.3787878787878787878787878787878787878787878787879" y="0.21843434343434343434343434343434343434343434343434" font-size="0.060606060606060606060606060606060606060606060606061" text-anchor="middle" dominant-baseline="central" fill="rgb(255,255,255)">11</text>
<rect x="1.75" y="0.81666666666666666666666666666666666666666666666667" width="0.083333333333333333333333333333333333333333333333333" height="0.083333333333333333333333333333333333333333333333333" fill="rgb(220,57,18)" />
<text x="1.7916666666666666666666666666666666666666666666667" y="0.85833333333333333333333333333333333333333333333333" font-size="0.055555555555555555555555555555555555555555555555556" text-anchor="middle" dominant-baseline="central" fill="rgb(255,255,255)">12</text>
<rect x="1.85" y="0.92307692307692307692307692307692307692307692307692" width="0.076923076923076923076923076923076923076923076923077" height="0.076923076923076923076923076923076923076923076923077" fill="rgb(51,102,204)" />
<text x="1.8884615384615384615384615384615384615384615384615" y="0.96153846153846153846153846153846153846153846153846" font-size="0.051282051282051282051282051282051282051282051282051" text-anchor="middle" dominant-baseline="central" fill="rgb(255,255,255)">13</text>
<rect x="1.9269230769230769230769230769230769230769230769231" y="0.92857142857142857142857142857142857142857142857143" width="0.071428571428571428571428571428571428571428571428571" height="0.071428571428571428571428571428571428571428571428571" fill="rgb(220,57,18)" />
<text x="1.9626373626373626373626373626373626373626373626374" y="0.96428571428571428571428571428571428571428571428571" font-size="0.047619047619047619047619047619047619047619047619048" text-anchor="middle" dominant-baseline="central" fill="rgb(255,255,255)">14</text>
<rect x="1.75" y="0.75" width="0.066666666666666666666666666666666666666666666666667" height="0.066666666666666666666666666666666666666666666666667" fill="rgb(51,102,204)" />
<text x="1.7833333333333333333333333333333333333333333333333" y="0.78333333333333333333333333333333333333333333333333" font-size="0.044444444444444444444444444444444444444444444444444" text-anchor="middle" dominant-baseline="central" fill="rgb(255,255,255)">15</text>
<rect x="1.9983516483516483516483516483516483516483516483516" y="0.9375" width="0.0625" height="0.0625" fill="rgb(220,57,18)" />
<text x="2.0296016483516483516483516483516483516483516483516" y="0.96875" font-size="0.041666666666666666666666666666666666666666666666667" text-anchor="middle" dominant-baseline="central" fill="rgb(255,255,255)">16</text>
<rect x="2.0608516483516483516483516483516483516483516483516" y="0.94117647058823529411764705882352941176470588235294" width="0.058823529411764705882352941176470588235294117647059" height="0.058823529411764705882352941176470588235294117647059" fill="rgb(51,102,204)" />
<text x="2.0902634130575307045895281189398836457659987071752" y="0.97058823529411764705882352941176470588235294117647" font-size="0.039215686274509803921568627450980392156862745098039" text-anchor="middle" dominant-baseline="central" fill="rgb(255,255,255)">17</text>
<rect x="2.1196751777634130575307045895281189398836457659987" y="0.94444444444444444444444444444444444444444444444444" width="0.055555555555555555555555555555555555555555555555556" height="0.055555555555555555555555555555555555555555555555556" fill="rgb(220,57,18)" />
<text x="2.1474529555411908353084823673058967176614235437765" y="0.97222222222222222222222222222222222222222222222222" font-size="0.037037037037037037037037037037037037037037037037037" text-anchor="middle" dominant-baseline="central" fill="rgb(255,255,255)">18</text>
<rect x="2.1752307333189686130862601450836744954392013215543" y="0.94736842105263157894736842105263157894736842105263" width="0.052631578947368421052631578947368421052631578947368" height="0.052631578947368421052631578947368421052631578947368" fill="rgb(51,102,204)" />
<text x="2.2015465227926528236125759345573587059655171110279" y="0.97368421052631578947368421052631578947368421052632" font-size="0.035087719298245614035087719298245614035087719298246" text-anchor="middle" dominant-baseline="central" fill="rgb(255,255,255)">19</text>
<rect x="1.5" y="0.5" width="0.05" height="0.05" fill="rgb(220,57,18)" />
<text x="1.525" y="0.525" font-size="0.033333333333333333333333333333333333333333333333333" text-anchor="middle" dominant-baseline="central" fill="rgb(255,255,255)">20</text>
<rect x="1.55" y="0.50238095238095238095238095238095238095238095238095" width="0.047619047619047619047619047619047619047619047619048" height="0.047619047619047619047619047619047619047619047619048" fill="rgb(51,102,204)" />
<text x="1.5738095238095238095238095238095238095238095238095" y="0.52619047619047619047619047619047619047619047619048" font-size="0.031746031746031746031746031746031746031746031746032" text-anchor="middle" dominant-baseline="central" fill="rgb(255,255,255)">21</text>
<rect x="1.5976190476190476190476190476190476190476190476190" y="0.50454545454545454545454545454545454545454545454545" width="0.045454545454545454545454545454545454545454545454545" height="0.045454545454545454545454545454545454545454545454545" fill="rgb(220,57,18)" />
<text x="1.6203463203463203463203463203463203463203463203463" y="0.52727272727272727272727272727272727272727272727273" font-size="0.030303030303030303030303030303030303030303030303030" text-anchor="middle" dominant-baseline="central" fill="rgb(255,255,255)">22</text>
<rect x="1.6430735930735930735930735930735930735930735930736" y="0.50652173913043478260869565217391304347826086956522" width="0.043478260869565217391304347826086956521739130434783" height="0.043478260869565217391304347826086956521739130434783" fill="rgb(51,102,204)" />
<text x="1.6648127235083756822887257669866365518539431582910" y="0.52826086956521739130434782608695652173913043478261" font-size="0.028985507246376811594202898550724637681159420289855" text-anchor="middle" dominant-baseline="central" fill="rgb(255,255,255)">23</text>
<rect x="1.4583333333333333333333333333333333333333333333333" y="0.45833333333333333333333333333333333333333333333333" width="0.041666666666666666666666666666666666666666666666667" height="0.041666666666666666666666666666666666666666666666667" fill="rgb(220,57,18)" />
<text x="1.4791666666666666666666666666666666666666666666667" y="0.47916666666666666666666666666666666666666666666667" font-size="0.027777777777777777777777777777777777777777777777778" text-anchor="middle" dominant-baseline="central" fill="rgb(255,255,255)">24</text>
<rect x="1.4583333333333333333333333333333333333333333333333" y="0.41833333333333333333333333333333333333333333333333" width="0.04" height="0.04" fill="rgb(51,102,204)" />
<text x="1.4783333333333333333333333333333333333333333333333" y="0.43833333333333333333333333333333333333333333333333" font-size="0.026666666666666666666666666666666666666666666666667" text-anchor="middle" dominant-baseline="central" fill="rgb(255,255,255)">25</text>
<rect x="1.4583333333333333333333333333333333333333333333333" y="0.37987179487179487179487179487179487179487179487179" width="0.038461538461538461538461538461538461538461538461538" height="0.038461538461538461538461538461538461538461538461538" fill="rgb(220,57,18)" />
<text x="1.4775641025641025641025641025641025641025641025641" y="0.39910256410256410256410256410256410256410256410256" font-size="0.025641025641025641025641025641025641025641025641026" text-anchor="middle" dominant-baseline="central" fill="rgb(255,255,255)">26</text>
<rect x="1.7" y="0.71296296296296296296296296296296296296296296296296" width="0.037037037037037037037037037037037037037037037037037" height="0.037037037037037037037037037037037037037037037037037" fill="rgb(51,102,204)" />
<text x="1.7185185185185185185185185185185185185185185185185" y="0.73148148148148148148148148148148148148148148148148" font-size="0.024691358024691358024691358024691358024691358024691" text-anchor="middle" dominant-baseline="central" fill="rgb(255,255,255)">27</text>
<rect x="1.7" y="0.67724867724867724867724867724867724867724867724868" width="0.035714285714285714285714285714285714285714285714286" height="0.035714285714285714285714285714285714285714285714286" fill="rgb(220,57,18)" />
<text x="1.7178571428571428571428571428571428571428571428571" y="0.69510582010582010582010582010582010582010582010582" font-size="0.023809523809523809523809523809523809523809523809524" text-anchor="middle" dominant-baseline="central" fill="rgb(255,255,255)">28</text>
<rect x="1.7" y="0.64276591862798759350483488414522897281517971173144" width="0.034482758620689655172413793103448275862068965517241" height="0.034482758620689655172413793103448275862068965517241" fill="rgb(51,102,204)" />
<text x="1.7172413793103448275862068965517241379310344827586" y="0.66000729793833242109104178069695311074621419449006" font-size="0.022988505747126436781609195402298850574712643678161" text-anchor="middle" dominant-baseline="central" fill="rgb(255,255,255)">29</text>
<rect x="1.7" y="0.60943258529465426017150155081189563948184637839810" width="0.033333333333333333333333333333333333333333333333333" height="0.033333333333333333333333333333333333333333333333333" fill="rgb(220,57,18)" />
<text x="1.7166666666666666666666666666666666666666666666667" y="0.62609925196132092683816821747856230614851304506477" font-size="0.022222222222222222222222222222222222222222222222222" text-anchor="middle" dominant-baseline="central" fill="rgb(255,255,255)">30</text>
<rect x="1.7" y="0.57717452077852522791343703468286338141733024936584" width="0.032258064516129032258064516129032258064516129032258" height="0.032258064516129032258064516129032258064516129032258" fill="rgb(51,102,204)" />
<text x="1.7161290322580645161290322580645161290322580645161" y="0.59330355303658974404246929274737951044958831388197" font-size="0.021505376344086021505376344086021505376344086021505" text-anchor="middle" dominant-baseline="central" fill="rgb(255,255,255)">31</text>
<rect x="2.2278623122663370341388917240310429164918329005016" y="0.96875" width="0.03125" height="0.03125" fill="rgb(220,57,18)" />
<text x="2.2434873122663370341388917240310429164918329005016" y="0.984375" font-size="0.020833333333333333333333333333333333333333333333333" text-anchor="middle" dominant-baseline="central" fill="rgb(255,255,255)">32</text>
<rect x="2.2591123122663370341388917240310429164918329005016" y="0.96969696969696969696969696969696969696969696969697" width="0.030303030303030303030303030303030303030303030303030" height="0.030303030303030303030303030303030303030303030303030" fill="rgb(51,102,204)" />
<text x="2.2742638274178521856540432391825580680069844156531" y="0.98484848484848484848484848484848484848484848484848" font-size="0.020202020202020202020202020202020202020202020202020" text-anchor="middle" dominant-baseline="central" fill="rgb(255,255,255)">33</text>
<rect x="2.2894153425693673371691947543340732195221359308047" y="0.97058823529411764705882352941176470588235294117647" width="0.029411764705882352941176470588235294117647058823529" height="0.029411764705882352941176470588235294117647058823529" fill="rgb(220,57,18)" />
<text x="2.3041212249223085136397829896281908665809594602164" y="0.98529411764705882352941176470588235294117647058824" font-size="0.019607843137254901960784313725490196078431372549020" text-anchor="middle" dominant-baseline="central" fill="rgb(255,255,255)">34</text>
<rect x="2.3188271072752496901103712249223085136397829896282" y="0.97142857142857142857142857142857142857142857142857" width="0.028571428571428571428571428571428571428571428571429" height="0.028571428571428571428571428571428571428571428571429" fill="rgb(51,102,204)" />
<text x="2.3331128215609639758246569392080227993540687039139" y="0.98571428571428571428571428571428571428571428571429" font-size="0.019047619047619047619047619047619047619047619047619" text-anchor="middle" dominant-baseline="central" fill="rgb(255,255,255)">35</text>
<rect x="2.3473985358466782615389426534937370850683544181996" y="0.97222222222222222222222222222222222222222222222222" width="0.027777777777777777777777777777777777777777777777778" height="0.027777777777777777777777777777777777777777777777778" fill="rgb(220,57,18)" />
<text x="2.3612874247355671504278315423826259739572433070885" y="0.98611111111111111111111111111111111111111111111111" font-size="0.018518518518518518518518518518518518518518518518519" text-anchor="middle" dominant-baseline="central" fill="rgb(255,255,255)">36</text>
<rect x="1.7" y="0.55014749375149820088641000765583635439030322233882" width="0.027027027027027027027027027027027027027027027027027" height="0.027027027027027027027027027027027027027027027027027" fill="rgb(51,102,204)" />
<text x="1.7135135135135135135135135135135135135135135135135" y="0.56366100726501171439992352116934986790381673585233" font-size="0.018018018018018018018018018018018018018018018018018" text-anchor="middle" dominant-baseline="central" fill="rgb(255,255,255)">37</text>
<rect x="2.3751763136244560393167204312715148628461321959774" y="0.97368421052631578947368421052631578947368421052632" width="0.026315789473684210526315789473684210526315789473684" height="0.026315789473684210526315789473684210526315789473684" fill="rgb(220,57,18)" />
<text x="2.3883342083612981445798783260083569681092900907142" y="0.98684210526315789473684210526315789473684210526316" font-size="0.017543859649122807017543859649122807017543859649123" text-anchor="middle" dominant-baseline="central" fill="rgb(255,255,255)">38</text>
<rect x="2.4014921030981402498430362207451990733724479854511" y="0.97435897435897435897435897435897435897435897435897" width="0.025641025641025641025641025641025641025641025641026" height="0.025641025641025641025641025641025641025641025641026" fill="rgb(51,102,204)" />
<text x="2.4143126159186530703558567335657118938852684982716" y="0.98717948717948717948717948717948717948717948717949" font-size="0.017094017094017094017094017094017094017094017094017" text-anchor="middle" dominant-baseline="central" fill="rgb(255,255,255)">39</text>
<rect x="2.4271331287391658908686772463862247143980890110921" y="0.975" width="0.025" height="0.025" fill="rgb(220,57,18)" />
<text x="2.4396331287391658908686772463862247143980890110921" y="0.9875" font-size="0.016666666666666666666666666666666666666666666666667" text-anchor="middle" dominant-baseline="central" fill="rgb(255,255,255)">40</text>
<rect x="2.4521331287391658908686772463862247143980890110921" y="0.97560975609756097560975609756097560975609756097561" width="0.024390243902439024390243902439024390243902439024390" height="0.024390243902439024390243902439024390243902439024390" fill="rgb(51,102,204)" />
<text x="2.4643282506903854030637991976057369095200402306043" y="0.98780487804878048780487804878048780487804878048780" font-size="0.016260162601626016260162601626016260162601626016260" text-anchor="middle" dominant-baseline="central" fill="rgb(255,255,255)">41</text>
<rect x="1.1666666666666666666666666666666666666666666666667" y="0" width="0.023809523809523809523809523809523809523809523809524" height="0.023809523809523809523809523809523809523809523809524" fill="rgb(220,57,18)" />
<text x="1.1785714285714285714285714285714285714285714285714" y="0.011904761904761904761904761904761904761904761904762" font-size="0.015873015873015873015873015873015873015873015873016" text-anchor="middle" dominant-baseline="central" fill="rgb(255,255,255)">42</text>
<rect x="1.1904761904761904761904761904761904761904761904762" y="0.00055370985603543743078626799557032115171650055370986" width="0.023255813953488372093023255813953488372093023255814" height="0.023255813953488372093023255813953488372093023255814" fill="rgb(51,102,204)" />
<text x="1.2021040974529346622369878183831672203765227021041" y="0.012181616832779623477297895902547065337763012181617" font-size="0.015503875968992248062015503875968992248062015503876" text-anchor="middle" dominant-baseline="central" fill="rgb(255,255,255)">43</text>
<rect x="1.2137320044296788482834994462901439645625692137320" y="0.0010822510822510822510822510822510822510822510822511" width="0.022727272727272727272727272727272727272727272727273" height="0.022727272727272727272727272727272727272727272727273" fill="rgb(220,57,18)" />
<text x="1.2250956407933152119198630826537803281989328500956" y="0.012445887445887445887445887445887445887445887445887" font-size="0.015151515151515151515151515151515151515151515151515" text-anchor="middle" dominant-baseline="central" fill="rgb(255,255,255)">44</text>
<rect x="1.2364592771569515755562267190174166918352964864593" y="0.0015873015873015873015873015873015873015873015873016" width="0.022222222222222222222222222222222222222222222222222" height="0.022222222222222222222222222222222222222222222222222" fill="rgb(51,102,204)" />
<text x="1.2475703882680626866673378301285278029464075975704" y="0.012698412698412698412698412698412698412698412698413" font-size="0.014814814814814814814814814814814814814814814814815" text-anchor="middle" dominant-baseline="central" fill="rgb(255,255,255)">45</text>
<rect x="1.2586814993791737977784489412396389140575187086815" y="0.0020703933747412008281573498964803312629399585921325" width="0.021739130434782608695652173913043478260869565217391" height="0.021739130434782608695652173913043478260869565217391" fill="rgb(220,57,18)" />
<text x="1.2695510645965651021262750281961606531879534912902" y="0.012939958592132505175983436853002070393374741200828" font-size="0.014492753623188405797101449275362318840579710144928" text-anchor="middle" dominant-baseline="central" fill="rgb(255,255,255)">46</text>
<rect x="1.2804206298139564064741011151526823923183882738989" y="0.0025329280648429584599797365754812563323201621073961" width="0.021276595744680851063829787234042553191489361702128" height="0.021276595744680851063829787234042553191489361702128" fill="rgb(51,102,204)" />
<text x="1.2910589276862968320060160087697036689141329547500" y="0.013171225937183383991894630192502532928064842958460" font-size="0.014184397163120567375886524822695035460992907801418" text-anchor="middle" dominant-baseline="central" fill="rgb(255,255,255)">47</text>
<rect x="1.3095238095238095238095238095238095238095238095238" y="0.14583333333333333333333333333333333333333333333333" width="0.020833333333333333333333333333333333333333333333333" height="0.020833333333333333333333333333333333333333333333333" fill="rgb(220,57,18)" />
<text x="1.3199404761904761904761904761904761904761904761905" y="0.15625" font-size="0.013888888888888888888888888888888888888888888888889" text-anchor="middle" dominant-baseline="central" fill="rgb(255,255,255)">48</text>
<rect x="1.3095238095238095238095238095238095238095238095238" y="0.12542517006802721088435374149659863945578231292517" width="0.020408163265306122448979591836734693877551020408163" height="0.020408163265306122448979591836734693877551020408163" fill="rgb(51,102,204)" />
<text x="1.3197278911564625850340136054421768707482993197279" y="0.13562925170068027210884353741496598639455782312925" font-size="0.013605442176870748299319727891156462585034013605442" text-anchor="middle" dominant-baseline="central" fill="rgb(255,255,255)">49</text>
<rect x="1.3095238095238095238095238095238095238095238095238" y="0.10542517006802721088435374149659863945578231292517" width="0.02" height="0.02" fill="rgb(220,57,18)" />
<text x="1.3195238095238095238095238095238095238095238095238" y="0.11542517006802721088435374149659863945578231292517" font-size="0.013333333333333333333333333333333333333333333333333" text-anchor="middle" dominant-baseline="central" fill="rgb(255,255,255)">50</text>
<rect x="1.3095238095238095238095238095238095238095238095238" y="0.085817326930772308923569427771108443377350940376150" width="0.019607843137254901960784313725490196078431372549020" height="0.019607843137254901960784313725490196078431372549020" fill="rgb(51,102,204)" />
<text x="1.3193277310924369747899159663865546218487394957983" y="0.095621248499399759903961584633853541416566626650660" font-size="0.013071895424836601307189542483660130718954248366013" text-anchor="middle" dominant-baseline="central" fill="rgb(255,255,255)">51</text>
<rect x="1.3095238095238095238095238095238095238095238095238" y="0.066586557700003078154338658540339212608120171145381" width="0.019230769230769230769230769230769230769230769230769" height="0.019230769230769230769230769230769230769230769230769" fill="rgb(220,57,18)" />
<text x="1.3191391941391941391941391941391941391941391941392" y="0.076201942315387693538954043155723827992735555760766" font-size="0.012820512820512820512820512820512820512820512820513" text-anchor="middle" dominant-baseline="central" fill="rgb(255,255,255)">52</text>
<rect x="1.3095238095238095238095238095238095238095238095238" y="0.047718633171701191361885828351659967325101303220853" width="0.018867924528301886792452830188679245283018867924528" height="0.018867924528301886792452830188679245283018867924528" fill="rgb(51,102,204)" />
<text x="1.3189577717879604672057502246181491464510332434861" y="0.057152595435852134758112243445999589966610737183117" font-size="0.012578616352201257861635220125786163522012578616352" text-anchor="middle" dominant-baseline="central" fill="rgb(255,255,255)">53</text>
<rect x="1.3095238095238095238095238095238095238095238095238" y="0.029200114653182672843367309833141448806582784702334" width="0.018518518518518518518518518518518518518518518518519" height="0.018518518518518518518518518518518518518518518518519" fill="rgb(220,57,18)" />
<text x="1.3187830687830687830687830687830687830687830687831" y="0.038459373912441932102626569092400708065842043961594" font-size="0.012345679012345679012345679012345679012345679012346" text-anchor="middle" dominant-baseline="central" fill="rgb(255,255,255)">54</text>
<rect x="1.4242424242424242424242424242424242424242424242424" y="0.24570707070707070707070707070707070707070707070707" width="0.018181818181818181818181818181818181818181818181818" height="0.018181818181818181818181818181818181818181818181818" fill="rgb(51,102,204)" />
<text x="1.4333333333333333333333333333333333333333333333333" y="0.25479797979797979797979797979797979797979797979798" font-size="0.012121212121212121212121212121212121212121212121212" text-anchor="middle" dominant-baseline="central" fill="rgb(255,255,255)">55</text>
<rect x="1.4242424242424242424242424242424242424242424242424" y="0.22784992784992784992784992784992784992784992784993" width="0.017857142857142857142857142857142857142857142857143" height="0.017857142857142857142857142857142857142857142857143" fill="rgb(220,57,18)" />
<text x="1.4331709956709956709956709956709956709956709956710" y="0.23677849927849927849927849927849927849927849927850" font-size="0.011904761904761904761904761904761904761904761904762" text-anchor="middle" dominant-baseline="central" fill="rgb(255,255,255)">56</text>
<rect x="1.4242424242424242424242424242424242424242424242424" y="0.21030606820080504291030606820080504291030606820081" width="0.017543859649122807017543859649122807017543859649123" height="0.017543859649122807017543859649122807017543859649123" fill="rgb(51,102,204)" />
<text x="1.4330143540669856459330143540669856459330143540670" y="0.21907799802536644641907799802536644641907799802537" font-size="0.011695906432748538011695906432748538011695906432749" text-anchor="middle" dominant-baseline="central" fill="rgb(255,255,255)">57</text>
<rect x="1.4242424242424242424242424242424242424242424242424" y="0.19306468889046021532409917164908090497927158544218" width="0.017241379310344827586206896551724137931034482758621" height="0.017241379310344827586206896551724137931034482758621" fill="rgb(220,57,18)" />
<text x="1.4328631138975966562173458725182863113897596656217" y="0.20168537854563262911720261992494297394478882682149" font-size="0.011494252873563218390804597701149425287356321839080" text-anchor="middle" dominant-baseline="central" fill="rgb(255,255,255)">58</text>
<rect x="1.4242424242424242424242424242424242424242424242424" y="0.17611553634808733396816696825925039650469531425574" width="0.016949152542372881355932203389830508474576271186441" height="0.016949152542372881355932203389830508474576271186441" fill="rgb(51,102,204)" />
<text x="1.4327170005136106831022085259373394966615305598356" y="0.18459011261927377464613306995416565074198344984896" font-size="0.011299435028248587570621468926553672316384180790960" text-anchor="middle" dominant-baseline="central" fill="rgb(255,255,255)">59</text>
<rect x="1.8166666666666666666666666666666666666666666666667" y="0.8" width="0.016666666666666666666666666666666666666666666666667" height="0.016666666666666666666666666666666666666666666666667" fill="rgb(220,57,18)" />
<text x="1.825" y="0.80833333333333333333333333333333333333333333333333" font-size="0.011111111111111111111111111111111111111111111111111" text-anchor="middle" dominant-baseline="central" fill="rgb(255,255,255)">60</text>
<rect x="1.8166666666666666666666666666666666666666666666667" y="0.78360655737704918032786885245901639344262295081967" width="0.016393442622950819672131147540983606557377049180328" height="0.016393442622950819672131147540983606557377049180328" fill="rgb(51,102,204)" />
<text x="1.8248633879781420765027322404371584699453551912568" y="0.79180327868852459016393442622950819672131147540984" font-size="0.010928961748633879781420765027322404371584699453552" text-anchor="middle" dominant-baseline="central" fill="rgb(255,255,255)">61</text>
<rect x="1.8166666666666666666666666666666666666666666666667" y="0.76747752511898466419883659439450026441036488630354" width="0.016129032258064516129032258064516129032258064516129" height="0.016129032258064516129032258064516129032258064516129" fill="rgb(220,57,18)" />
<text x="1.8247311827956989247311827956989247311827956989247" y="0.77554204124801692226335272342675832892649391856161" font-size="0.010752688172043010752688172043010752688172043010753" text-anchor="middle" dominant-baseline="central" fill="rgb(255,255,255)">62</text>
<rect x="1.8166666666666666666666666666666666666666666666667" y="0.75160450924596879118296357852148439139449187043053" width="0.015873015873015873015873015873015873015873015873016" height="0.015873015873015873015873015873015873015873015873016" fill="rgb(51,102,204)" />
<text x="1.8246031746031746031746031746031746031746031746032" y="0.75954101718247672769090008645799232790242837836704" font-size="0.010582010582010582010582010582010582010582010582011" text-anchor="middle" dominant-baseline="central" fill="rgb(255,255,255)">63</text>
<rect x="1.8333333333333333333333333333333333333333333333333" y="0.884375" width="0.015625" height="0.015625" fill="rgb(220,57,18)" />
<text x="1.8411458333333333333333333333333333333333333333333" y="0.8921875" font-size="0.010416666666666666666666666666666666666666666666667" text-anchor="middle" dominant-baseline="central" fill="rgb(255,255,255)">64</text>
<rect x="1.8333333333333333333333333333333333333333333333333" y="0.86899038461538461538461538461538461538461538461538" width="0.015384615384615384615384615384615384615384615384615" height="0.015384615384615384615384615384615384615384615384615" fill="rgb(51,102,204)" />
<text x="1.8410256410256410256410256410256410256410256410256" y="0.87668269230769230769230769230769230769230769230769" font-size="0.010256410256410256410256410256410256410256410256410" text-anchor="middle" dominant-baseline="central" fill="rgb(255,255,255)">65</text>
<rect x="1.8333333333333333333333333333333333333333333333333" y="0.85383886946386946386946386946386946386946386946387" width="0.015151515151515151515151515151515151515151515151515" height="0.015151515151515151515151515151515151515151515151515" fill="rgb(220,57,18)" />
<text x="1.8409090909090909090909090909090909090909090909091" y="0.86141462703962703962703962703962703962703962703963" font-size="0.010101010101010101010101010101010101010101010101010" text-anchor="middle" dominant-baseline="central" fill="rgb(255,255,255)">66</text>
<rect x="1.8333333333333333333333333333333333333333333333333" y="0.83891349632954110566050864558327244894409073513551" width="0.014925373134328358208955223880597014925373134328358" height="0.014925373134328358208955223880597014925373134328358" fill="rgb(51,102,204)" />
<text x="1.8407960199004975124378109452736318407960199004975" y="0.84637618289670528476498625752357095640677730229969" font-size="0.0099502487562189054726368159203980099502487562189055" text-anchor="middle" dominant-baseline="central" fill="rgb(255,255,255)">67</text>
<rect x="1.8333333333333333333333333333333333333333333333333" y="0.82420761397659992918992041028915480188526720572375" width="0.014705882352941176470588235294117647058823529411765" height="0.014705882352941176470588235294117647058823529411765" fill="rgb(220,57,18)" />
<text x="1.8406862745098039215686274509803921568627450980392" y="0.83156055515307051742521452793621362541467897042963" font-size="0.0098039215686274509803921568627450980392156862745098" text-anchor="middle" dominant-baseline="central" fill="rgb(255,255,255)">68</text>
<rect x="1.85" y="0.90858416945373467112597547380156075808249721293200" width="0.014492753623188405797101449275362318840579710144928" height="0.014492753623188405797101449275362318840579710144928" fill="rgb(51,102,204)" />
<text x="1.8572463768115942028985507246376811594202898550725" y="0.91583054626532887402452619843924191750278706800446" font-size="0.0096618357487922705314009661835748792270531400966184" text-anchor="middle" dominant-baseline="central" fill="rgb(255,255,255)">69</text>
<rect x="1.8644927536231884057971014492753623188405797101449" y="0.90879120879120879120879120879120879120879120879121" width="0.014285714285714285714285714285714285714285714285714" height="0.014285714285714285714285714285714285714285714285714" fill="rgb(220,57,18)" />
<text x="1.8716356107660455486542443064182194616977225672878" y="0.91593406593406593406593406593406593406593406593407" font-size="0.0095238095238095238095238095238095238095238095238095" text-anchor="middle" dominant-baseline="central" fill="rgb(255,255,255)">70</text>
<rect x="1.8787784679089026915113871635610766045548654244306" y="0.90899241603466955579631635969664138678223185265439" width="0.014084507042253521126760563380281690140845070422535" height="0.014084507042253521126760563380281690140845070422535" fill="rgb(51,102,204)" />
<text x="1.8858207214300294520747674452512174496252879596419" y="0.91603466955579631635969664138678223185265438786566" font-size="0.0093896713615023474178403755868544600938967136150235" text-anchor="middle" dominant-baseline="central" fill="rgb(255,255,255)">71</text>
<rect x="1.4444444444444444444444444444444444444444444444444" y="0.36111111111111111111111111111111111111111111111111" width="0.013888888888888888888888888888888888888888888888889" height="0.013888888888888888888888888888888888888888888888889" fill="rgb(220,57,18)" />
<text x="1.4513888888888888888888888888888888888888888888889" y="0.36805555555555555555555555555555555555555555555556" font-size="0.0092592592592592592592592592592592592592592592592593" text-anchor="middle" dominant-baseline="central" fill="rgb(255,255,255)">72</text>
<rect x="1.4444444444444444444444444444444444444444444444444" y="0.34741248097412480974124809741248097412480974124810" width="0.013698630136986301369863013698630136986301369863014" height="0.013698630136986301369863013698630136986301369863014" fill="rgb(51,102,204)" />
<text x="1.4512937595129375951293759512937595129375951293760" y="0.35426179604261796042617960426179604261796042617960" font-size="0.0091324200913242009132420091324200913242009132420091" text-anchor="middle" dominant-baseline="central" fill="rgb(255,255,255)">73</text>
<rect x="1.4444444444444444444444444444444444444444444444444" y="0.33389896746061129622773458389896746061129622773458" width="0.013513513513513513513513513513513513513513513513514" height="0.013513513513513513513513513513513513513513513513514" fill="rgb(220,57,18)" />
<text x="1.4512012012012012012012012012012012012012012012012" y="0.34065572421736805298449134065572421736805298449134" font-size="0.0090090090090090090090090090090090090090090090090090" text-anchor="middle" dominant-baseline="central" fill="rgb(255,255,255)">74</text>
<rect x="1.4444444444444444444444444444444444444444444444444" y="0.32056563412727796289440125056563412727796289440125" width="0.013333333333333333333333333333333333333333333333333" height="0.013333333333333333333333333333333333333333333333333" fill="rgb(51,102,204)" />
<text x="1.4511111111111111111111111111111111111111111111111" y="0.32723230079394462956106791723230079394462956106792" font-size="0.0088888888888888888888888888888888888888888888888889" text-anchor="middle" dominant-baseline="central" fill="rgb(255,255,255)">75</text>
<rect x="1.4444444444444444444444444444444444444444444444444" y="0.30740773939043585763124335582879202201480499966441" width="0.013157894736842105263157894736842105263157894736842" height="0.013157894736842105263157894736842105263157894736842" fill="rgb(220,57,18)" />
<text x="1.4510233918128654970760233918128654970760233918129" y="0.31398668675885691026282230319721307464638394703283" font-size="0.0087719298245614035087719298245614035087719298245614" text-anchor="middle" dominant-baseline="central" fill="rgb(255,255,255)">76</text>
<rect x="1.4444444444444444444444444444444444444444444444444" y="0.29442072640342287061825634284177903500181798667740" width="0.012987012987012987012987012987012987012987012987013" height="0.012987012987012987012987012987012987012987012987013" fill="rgb(51,102,204)" />
<text x="1.4509379509379509379509379509379509379509379509380" y="0.30091423289692936412474984933528552850831149317090" font-size="0.0086580086580086580086580086580086580086580086580087" text-anchor="middle" dominant-baseline="central" fill="rgb(255,255,255)">77</text>
<rect x="1.4444444444444444444444444444444444444444444444444" y="0.28160021358291005010543583002126621448899747385688" width="0.012820512820512820512820512820512820512820512820513" height="0.012820512820512820512820512820512820512820512820513" fill="rgb(220,57,18)" />
<text x="1.4508547008547008547008547008547008547008547008547" y="0.28801046999316646036184608643152262474540773026714" font-size="0.0085470085470085470085470085470085470085470085470085" text-anchor="middle" dominant-baseline="central" fill="rgb(255,255,255)">78</text>
<rect x="1.4444444444444444444444444444444444444444444444444" y="0.26894198573480878428265101989468393600798481562903" width="0.012658227848101265822784810126582278481012658227848" height="0.012658227848101265822784810126582278481012658227848" fill="rgb(51,102,204)" />
<text x="1.4507735583684950773558368495077355836849507735584" y="0.27527109965885941719404342495797507524849114474296" font-size="0.0084388185654008438818565400843881856540084388185654" text-anchor="middle" dominant-baseline="central" fill="rgb(255,255,255)">79</text>
<rect x="1.6865518539431582909843779408996800301148127235084" y="0.5375" width="0.0125" height="0.0125" fill="rgb(220,57,18)" />
<text x="1.6928018539431582909843779408996800301148127235084" y="0.54375" font-size="0.0083333333333333333333333333333333333333333333333333" text-anchor="middle" dominant-baseline="central" fill="rgb(255,255,255)">80</text>
<rect x="1.6865518539431582909843779408996800301148127235084" y="0.52515432098765432098765432098765432098765432098765" width="0.012345679012345679012345679012345679012345679012346" height="0.012345679012345679012345679012345679012345679012346" fill="rgb(51,102,204)" />
<text x="1.6927246934493311304905507804058528696209855630145" y="0.53132716049382716049382716049382716049382716049383" font-size="0.0082304526748971193415637860082304526748971193415638" text-anchor="middle" dominant-baseline="central" fill="rgb(255,255,255)">81</text>
<rect x="1.6865518539431582909843779408996800301148127235084" y="0.51295919903643480879253236976814212586570310147546" width="0.012195121951219512195121951219512195121951219512195" height="0.012195121951219512195121951219512195121951219512195" fill="rgb(220,57,18)" />
<text x="1.6926494149187680470819389165094361276757883332645" y="0.51905676001204456489009334537789822342667871123156" font-size="0.0081300813008130081300813008130081300813008130081301" text-anchor="middle" dominant-baseline="central" fill="rgb(255,255,255)">82</text>
<rect x="1.7370370370370370370370370370370370370370370370370" y="0.73795180722891566265060240963855421686746987951807" width="0.012048192771084337349397590361445783132530120481928" height="0.012048192771084337349397590361445783132530120481928" fill="rgb(51,102,204)" />
<text x="1.7430611334225792057117358322177599286033020972780" y="0.74397590361445783132530120481927710843373493975904" font-size="0.0080321285140562248995983935742971887550200803212851" text-anchor="middle" dominant-baseline="central" fill="rgb(255,255,255)">83</text>
<rect x="1.7370370370370370370370370370370370370370370370370" y="0.72604704532415375788869764773379231210556511761331" width="0.011904761904761904761904761904761904761904761904762" height="0.011904761904761904761904761904761904761904761904762" fill="rgb(220,57,18)" />
<text x="1.7429894179894179894179894179894179894179894179894" y="0.73199942627653471026965002868617326448651749856569" font-size="0.0079365079365079365079365079365079365079365079365079" text-anchor="middle" dominant-baseline="central" fill="rgb(255,255,255)">84</text>
<rect x="1.7370370370370370370370370370370370370370370370370" y="0.71428233944180081671222705949849819445850629408390" width="0.011764705882352941176470588235294117647058823529412" height="0.011764705882352941176470588235294117647058823529412" fill="rgb(51,102,204)" />
<text x="1.7429193899782135076252723311546840958605664488017" y="0.72016469238297728730046235361614525328203570584860" font-size="0.0078431372549019607843137254901960784313725490196078" text-anchor="middle" dominant-baseline="central" fill="rgb(255,255,255)">85</text>
<rect x="1.8928629749511562126381477269413582946957104948532" y="0.91144901610017889087656529516994633273703041144902" width="0.011627906976744186046511627906976744186046511627907" height="0.011627906976744186046511627906976744186046511627907" fill="rgb(220,57,18)" />
<text x="1.8986769284395283056614035408948466667887337506671" y="0.91726296958855098389982110912343470483005366726297" font-size="0.0077519379844961240310077519379844961240310077519380" text-anchor="middle" dominant-baseline="central" fill="rgb(255,255,255)">86</text>
<rect x="1.9044908819279003986846593548483350388817570064811" y="0.91158267020335985853227232537577365163572060123784" width="0.011494252873563218390804597701149425287356321839080" height="0.011494252873563218390804597701149425287356321839080" fill="rgb(51,102,204)" />
<text x="1.9102380083646820078800616536989097515254351674006" y="0.91732979664014146772767462422634836427939876215738" font-size="0.0076628352490421455938697318007662835249042145593870" text-anchor="middle" dominant-baseline="central" fill="rgb(255,255,255)">87</text>
<rect x="2.2278623122663370341388917240310429164918329005016" y="0.95738636363636363636363636363636363636363636363636" width="0.011363636363636363636363636363636363636363636363636" height="0.011363636363636363636363636363636363636363636363636" fill="rgb(220,57,18)" />
<text x="2.2335441304481552159570735422128610983100147186834" y="0.96306818181818181818181818181818181818181818181818" font-size="0.0075757575757575757575757575757575757575757575757576" text-anchor="middle" dominant-baseline="central" fill="rgb(255,255,255)">88</text>
<rect x="2.2392259486299733977752553603946792801281965368653" y="0.95751404494382022471910112359550561797752808988764" width="0.011235955056179775280898876404494382022471910112360" height="0.011235955056179775280898876404494382022471910112360" fill="rgb(51,102,204)" />
<text x="2.2448439261580632854157047985969264711394324919214" y="0.96313202247191011235955056179775280898876404494382" font-size="0.0074906367041198501872659176029962546816479400749064" text-anchor="middle" dominant-baseline="central" fill="rgb(255,255,255)">89</text>
<rect x="2.4765233726416049152589211488252491046419914501165" y="0.98888888888888888888888888888888888888888888888889" width="0.011111111111111111111111111111111111111111111111111" height="0.011111111111111111111111111111111111111111111111111" fill="rgb(220,57,18)" />
<text x="2.4820789281971604708144767043808046601975470056721" y="0.99444444444444444444444444444444444444444444444444" font-size="0.0074074074074074074074074074074074074074074074074074" text-anchor="middle" dominant-baseline="central" fill="rgb(255,255,255)">90</text>
<rect x="2.4765233726416049152589211488252491046419914501165" y="0.97789987789987789987789987789987789987789987789988" width="0.010989010989010989010989010989010989010989010989011" height="0.010989010989010989010989010989010989010989010989011" fill="rgb(51,102,204)" />
<text x="2.4820178781361104097644156543197545991474859556110" y="0.98339438339438339438339438339438339438339438339438" font-size="0.0073260073260073260073260073260073260073260073260073" text-anchor="middle" dominant-baseline="central" fill="rgb(255,255,255)">91</text>
<rect x="1.9159851348014636170754639525494844641691133283202" y="0.91220735785953177257525083612040133779264214046823" width="0.010869565217391304347826086956521739130434782608696" height="0.010869565217391304347826086956521739130434782608696" fill="rgb(220,57,18)" />
<text x="1.9214199174101592692493769960277453337343307196245" y="0.91764214046822742474916387959866220735785953177258" font-size="0.0072463768115942028985507246376811594202898550724638" text-anchor="middle" dominant-baseline="central" fill="rgb(255,255,255)">92</text>
<rect x="2.4876344837527160263700322599363602157531025612276" y="0.98924731182795698924731182795698924731182795698925" width="0.010752688172043010752688172043010752688172043010753" height="0.010752688172043010752688172043010752688172043010753" fill="rgb(51,102,204)" />
<text x="2.4930108278387375317463763459578655920971885827330" y="0.99462365591397849462365591397849462365591397849462" font-size="0.0071684587813620071684587813620071684587813620071685" text-anchor="middle" dominant-baseline="central" fill="rgb(255,255,255)">93</text>
<rect x="2.4983871719247590371227204319793709684412746042384" y="0.98936170212765957446808510638297872340425531914894" width="0.010638297872340425531914893617021276595744680851064" height="0.010638297872340425531914893617021276595744680851064" fill="rgb(220,57,18)" />
<text x="2.5037063208609292498886778787878816067391469446639" y="0.99468085106382978723404255319148936170212765957447" font-size="0.0070921985815602836879432624113475177304964539007092" text-anchor="middle" dominant-baseline="central" fill="rgb(255,255,255)">94</text>
<rect x="2.5090254697970994626546353255963922450370192850894" y="0.98947368421052631578947368421052631578947368421053" width="0.010526315789473684210526315789473684210526315789474" height="0.010526315789473684210526315789473684210526315789474" fill="rgb(51,102,204)" />
<text x="2.5142886276918363047598984834911290871422824429842" y="0.99473684210526315789473684210526315789473684210526" font-size="0.0070175438596491228070175438596491228070175438596491" text-anchor="middle" dominant-baseline="central" fill="rgb(255,255,255)">95</text>
<rect x="2.5195517855865731468651616413858659292475456008789" y="0.98958333333333333333333333333333333333333333333333" width="0.010416666666666666666666666666666666666666666666667" height="0.010416666666666666666666666666666666666666666666667" fill="rgb(220,57,18)" />
<text x="2.5247601189199064801984949747191992625808789342122" y="0.99479166666666666666666666666666666666666666666667" font-size="0.0069444444444444444444444444444444444444444444444444" text-anchor="middle" dominant-baseline="central" fill="rgb(255,255,255)">96</text>
<rect x="2.5299684522532398135318283080525325959142122675456" y="0.98969072164948453608247422680412371134020618556701" width="0.010309278350515463917525773195876288659793814432990" height="0.010309278350515463917525773195876288659793814432990" fill="rgb(51,102,204)" />
<text x="2.5351230914284975454905911946504707402441091747621" y="0.99484536082474226804123711340206185567010309278351" font-size="0.0068728522336769759450171821305841924398625429553265" text-anchor="middle" dominant-baseline="central" fill="rgb(255,255,255)">97</text>
<rect x="2.5402777306037552774493540812484088845740060819786" y="0.98979591836734693877551020408163265306122448979592" width="0.010204081632653061224489795918367346938775510204082" height="0.010204081632653061224489795918367346938775510204082" fill="rgb(220,57,18)" />
<text x="2.5453797714200818080615989792075925580433938370806" y="0.99489795918367346938775510204081632653061224489796" font-size="0.0068027210884353741496598639455782312925170068027211" text-anchor="middle" dominant-baseline="central" fill="rgb(255,255,255)">98</text>
<rect x="2.5504818122364083386738438771667762315127815921826" y="0.98989898989898989898989898989898989898989898989899" width="0.010101010101010101010101010101010101010101010101010" height="0.010101010101010101010101010101010101010101010101010" fill="rgb(51,102,204)" />
<text x="2.5555323172869133891788943822172812820178320972331" y="0.99494949494949494949494949494949494949494949494949" font-size="0.0067340067340067340067340067340067340067340067340067" text-anchor="middle" dominant-baseline="central" fill="rgb(255,255,255)">99</text>
<rect x="2.2278623122663370341388917240310429164918329005016" y="0.94738636363636363636363636363636363636363636363636" width="0.01" height="0.01" fill="rgb(220,57,18)" />
<text x="2.2328623122663370341388917240310429164918329005016" y="0.95238636363636363636363636363636363636363636363636" font-size="0.0044444444444444444444444444444444444444444444444444" text-anchor="middle" dominant-baseline="central" fill="rgb(255,255,255)">100</text>
</svg>
