<svg xmlns="http://www.w3.org/2000/svg" viewBox="0 0 2.4896564571266627530002050281467986510169600586891 1">
<rect width="100%" height="100%" fill="black" />
<rect x="0" y="0" width="1" height="1" fill="rgb(51,102,204)" />
<text x="0.5" y="0.5" font-size="0.8" text-anchor="middle" dominant-baseline="central" fill="rgb(255,255,255)">1</text>
<rect x="1" y="0.5" width="0.5" height="0.5" fill="rgb(220,57,18)" />
<text x="1.25" y="0.75" font-size="0.4" text-anchor="middle" dominant-baseline="central" fill="rgb(255,255,255)">2</text>
<rect x="1" y="0.16666666666666666666666666666666666666666666666667" width="0.33333333333333333333333333333333333333333333333333" height="0.33333333333333333333333333333333333333333333333333" fill="rgb(51,102,204)" />
<text x="1.1666666666666666666666666666666666666666666666667" y="0.33333333333333333333333333333333333333333333333333" font-size="0.26666666666666666666666666666666666666666666666667" text-anchor="middle" dominant-baseline="central" fill="rgb(255,255,255)">3</text>
<rect x="1.5" y="0.75" width="0.25" height="0.25" fill="rgb(220,57,18)" />
<text x="1.625" y="0.875" font-size="0.2" text-anchor="middle" dominant-baseline="central" fill="rgb(255,255,255)">4</text>
<rect x="1.5" y="0.55" width="0.2" height="0.2" fill="rgb(51,102,204)" />
<text x="1.6" y="0.65" font-size="0.16" text-anchor="middle" dominant-baseline="central" fill="rgb(255,255,255)">5</text>
<rect x="1.75" y="0.83333333333333333333333333333333333333333333333333" width="0.16666666666666666666666666666666666666666666666667" height="0.16666666666666666666666666666666666666666666666667" fill="rgb(220,57,18)" />
<text x="1.8333333333333333333333333333333333333333333333333" y="0.91666666666666666666666666666666666666666666666667" font-size="0.13333333333333333333333333333333333333333333333333" text-anchor="middle" dominant-baseline="central" fill="rgb(255,255,255)">6</text>
<rect x="1" y="0.023809523809523809523809523809523809523809523809524" width="0.14285714285714285714285714285714285714285714285714" height="0.14285714285714285714285714285714285714285714285714" fill="rgb(51,102,204)" />
<text x="1.0714285714285714285714285714285714285714285714286" y="0.095238095238095238095238095238095238095238095238095" font-size="0.11428571428571428571428571428571428571428571428571" text-anchor="middle" dominant-baseline="central" fill="rgb(255,255,255)">7</text>
<rect x="1.1428571428571428571428571428571428571428571428571" y="0.041666666666666666666666666666666666666666666666667" width="0.125" height="0.125" fill="rgb(220,57,18)" />
<text x="1.2053571428571428571428571428571428571428571428571" y="0.10416666666666666666666666666666666666666666666667" font-size="0.1" text-anchor="middle" dominant-baseline="central" fill="rgb(255,255,255)">8</text>
<rect x="1.3333333333333333333333333333333333333333333333333" y="0.38888888888888888888888888888888888888888888888889" width="0.11111111111111111111111111111111111111111111111111" height="0.11111111111111111111111111111111111111111111111111" fill="rgb(51,102,204)" />
<text x="1.3888888888888888888888888888888888888888888888889" y="0.44444444444444444444444444444444444444444444444444" font-size="0.088888888888888888888888888888888888888888888888889" text-anchor="middle" dominant-baseline="central" fill="rgb(255,255,255)">9</text>
<rect x="1.3333333333333333333333333333333333333333333333333" y="0.28888888888888888888888888888888888888888888888889" width="0.1" height="0.1" fill="rgb(220,57,18)" />
<text x="1.3833333333333333333333333333333333333333333333333" y="0.33888888888888888888888888888888888888888888888889" font-size="0.066666666666666666666666666666666666666666666666667" text-anchor="middle" dominant-baseline="central" fill="rgb(255,255,255)">10</text>
<rect x="1.3333333333333333333333333333333333333333333333333" y="0.19797979797979797979797979797979797979797979797980" width="0.090909090909090909090909090909090909090909090909091" height="0.090909090909090909090909090909090909090909090909091" fill="rgb(51,102,204)" />
<text x="1.3787878787878787878787878787878787878787878787879" y="0.24343434343434343434343434343434343434343434343434" font-size="0.060606060606060606060606060606060606060606060606061" text-anchor="middle" dominant-baseline="central" fill="rgb(255,255,255)">11</text>
<rect x="1.9166666666666666666666666666666666666666666666667" y="0.91666666666666666666666666666666666666666666666667" width="0.083333333333333333333333333333333333333333333333333" height="0.083333333333333333333333333333333333333333333333333" fill="rgb(220,57,18)" />
<text x="1.9583333333333333333333333333333333333333333333333" y="0.95833333333333333333333333333333333333333333333333" font-size="0.055555555555555555555555555555555555555555555555556" text-anchor="middle" dominant-baseline="central" fill="rgb(255,255,255)">12</text>
<rect x="1.75" y="0.75641025641025641025641025641025641025641025641026" width="0.076923076923076923076923076923076923076923076923077" height="0.076923076923076923076923076923076923076923076923077" fill="rgb(51,102,204)" />
<text x="1.7884615384615384615384615384615384615384615384615" y="0.79487179487179487179487179487179487179487179487179" font-size="0.051282051282051282051282051282051282051282051282051" text-anchor="middle" dominant-baseline="central" fill="rgb(255,255,255)">13</text>
<rect x="1.8269230769230769230769230769230769230769230769231" y="0.76190476190476190476190476190476190476190476190476" width="0.071428571428571428571428571428571428571428571428571" height="0.071428571428571428571428571428571428571428571428571" fill="rgb(220,57,18)" />
<text x="1.8626373626373626373626373626373626373626373626374" y="0.79761904761904761904761904761904761904761904761905" font-size="0.047619047619047619047619047619047619047619047619048" text-anchor="middle" dominant-baseline="central" fill="rgb(255,255,255)">14</text>
<rect x="1.9166666666666666666666666666666666666666666666667" y="0.85" width="0.066666666666666666666666666666666666666666666666667" height="0.066666666666666666666666666666666666666666666666667" fill="rgb(51,102,204)" />
<text x="1.95" y="0.88333333333333333333333333333333333333333333333333" font-size="0.044444444444444444444444444444444444444444444444444" text-anchor="middle" dominant-baseline="central" fill="rgb(255,255,255)">15</text>
<rect x="1.2678571428571428571428571428571428571428571428571" y="0.10416666666666666666666666666666666666666666666667" width="0.0625" height="0.0625" fill="rgb(220,57,18)" />
<text x="1.2991071428571428571428571428571428571428571428571" y="0.13541666666666666666666666666666666666666666666667" font-size="0.041666666666666666666666666666666666666666666666667" text-anchor="middle" dominant-baseline="central" fill="rgb(255,255,255)">16</text>
<rect x="1.2678571428571428571428571428571428571428571428571" y="0.045343137254901960784313725490196078431372549019608" width="0.058823529411764705882352941176470588235294117647059" height="0.058823529411764705882352941176470588235294117647059" fill="rgb(51,102,204)" />
<text x="1.2972689075630252100840336134453781512605042016807" y="0.074754901960784313725490196078431372549019607843137" font-size="0.039215686274509803921568627450980392156862745098039" text-anchor="middle" dominant-baseline="central" fill="rgb(255,255,255)">17</text>
<rect x="2" y="0.94444444444444444444444444444444444444444444444444" width="0.055555555555555555555555555555555555555555555555556" height="0.055555555555555555555555555555555555555555555555556" fill="rgb(220,57,18)" />
<text x="2.0277777777777777777777777777777777777777777777778" y="0.97222222222222222222222222222222222222222222222222" font-size="0.037037037037037037037037037037037037037037037037037" text-anchor="middle" dominant-baseline="central" fill="rgb(255,255,255)">18</text>
<rect x="1.4444444444444444444444444444444444444444444444444" y="0.44736842105263157894736842105263157894736842105263" width="0.052631578947368421052631578947368421052631578947368" height="0.052631578947368421052631578947368421052631578947368" fill="rgb(51,102,204)" />
<text x="1.4707602339181286549707602339181286549707602339181" y="0.47368421052631578947368421052631578947368421052632" font-size="0.035087719298245614035087719298245614035087719298246" text-anchor="middle" dominant-baseline="central" fill="rgb(255,255,255)">19</text>
<rect x="1.4444444444444444444444444444444444444444444444444" y="0.39736842105263157894736842105263157894736842105263" width="0.05" height="0.05" fill="rgb(220,57,18)" />
<text x="1.4694444444444444444444444444444444444444444444444" y="0.42236842105263157894736842105263157894736842105263" font-size="0.033333333333333333333333333333333333333333333333333" text-anchor="middle" dominant-baseline="central" fill="rgb(255,255,255)">20</text>
<rect x="1.5" y="0.50238095238095238095238095238095238095238095238095" width="0.047619047619047619047619047619047619047619047619048" height="0.047619047619047619047619047619047619047619047619048" fill="rgb(51,102,204)" />
<text x="1.5238095238095238095238095238095238095238095238095" y="0.52619047619047619047619047619047619047619047619048" font-size="0.031746031746031746031746031746031746031746031746032" text-anchor="middle" dominant-baseline="central" fill="rgb(255,255,255)">21</text>
<rect x="1.5476190476190476190476190476190476190476190476190" y="0.50454545454545454545454545454545454545454545454545" width="0.045454545454545454545454545454545454545454545454545" height="0.045454545454545454545454545454545454545454545454545" fill="rgb(220,57,18)" />
<text x="1.5703463203463203463203463203463203463203463203463" y="0.52727272727272727272727272727272727272727272727273" font-size="0.030303030303030303030303030303030303030303030303030" text-anchor="middle" dominant-baseline="central" fill="rgb(255,255,255)">22</text>
<rect x="1.5930735930735930735930735930735930735930735930736" y="0.50652173913043478260869565217391304347826086956522" width="0.043478260869565217391304347826086956521739130434783" height="0.043478260869565217391304347826086956521739130434783" fill="rgb(51,102,204)" />
<text x="1.6148127235083756822887257669866365518539431582910" y="0.52826086956521739130434782608695652173913043478261" font-size="0.028985507246376811594202898550724637681159420289855" text-anchor="middle" dominant-baseline="central" fill="rgb(255,255,255)">23</text>
<rect x="1.6365518539431582909843779408996800301148127235084" y="0.50833333333333333333333333333333333333333333333333" width="0.041666666666666666666666666666666666666666666666667" height="0.041666666666666666666666666666666666666666666666667" fill="rgb(220,57,18)" />
<text x="1.6573851872764916243177112742330133634481460568417" y="0.52916666666666666666666666666666666666666666666667" font-size="0.027777777777777777777777777777777777777777777777778" text-anchor="middle" dominant-baseline="central" fill="rgb(255,255,255)">24</text>
<rect x="1.7" y="0.71" width="0.04" height="0.04" fill="rgb(51,102,204)" />
<text x="1.72" y="0.73" font-size="0.026666666666666666666666666666666666666666666666667" text-anchor="middle" dominant-baseline="central" fill="rgb(255,255,255)">25</text>
<rect x="1.7" y="0.67153846153846153846153846153846153846153846153846" width="0.038461538461538461538461538461538461538461538461538" height="0.038461538461538461538461538461538461538461538461538" fill="rgb(220,57,18)" />
<text x="1.7192307692307692307692307692307692307692307692308" y="0.69076923076923076923076923076923076923076923076923" font-size="0.025641025641025641025641025641025641025641025641026" text-anchor="middle" dominant-baseline="central" fill="rgb(255,255,255)">26</text>
<rect x="1.7" y="0.63450142450142450142450142450142450142450142450142" width="0.037037037037037037037037037037037037037037037037037" height="0.037037037037037037037037037037037037037037037037037" fill="rgb(51,102,204)" />
<text x="1.7185185185185185185185185185185185185185185185185" y="0.65301994301994301994301994301994301994301994301994" font-size="0.024691358024691358024691358024691358024691358024691" text-anchor="middle" dominant-baseline="central" fill="rgb(255,255,255)">27</text>
<rect x="1.7" y="0.59878713878713878713878713878713878713878713878714" width="0.035714285714285714285714285714285714285714285714286" height="0.035714285714285714285714285714285714285714285714286" fill="rgb(220,57,18)" />
<text x="1.7178571428571428571428571428571428571428571428571" y="0.61664428164428164428164428164428164428164428164428" font-size="0.023809523809523809523809523809523809523809523809524" text-anchor="middle" dominant-baseline="central" fill="rgb(255,255,255)">28</text>
<rect x="1.7" y="0.56430438016644913196637334568369051127671817326990" width="0.034482758620689655172413793103448275862068965517241" height="0.034482758620689655172413793103448275862068965517241" fill="rgb(51,102,204)" />
<text x="1.7172413793103448275862068965517241379310344827586" y="0.58154575947679395955258024223541464920775265602852" font-size="0.022988505747126436781609195402298850574712643678161" text-anchor="middle" dominant-baseline="central" fill="rgb(255,255,255)">29</text>
<rect x="2.0555555555555555555555555555555555555555555555556" y="0.96666666666666666666666666666666666666666666666667" width="0.033333333333333333333333333333333333333333333333333" height="0.033333333333333333333333333333333333333333333333333" fill="rgb(220,57,18)" />
<text x="2.0722222222222222222222222222222222222222222222222" y="0.98333333333333333333333333333333333333333333333333" font-size="0.022222222222222222222222222222222222222222222222222" text-anchor="middle" dominant-baseline="central" fill="rgb(255,255,255)">30</text>
<rect x="2.0888888888888888888888888888888888888888888888889" y="0.96774193548387096774193548387096774193548387096774" width="0.032258064516129032258064516129032258064516129032258" height="0.032258064516129032258064516129032258064516129032258" fill="rgb(51,102,204)" />
<text x="2.1050179211469534050179211469534050179211469534050" y="0.98387096774193548387096774193548387096774193548387" font-size="0.021505376344086021505376344086021505376344086021505" text-anchor="middle" dominant-baseline="central" fill="rgb(255,255,255)">31</text>
<rect x="1.3333333333333333333333333333333333333333333333333" y="0.16672979797979797979797979797979797979797979797980" width="0.03125" height="0.03125" fill="rgb(220,57,18)" />
<text x="1.3489583333333333333333333333333333333333333333333" y="0.18235479797979797979797979797979797979797979797980" font-size="0.020833333333333333333333333333333333333333333333333" text-anchor="middle" dominant-baseline="central" fill="rgb(255,255,255)">32</text>
<rect x="1.3645833333333333333333333333333333333333333333333" y="0.16767676767676767676767676767676767676767676767677" width="0.030303030303030303030303030303030303030303030303030" height="0.030303030303030303030303030303030303030303030303030" fill="rgb(51,102,204)" />
<text x="1.3797348484848484848484848484848484848484848484848" y="0.18282828282828282828282828282828282828282828282828" font-size="0.020202020202020202020202020202020202020202020202020" text-anchor="middle" dominant-baseline="central" fill="rgb(255,255,255)">33</text>
<rect x="2.1211469534050179211469534050179211469534050179211" y="0.97058823529411764705882352941176470588235294117647" width="0.029411764705882352941176470588235294117647058823529" height="0.029411764705882352941176470588235294117647058823529" fill="rgb(220,57,18)" />
<text x="2.1358528357579590976175416403120387940122285473329" y="0.98529411764705882352941176470588235294117647058824" font-size="0.019607843137254901960784313725490196078431372549020" text-anchor="middle" dominant-baseline="central" fill="rgb(255,255,255)">34</text>
<rect x="1.3948863636363636363636363636363636363636363636364" y="0.16940836940836940836940836940836940836940836940837" width="0.028571428571428571428571428571428571428571428571429" height="0.028571428571428571428571428571428571428571428571429" fill="rgb(51,102,204)" />
<text x="1.4091720779220779220779220779220779220779220779221" y="0.18369408369408369408369408369408369408369408369408" font-size="0.019047619047619047619047619047619047619047619047619" text-anchor="middle" dominant-baseline="central" fill="rgb(255,255,255)">35</text>
<rect x="2.1505587181109002740881298756061564410710520767447" y="0.97222222222222222222222222222222222222222222222222" width="0.027777777777777777777777777777777777777777777777778" height="0.027777777777777777777777777777777777777777777777778" fill="rgb(220,57,18)" />
<text x="2.1644476069997891629770187644950453299599409656336" y="0.98611111111111111111111111111111111111111111111111" font-size="0.018518518518518518518518518518518518518518518518519" text-anchor="middle" dominant-baseline="central" fill="rgb(255,255,255)">36</text>
<rect x="2" y="0.91741741741741741741741741741741741741741741741742" width="0.027027027027027027027027027027027027027027027027027" height="0.027027027027027027027027027027027027027027027027027" fill="rgb(51,102,204)" />
<text x="2.0135135135135135135135135135135135135135135135135" y="0.93093093093093093093093093093093093093093093093093" font-size="0.018018018018018018018018018018018018018018018018018" text-anchor="middle" dominant-baseline="central" fill="rgb(255,255,255)">37</text>
<rect x="2.0270270270270270270270270270270270270270270270270" y="0.91812865497076023391812865497076023391812865497076" width="0.026315789473684210526315789473684210526315789473684" height="0.026315789473684210526315789473684210526315789473684" fill="rgb(220,57,18)" />
<text x="2.0401849217638691322901849217638691322901849217639" y="0.93128654970760233918128654970760233918128654970760" font-size="0.017543859649122807017543859649122807017543859649123" text-anchor="middle" dominant-baseline="central" fill="rgb(255,255,255)">38</text>
<rect x="2.1783364958886780518659076533839342188488298545225" y="0.97435897435897435897435897435897435897435897435897" width="0.025641025641025641025641025641025641025641025641026" height="0.025641025641025641025641025641025641025641025641026" fill="rgb(51,102,204)" />
<text x="2.1911570087091908723787281662044470393616503673430" y="0.98717948717948717948717948717948717948717948717949" font-size="0.017094017094017094017094017094017094017094017094017" text-anchor="middle" dominant-baseline="central" fill="rgb(255,255,255)">39</text>
<rect x="2.2039775215297036928915486790249598598744708801635" y="0.975" width="0.025" height="0.025" fill="rgb(220,57,18)" />
<text x="2.2164775215297036928915486790249598598744708801635" y="0.9875" font-size="0.016666666666666666666666666666666666666666666666667" text-anchor="middle" dominant-baseline="central" fill="rgb(255,255,255)">40</text>
<rect x="2.2289775215297036928915486790249598598744708801635" y="0.97560975609756097560975609756097560975609756097561" width="0.024390243902439024390243902439024390243902439024390" height="0.024390243902439024390243902439024390243902439024390" fill="rgb(51,102,204)" />
<text x="2.2411726434809232050866706302444720549964220996757" y="0.98780487804878048780487804878048780487804878048780" font-size="0.016260162601626016260162601626016260162601626016260" text-anchor="middle" dominant-baseline="central" fill="rgb(255,255,255)">41</text>
<rect x="2.2533677654321427172817925814639842501183733191879" y="0.97619047619047619047619047619047619047619047619048" width="0.023809523809523809523809523809523809523809523809524" height="0.023809523809523809523809523809523809523809523809524" fill="rgb(220,57,18)" />
<text x="2.2652725273369046220436973433687461548802780810926" y="0.98809523809523809523809523809523809523809523809524" font-size="0.015873015873015873015873015873015873015873015873016" text-anchor="middle" dominant-baseline="central" fill="rgb(255,255,255)">42</text>
<rect x="1" y="0.00055370985603543743078626799557032115171650055370986" width="0.023255813953488372093023255813953488372093023255814" height="0.023255813953488372093023255813953488372093023255814" fill="rgb(51,102,204)" />
<text x="1.0116279069767441860465116279069767441860465116279" y="0.012181616832779623477297895902547065337763012181617" font-size="0.015503875968992248062015503875968992248062015503876" text-anchor="middle" dominant-baseline="central" fill="rgb(255,255,255)">43</text>
<rect x="1.0232558139534883720930232558139534883720930232558" y="0.0010822510822510822510822510822510822510822510822511" width="0.022727272727272727272727272727272727272727272727273" height="0.022727272727272727272727272727272727272727272727273" fill="rgb(220,57,18)" />
<text x="1.0346194503171247357293868921775898520084566596195" y="0.012445887445887445887445887445887445887445887445887" font-size="0.015151515151515151515151515151515151515151515151515" text-anchor="middle" dominant-baseline="central" fill="rgb(255,255,255)">44</text>
<rect x="1.0459830866807610993657505285412262156448202959831" y="0.0015873015873015873015873015873015873015873015873016" width="0.022222222222222222222222222222222222222222222222222" height="0.022222222222222222222222222222222222222222222222222" fill="rgb(51,102,204)" />
<text x="1.0570941977918722104768616396523373267559314070942" y="0.012698412698412698412698412698412698412698412698413" font-size="0.014814814814814814814814814814814814814814814814815" text-anchor="middle" dominant-baseline="central" fill="rgb(255,255,255)">45</text>
<rect x="1.0682053089029833215879727507634484378670425182053" y="0.0020703933747412008281573498964803312629399585921325" width="0.021739130434782608695652173913043478260869565217391" height="0.021739130434782608695652173913043478260869565217391" fill="rgb(220,57,18)" />
<text x="1.0790748741203746259357988377199701769974773008140" y="0.012939958592132505175983436853002070393374741200828" font-size="0.014492753623188405797101449275362318840579710144928" text-anchor="middle" dominant-baseline="central" fill="rgb(255,255,255)">46</text>
<rect x="1.0899444393377659302836249246764919161279120834227" y="0.0025329280648429584599797365754812563323201621073961" width="0.021276595744680851063829787234042553191489361702128" height="0.021276595744680851063829787234042553191489361702128" fill="rgb(51,102,204)" />
<text x="1.1005827372101063558155398182935131927236567642738" y="0.013171225937183383991894630192502532928064842958460" font-size="0.014184397163120567375886524822695035460992907801418" text-anchor="middle" dominant-baseline="central" fill="rgb(255,255,255)">47</text>
<rect x="1.1112210350824467813474547119105344693194014451248" y="0.0029761904761904761904761904761904761904761904761905" width="0.020833333333333333333333333333333333333333333333333" height="0.020833333333333333333333333333333333333333333333333" fill="rgb(220,57,18)" />
<text x="1.1216377017491134480141213785772011359860681117915" y="0.013392857142857142857142857142857142857142857142857" font-size="0.013888888888888888888888888888888888888888888888889" text-anchor="middle" dominant-baseline="central" fill="rgb(255,255,255)">48</text>
<rect x="1.6782185206098249576510446075663466967814793901750" y="0.52959183673469387755102040816326530612244897959184" width="0.020408163265306122448979591836734693877551020408163" height="0.020408163265306122448979591836734693877551020408163" fill="rgb(51,102,204)" />
<text x="1.6884226022424780188755344034847140437202549003791" y="0.53979591836734693877551020408163265306122448979592" font-size="0.013605442176870748299319727891156462585034013605442" text-anchor="middle" dominant-baseline="central" fill="rgb(255,255,255)">49</text>
<rect x="1.6782185206098249576510446075663466967814793901750" y="0.50959183673469387755102040816326530612244897959184" width="0.02" height="0.02" fill="rgb(220,57,18)" />
<text x="1.6882185206098249576510446075663466967814793901750" y="0.51959183673469387755102040816326530612244897959184" font-size="0.013333333333333333333333333333333333333333333333333" text-anchor="middle" dominant-baseline="central" fill="rgb(255,255,255)">50</text>
<rect x="2.0555555555555555555555555555555555555555555555556" y="0.94705882352941176470588235294117647058823529411765" width="0.019607843137254901960784313725490196078431372549020" height="0.019607843137254901960784313725490196078431372549020" fill="rgb(51,102,204)" />
<text x="2.0653594771241830065359477124183006535947712418301" y="0.95686274509803921568627450980392156862745098039216" font-size="0.013071895424836601307189542483660130718954248366013" text-anchor="middle" dominant-baseline="central" fill="rgb(255,255,255)">51</text>
<rect x="2.2771772892416665268056021052735080596421828429974" y="0.98076923076923076923076923076923076923076923076923" width="0.019230769230769230769230769230769230769230769230769" height="0.019230769230769230769230769230769230769230769230769" fill="rgb(220,57,18)" />
<text x="2.2867926738570511421902174898888926750267982276128" y="0.99038461538461538461538461538461538461538461538462" font-size="0.012820512820512820512820512820512820512820512820513" text-anchor="middle" dominant-baseline="central" fill="rgb(255,255,255)">52</text>
<rect x="2.2964080584724357575748328745042772904114136122282" y="0.98113207547169811320754716981132075471698113207547" width="0.018867924528301886792452830188679245283018867924528" height="0.018867924528301886792452830188679245283018867924528" fill="rgb(51,102,204)" />
<text x="2.3058420207365867009710592895986169130529230461904" y="0.99056603773584905660377358490566037735849056603774" font-size="0.012578616352201257861635220125786163522012578616352" text-anchor="middle" dominant-baseline="central" fill="rgb(255,255,255)">53</text>
<rect x="2.3152759830007376443672857046929565356944324801527" y="0.98148148148148148148148148148148148148148148148148" width="0.018518518518518518518518518518518518518518518518519" height="0.018518518518518518518518518518518518518518518518519" fill="rgb(220,57,18)" />
<text x="2.3245352422599969036265449639522157949536917394120" y="0.99074074074074074074074074074074074074074074074074" font-size="0.012345679012345679012345679012345679012345679012346" text-anchor="middle" dominant-baseline="central" fill="rgb(255,255,255)">54</text>
<rect x="1.8983516483516483516483516483516483516483516483516" y="0.81515151515151515151515151515151515151515151515152" width="0.018181818181818181818181818181818181818181818181818" height="0.018181818181818181818181818181818181818181818181818" fill="rgb(51,102,204)" />
<text x="1.9074425574425574425574425574425574425574425574426" y="0.82424242424242424242424242424242424242424242424242" font-size="0.012121212121212121212121212121212121212121212121212" text-anchor="middle" dominant-baseline="central" fill="rgb(255,255,255)">55</text>
<rect x="1.8983516483516483516483516483516483516483516483516" y="0.79729437229437229437229437229437229437229437229437" width="0.017857142857142857142857142857142857142857142857143" height="0.017857142857142857142857142857142857142857142857143" fill="rgb(220,57,18)" />
<text x="1.9072802197802197802197802197802197802197802197802" y="0.80622294372294372294372294372294372294372294372294" font-size="0.011904761904761904761904761904761904761904761904762" text-anchor="middle" dominant-baseline="central" fill="rgb(255,255,255)">56</text>
<rect x="1.1428571428571428571428571428571428571428571428571" y="0.024122807017543859649122807017543859649122807017544" width="0.017543859649122807017543859649122807017543859649123" height="0.017543859649122807017543859649122807017543859649123" fill="rgb(51,102,204)" />
<text x="1.1516290726817042606516290726817042606516290726817" y="0.032894736842105263157894736842105263157894736842105" font-size="0.011695906432748538011695906432748538011695906432749" text-anchor="middle" dominant-baseline="central" fill="rgb(255,255,255)">57</text>
<rect x="1.1604010025062656641604010025062656641604010025063" y="0.024425287356321839080459770114942528735632183908046" width="0.017241379310344827586206896551724137931034482758621" height="0.017241379310344827586206896551724137931034482758621" fill="rgb(220,57,18)" />
<text x="1.1690216921614380779535044507821277331259182438856" y="0.033045977011494252873563218390804597701149425287356" font-size="0.011494252873563218390804597701149425287356321839080" text-anchor="middle" dominant-baseline="central" fill="rgb(255,255,255)">58</text>
<rect x="1.1776423818166104917466078990579898020914354852649" y="0.024717514124293785310734463276836158192090395480226" width="0.016949152542372881355932203389830508474576271186441" height="0.016949152542372881355932203389830508474576271186441" fill="rgb(51,102,204)" />
<text x="1.1861169580877969324245740007529050563287236208581" y="0.033192090395480225988700564971751412429378531073446" font-size="0.011299435028248587570621468926553672316384180790960" text-anchor="middle" dominant-baseline="central" fill="rgb(255,255,255)">59</text>
<rect x="1.1945915343589833731025401024478203105660117564513" y="0.025" width="0.016666666666666666666666666666666666666666666666667" height="0.016666666666666666666666666666666666666666666666667" fill="rgb(220,57,18)" />
<text x="1.2029248676923167064358734357811536438993450897847" y="0.033333333333333333333333333333333333333333333333333" font-size="0.011111111111111111111111111111111111111111111111111" text-anchor="middle" dominant-baseline="central" fill="rgb(255,255,255)">60</text>
<rect x="1.2112582010256500397692067691144869772326784231180" y="0.025273224043715846994535519125683060109289617486339" width="0.016393442622950819672131147540983606557377049180328" height="0.016393442622950819672131147540983606557377049180328" fill="rgb(51,102,204)" />
<text x="1.2194549223371254496052723428849787805113669477082" y="0.033469945355191256830601092896174863387978142076503" font-size="0.010928961748633879781420765027322404371584699453552" text-anchor="middle" dominant-baseline="central" fill="rgb(255,255,255)">61</text>
<rect x="1.2276516436486008594413379166554705837900554722983" y="0.025537634408602150537634408602150537634408602150538" width="0.016129032258064516129032258064516129032258064516129" height="0.016129032258064516129032258064516129032258064516129" fill="rgb(220,57,18)" />
<text x="1.2357161597776331175058540456877286483061845045564" y="0.033602150537634408602150537634408602150537634408602" font-size="0.010752688172043010752688172043010752688172043010753" text-anchor="middle" dominant-baseline="central" fill="rgb(255,255,255)">62</text>
<rect x="1.2437806759066653755703701747199867128223135368145" y="0.025793650793650793650793650793650793650793650793651" width="0.015873015873015873015873015873015873015873015873016" height="0.015873015873015873015873015873015873015873015873016" fill="rgb(51,102,204)" />
<text x="1.2517171838431733120783066826564946493302500447510" y="0.033730158730158730158730158730158730158730158730159" font-size="0.010582010582010582010582010582010582010582010582011" text-anchor="middle" dominant-baseline="central" fill="rgb(255,255,255)">63</text>
<rect x="1.8983516483516483516483516483516483516483516483516" y="0.78166937229437229437229437229437229437229437229437" width="0.015625" height="0.015625" fill="rgb(220,57,18)" />
<text x="1.9061641483516483516483516483516483516483516483516" y="0.78948187229437229437229437229437229437229437229437" font-size="0.010416666666666666666666666666666666666666666666667" text-anchor="middle" dominant-baseline="central" fill="rgb(255,255,255)">64</text>
<rect x="1.8983516483516483516483516483516483516483516483516" y="0.76628475690975690975690975690975690975690975690976" width="0.015384615384615384615384615384615384615384615384615" height="0.015384615384615384615384615384615384615384615384615" fill="rgb(51,102,204)" />
<text x="1.9060439560439560439560439560439560439560439560440" y="0.77397706460206460206460206460206460206460206460206" font-size="0.010256410256410256410256410256410256410256410256410" text-anchor="middle" dominant-baseline="central" fill="rgb(255,255,255)">65</text>
<rect x="1.9166666666666666666666666666666666666666666666667" y="0.83484848484848484848484848484848484848484848484848" width="0.015151515151515151515151515151515151515151515151515" height="0.015151515151515151515151515151515151515151515151515" fill="rgb(220,57,18)" />
<text x="1.9242424242424242424242424242424242424242424242424" y="0.84242424242424242424242424242424242424242424242424" font-size="0.010101010101010101010101010101010101010101010101010" text-anchor="middle" dominant-baseline="central" fill="rgb(255,255,255)">66</text>
<rect x="1.9318181818181818181818181818181818181818181818182" y="0.83507462686567164179104477611940298507462686567164" width="0.014925373134328358208955223880597014925373134328358" height="0.014925373134328358208955223880597014925373134328358" fill="rgb(51,102,204)" />
<text x="1.9392808683853459972862957937584803256445047489824" y="0.84253731343283582089552238805970149253731343283582" font-size="0.0099502487562189054726368159203980099502487562189055" text-anchor="middle" dominant-baseline="central" fill="rgb(255,255,255)">67</text>
<rect x="1.9467435549525101763907734056987788331071913161465" y="0.83529411764705882352941176470588235294117647058824" width="0.014705882352941176470588235294117647058823529411765" height="0.014705882352941176470588235294117647058823529411765" fill="rgb(220,57,18)" />
<text x="1.9540964961289807646260675233458376566366030808524" y="0.84264705882352941176470588235294117647058823529412" font-size="0.0098039215686274509803921568627450980392156862745098" text-anchor="middle" dominant-baseline="central" fill="rgb(255,255,255)">68</text>
<rect x="1.9614494373054513528613616409928964801660148455583" y="0.83550724637681159420289855072463768115942028985507" width="0.014492753623188405797101449275362318840579710144928" height="0.014492753623188405797101449275362318840579710144928" fill="rgb(51,102,204)" />
<text x="1.9686958141170455557599123656305776395863047006308" y="0.84275362318840579710144927536231884057971014492754" font-size="0.0096618357487922705314009661835748792270531400966184" text-anchor="middle" dominant-baseline="central" fill="rgb(255,255,255)">69</text>
<rect x="1.7" y="0.55001866588073484625208763139797622556243245898418" width="0.014285714285714285714285714285714285714285714285714" height="0.014285714285714285714285714285714285714285714285714" fill="rgb(220,57,18)" />
<text x="1.7071428571428571428571428571428571428571428571429" y="0.55716152302359198910923048854083336841957531612704" font-size="0.0095238095238095238095238095238095238095238095238095" text-anchor="middle" dominant-baseline="central" fill="rgb(255,255,255)">70</text>
<rect x="1.7142857142857142857142857142857142857142857142857" y="0.55021987312419561083961278230340882113587310284736" width="0.014084507042253521126760563380281690140845070422535" height="0.014084507042253521126760563380281690140845070422535" fill="rgb(51,102,204)" />
<text x="1.7213279678068410462776659959758551307847082494970" y="0.55726212664532237140299306399354966620629563805863" font-size="0.0093896713615023474178403755868544600938967136150235" text-anchor="middle" dominant-baseline="central" fill="rgb(255,255,255)">71</text>
<rect x="1.9833333333333333333333333333333333333333333333333" y="0.90277777777777777777777777777777777777777777777778" width="0.013888888888888888888888888888888888888888888888889" height="0.013888888888888888888888888888888888888888888888889" fill="rgb(220,57,18)" />
<text x="1.9902777777777777777777777777777777777777777777778" y="0.90972222222222222222222222222222222222222222222222" font-size="0.0092592592592592592592592592592592592592592592592593" text-anchor="middle" dominant-baseline="central" fill="rgb(255,255,255)">72</text>
<rect x="1.9833333333333333333333333333333333333333333333333" y="0.88907914764079147640791476407914764079147640791476" width="0.013698630136986301369863013698630136986301369863014" height="0.013698630136986301369863013698630136986301369863014" fill="rgb(51,102,204)" />
<text x="1.9901826484018264840182648401826484018264840182648" y="0.89592846270928462709284627092846270928462709284627" font-size="0.0091324200913242009132420091324200913242009132420091" text-anchor="middle" dominant-baseline="central" fill="rgb(255,255,255)">73</text>
<rect x="1.9833333333333333333333333333333333333333333333333" y="0.87556563412727796289440125056563412727796289440125" width="0.013513513513513513513513513513513513513513513513514" height="0.013513513513513513513513513513513513513513513513514" fill="rgb(220,57,18)" />
<text x="1.9900900900900900900900900900900900900900900900901" y="0.88232239088403471965115800732239088403471965115801" font-size="0.0090090090090090090090090090090090090090090090090090" text-anchor="middle" dominant-baseline="central" fill="rgb(255,255,255)">74</text>
<rect x="1.9833333333333333333333333333333333333333333333333" y="0.86223230079394462956106791723230079394462956106792" width="0.013333333333333333333333333333333333333333333333333" height="0.013333333333333333333333333333333333333333333333333" fill="rgb(51,102,204)" />
<text x="1.99" y="0.86889896746061129622773458389896746061129622773458" font-size="0.0088888888888888888888888888888888888888888888888889" text-anchor="middle" dominant-baseline="central" fill="rgb(255,255,255)">75</text>
<rect x="2.0751633986928104575163398692810457516339869281046" y="0.95350877192982456140350877192982456140350877192982" width="0.013157894736842105263157894736842105263157894736842" height="0.013157894736842105263157894736842105263157894736842" fill="rgb(220,57,18)" />
<text x="2.0817423460612315101479188166494668042655658754730" y="0.96008771929824561403508771929824561403508771929825" font-size="0.0087719298245614035087719298245614035087719298245614" text-anchor="middle" dominant-baseline="central" fill="rgb(255,255,255)">76</text>
<rect x="2.3337945015192561628858042232114750542129509986712" y="0.98701298701298701298701298701298701298701298701299" width="0.012987012987012987012987012987012987012987012987013" height="0.012987012987012987012987012987012987012987012987013" fill="rgb(51,102,204)" />
<text x="2.3402880080127626563922977297049815477194445051647" y="0.99350649350649350649350649350649350649350649350649" font-size="0.0086580086580086580086580086580086580086580086580087" text-anchor="middle" dominant-baseline="central" fill="rgb(255,255,255)">77</text>
<rect x="2.3467815145062691498987912361984880412259380116582" y="0.98717948717948717948717948717948717948717948717949" width="0.012820512820512820512820512820512820512820512820513" height="0.012820512820512820512820512820512820512820512820513" fill="rgb(220,57,18)" />
<text x="2.3531917709165255601552014926087444514823482680685" y="0.99358974358974358974358974358974358974358974358974" font-size="0.0085470085470085470085470085470085470085470085470085" text-anchor="middle" dominant-baseline="central" fill="rgb(255,255,255)">78</text>
<rect x="2.3596020273267819704116117490190008617387585244787" y="0.98734177215189873417721518987341772151898734177215" width="0.012658227848101265822784810126582278481012658227848" height="0.012658227848101265822784810126582278481012658227848" fill="rgb(51,102,204)" />
<text x="2.3659311412508326033230041540822920009792648535927" y="0.99367088607594936708860759493670886075949367088608" font-size="0.0084388185654008438818565400843881856540084388185654" text-anchor="middle" dominant-baseline="central" fill="rgb(255,255,255)">79</text>
<rect x="2.3722602551748832362343965591455831402197711827066" y="0.9875" width="0.0125" height="0.0125" fill="rgb(220,57,18)" />
<text x="2.3785102551748832362343965591455831402197711827066" y="0.99375" font-size="0.0083333333333333333333333333333333333333333333333333" text-anchor="middle" dominant-baseline="central" fill="rgb(255,255,255)">80</text>
<rect x="2.3847602551748832362343965591455831402197711827066" y="0.98765432098765432098765432098765432098765432098765" width="0.012345679012345679012345679012345679012345679012346" height="0.012345679012345679012345679012345679012345679012346" fill="rgb(51,102,204)" />
<text x="2.3909330946810560757405693986517559797259440222128" y="0.99382716049382716049382716049382716049382716049383" font-size="0.0082304526748971193415637860082304526748971193415638" text-anchor="middle" dominant-baseline="central" fill="rgb(255,255,255)">81</text>
<rect x="1.9833333333333333333333333333333333333333333333333" y="0.85003717884272511736594596601278859882267834155572" width="0.012195121951219512195121951219512195121951219512195" height="0.012195121951219512195121951219512195121951219512195" fill="rgb(220,57,18)" />
<text x="1.9894308943089430894308943089430894308943089430894" y="0.85613473981833487346350694162254469638365395131182" font-size="0.0081300813008130081300813008130081300813008130081301" text-anchor="middle" dominant-baseline="central" fill="rgb(255,255,255)">82</text>
<rect x="2.3971059341872289152467422381579288192321168617189" y="0.98795180722891566265060240963855421686746987951807" width="0.012048192771084337349397590361445783132530120481928" height="0.012048192771084337349397590361445783132530120481928" fill="rgb(51,102,204)" />
<text x="2.4031300305727710839214410333386517107983819219599" y="0.99397590361445783132530120481927710843373493975904" font-size="0.0080321285140562248995983935742971887550200803212851" text-anchor="middle" dominant-baseline="central" fill="rgb(255,255,255)">83</text>
<rect x="2.4091541269583132525961398285193746023646469822009" y="0.98809523809523809523809523809523809523809523809524" width="0.011904761904761904761904761904761904761904761904762" height="0.011904761904761904761904761904761904761904761904762" fill="rgb(220,57,18)" />
<text x="2.4151065079106942049770922094717555547455993631532" y="0.99404761904761904761904761904761904761904761904762" font-size="0.0079365079365079365079365079365079365079365079365079" text-anchor="middle" dominant-baseline="central" fill="rgb(255,255,255)">84</text>
<rect x="2.4210588888630751573580445904241365071265517441056" y="0.98823529411764705882352941176470588235294117647059" width="0.011764705882352941176470588235294117647058823529412" height="0.011764705882352941176470588235294117647058823529412" fill="rgb(51,102,204)" />
<text x="2.4269412418042516279462798845417835659500811558703" y="0.99411764705882352941176470588235294117647058823529" font-size="0.0078431372549019607843137254901960784313725490196078" text-anchor="middle" dominant-baseline="central" fill="rgb(255,255,255)">85</text>
<rect x="2.4328235947454280985345151786594306247736105676350" y="0.98837209302325581395348837209302325581395348837209" width="0.011627906976744186046511627906976744186046511627907" height="0.011627906976744186046511627906976744186046511627907" fill="rgb(220,57,18)" />
<text x="2.4386375482338001915577709926129189968666338234490" y="0.99418604651162790697674418604651162790697674418605" font-size="0.0077519379844961240310077519379844961240310077519380" text-anchor="middle" dominant-baseline="central" fill="rgb(255,255,255)">86</text>
<rect x="2.4444515017221722845810268065664073689596570792629" y="0.98850574712643678160919540229885057471264367816092" width="0.011494252873563218390804597701149425287356321839080" height="0.011494252873563218390804597701149425287356321839080" fill="rgb(51,102,204)" />
<text x="2.4501986281589538937764291054169820816033352401825" y="0.99425287356321839080459770114942528735632183908046" font-size="0.0076628352490421455938697318007662835249042145593870" text-anchor="middle" dominant-baseline="central" fill="rgb(255,255,255)">87</text>
<rect x="2.4559457545957355029718314042675567942470134011020" y="0.98863636363636363636363636363636363636363636363636" width="0.011363636363636363636363636363636363636363636363636" height="0.011363636363636363636363636363636363636363636363636" fill="rgb(220,57,18)" />
<text x="2.4616275727775536847900132224493749760651952192838" y="0.99431818181818181818181818181818181818181818181818" font-size="0.0075757575757575757575757575757575757575757575757576" text-anchor="middle" dominant-baseline="central" fill="rgb(255,255,255)">88</text>
<rect x="2.4673093909593718666081950406311931578833770374657" y="0.98876404494382022471910112359550561797752808988764" width="0.011235955056179775280898876404494382022471910112360" height="0.011235955056179775280898876404494382022471910112360" fill="rgb(51,102,204)" />
<text x="2.4729273684874617542486444788334403488946129925218" y="0.99438202247191011235955056179775280898876404494382" font-size="0.0074906367041198501872659176029962546816479400749064" text-anchor="middle" dominant-baseline="central" fill="rgb(255,255,255)">89</text>
<rect x="2.4785453460155516418890939170356875399058489475780" y="0.98888888888888888888888888888888888888888888888889" width="0.011111111111111111111111111111111111111111111111111" height="0.011111111111111111111111111111111111111111111111111" fill="rgb(220,57,18)" />
<text x="2.4841009015711071974446494725912430954614045031336" y="0.99444444444444444444444444444444444444444444444444" font-size="0.0074074074074074074074074074074074074074074074074074" text-anchor="middle" dominant-baseline="central" fill="rgb(255,255,255)">90</text>
<rect x="1.4333333333333333333333333333333333333333333333333" y="0.37789987789987789987789987789987789987789987789988" width="0.010989010989010989010989010989010989010989010989011" height="0.010989010989010989010989010989010989010989010989011" fill="rgb(51,102,204)" />
<text x="1.4388278388278388278388278388278388278388278388278" y="0.38339438339438339438339438339438339438339438339438" font-size="0.0073260073260073260073260073260073260073260073260073" text-anchor="middle" dominant-baseline="central" fill="rgb(255,255,255)">91</text>
<rect x="1.4333333333333333333333333333333333333333333333333" y="0.36703031268248659553007379094335616074746509529118" width="0.010869565217391304347826086956521739130434782608696" height="0.010869565217391304347826086956521739130434782608696" fill="rgb(220,57,18)" />
<text x="1.4387681159420289855072463768115942028985507246377" y="0.37246509529118224770398683442161703031268248659553" font-size="0.0072463768115942028985507246376811594202898550724638" text-anchor="middle" dominant-baseline="central" fill="rgb(255,255,255)">92</text>
<rect x="1.1320543684157801146807880452438678026527347784582" y="0.013056835637480798771121351766513056835637480798771" width="0.010752688172043010752688172043010752688172043010753" height="0.010752688172043010752688172043010752688172043010753" fill="rgb(51,102,204)" />
<text x="1.1374307125018016200571321312653731789968207999635" y="0.018433179723502304147465437788018433179723502304147" font-size="0.0071684587813620071684587813620071684587813620071685" text-anchor="middle" dominant-baseline="central" fill="rgb(255,255,255)">93</text>
<rect x="1.4333333333333333333333333333333333333333333333333" y="0.35639201481014616999815889732633488415172041444012" width="0.010638297872340425531914893617021276595744680851064" height="0.010638297872340425531914893617021276595744680851064" fill="rgb(220,57,18)" />
<text x="1.4386524822695035460992907801418439716312056737589" y="0.36171116374631638276411634413484552244959275486565" font-size="0.0070921985815602836879432624113475177304964539007092" text-anchor="middle" dominant-baseline="central" fill="rgb(255,255,255)">94</text>
<rect x="1.4333333333333333333333333333333333333333333333333" y="0.34586569902067248578763258153686119994119409865064" width="0.010526315789473684210526315789473684210526315789474" height="0.010526315789473684210526315789473684210526315789474" fill="rgb(51,102,204)" />
<text x="1.4385964912280701754385964912280701754385964912281" y="0.35112885691540932789289573943159804204645725654538" font-size="0.0070175438596491228070175438596491228070175438596491" text-anchor="middle" dominant-baseline="central" fill="rgb(255,255,255)">95</text>
<rect x="1.4333333333333333333333333333333333333333333333333" y="0.33544903235400581912096591487019453327452743198398" width="0.010416666666666666666666666666666666666666666666667" height="0.010416666666666666666666666666666666666666666666667" fill="rgb(220,57,18)" />
<text x="1.4385416666666666666666666666666666666666666666667" y="0.34065736568733915245429924820352786660786076531731" font-size="0.0069444444444444444444444444444444444444444444444444" text-anchor="middle" dominant-baseline="central" fill="rgb(255,255,255)">96</text>
<rect x="1.4333333333333333333333333333333333333333333333333" y="0.32513975400349035520344014167431824461473361755099" width="0.010309278350515463917525773195876288659793814432990" height="0.010309278350515463917525773195876288659793814432990" fill="rgb(51,102,204)" />
<text x="1.4384879725085910652920962199312714776632302405498" y="0.33029439317874808716220302827225638894463052476748" font-size="0.0068728522336769759450171821305841924398625429553265" text-anchor="middle" dominant-baseline="central" fill="rgb(255,255,255)">97</text>
<rect x="1.4333333333333333333333333333333333333333333333333" y="0.31493567237083729397895034575595089767595810734691" width="0.010204081632653061224489795918367346938775510204082" height="0.010204081632653061224489795918367346938775510204082" fill="rgb(220,57,18)" />
<text x="1.4384353741496598639455782312925170068027210884354" y="0.32003771318716382459119524371513457114534586244895" font-size="0.0068027210884353741496598639455782312925170068027211" text-anchor="middle" dominant-baseline="central" fill="rgb(255,255,255)">98</text>
<rect x="1.4333333333333333333333333333333333333333333333333" y="0.30483466226982719296884933565494079666585709724590" width="0.010101010101010101010101010101010101010101010101010" height="0.010101010101010101010101010101010101010101010101010" fill="rgb(51,102,204)" />
<text x="1.4383838383838383838383838383838383838383838383838" y="0.30988516732033224347389984070544584717090760229640" font-size="0.0067340067340067340067340067340067340067340067340067" text-anchor="middle" dominant-baseline="central" fill="rgb(255,255,255)">99</text>
<rect x="1.1320543684157801146807880452438678026527347784582" y="0.0030568356374807987711213517665130568356374807987711" width="0.01" height="0.01" fill="rgb(220,57,18)" />
<text x="1.1370543684157801146807880452438678026527347784582" y="0.0080568356374807987711213517665130568356374807987711" font-size="0.0044444444444444444444444444444444444444444444444444" text-anchor="middle" dominant-baseline="central" fill="rgb(255,255,255)">100</text>
</svg>
